<svg version="1.2" xmlns="http://www.w3.org/2000/svg" viewBox="0 0 66 45" width="66" height="45">
	<title>formapgto-american-svg</title>
	<defs>
		<radialGradient id="g1" cx="0" cy="0" r="1" gradientUnits="userSpaceOnUse" gradientTransform="matrix(36.076,0,0,36.076,20.752,9.738)">
			<stop offset="0" stop-color="#9dd5f6"/>
			<stop offset=".071" stop-color="#98d3f5"/>
			<stop offset=".157" stop-color="#89cef3"/>
			<stop offset=".252" stop-color="#70c6ef"/>
			<stop offset=".351" stop-color="#4ebbea"/>
			<stop offset=".455" stop-color="#23ade3"/>
			<stop offset=".5" stop-color="#0da6e0"/>
			<stop offset="1" stop-color="#2e77bc"/>
		</radialGradient>
	</defs>
	<style>
		.s0 { fill: url(#g1) } 
		.s1 { fill: #ffffff } 
	</style>
	<g id="Layer">
		<path id="Layer" class="s0" d="m52.3 3h-38.3v38.5h38.3v-12.7q0.1-0.1 0.2-0.2 0-0.1 0-0.2 0.1-0.1 0.1-0.2 0-0.1 0-0.2 0-0.2 0-0.3 0-0.1-0.1-0.2 0-0.1 0-0.2-0.1-0.1-0.2-0.2"/>
		<path id="Layer" fill-rule="evenodd" class="s1" d="m14 19.2l1.3-3h2.8l0.4 0.7v-0.7h3.3l0.7 1.6 0.7-1.6h10.5q0.1 0 0.3 0 0.1 0 0.3 0.1 0.2 0 0.3 0.1 0.1 0.1 0.3 0.2v-0.4h2.8v0.4q0.3-0.1 0.5-0.2 0.2-0.1 0.4-0.1 0.3-0.1 0.5-0.1 0.2 0 0.4 0h4.2l0.4 0.7v-0.7h3.1l0.4 0.7v-0.7h3v6.3h-3.1l-0.5-0.9v0.9h-3.8l-0.4-1h-0.9l-0.5 1h-1.9q-0.2 0-0.5 0-0.2 0-0.4-0.1-0.2 0-0.4-0.1-0.2-0.1-0.4-0.2v0.4h-4.7v-1.4c0-0.2 0-0.2-0.2-0.2h-0.1v1.6h-9v-0.8l-0.4 0.8h-1.9l-0.3-0.8v0.8h-3.6l-0.4-1h-0.9l-0.5 1h-1.8c0 0 0-3.3 0-3.3zm21.1-1.2q0-0.1-0.1-0.3-0.1-0.1-0.2-0.2-0.1-0.1-0.2-0.2-0.2-0.1-0.3-0.1-0.2-0.1-0.4-0.1-0.1 0-0.3 0-0.2 0-0.3 0h-2.5v4.5h1.1v-1.6h1.1c0.4 0 0.6 0 0.8 0.1q0.1 0.1 0.1 0.3 0.1 0.1 0.1 0.2 0 0.1 0 0.2 0 0.1 0 0.2v0.6h1.1v-0.9q0-0.1 0-0.2 0-0.1 0-0.2-0.1-0.1-0.1-0.2 0-0.1-0.1-0.2-0.1-0.1-0.1-0.1-0.1-0.1-0.1-0.1-0.1-0.1-0.2-0.1-0.1-0.1-0.1-0.1 0.1-0.1 0.3-0.2 0.1-0.1 0.2-0.3 0.1-0.1 0.2-0.3 0-0.2 0-0.4 0-0.1 0-0.3zm14.5 3.6v-4.5h-1.1v3.1l-1.9-3.1h-1.6v4.2l-1.8-4.2h-1.7l-1.5 3.5h-0.5q-0.1 0-0.2 0-0.1 0-0.2 0-0.1 0-0.2-0.1 0 0-0.1-0.1-0.1-0.1-0.2-0.2 0-0.2-0.1-0.3 0-0.1 0-0.3 0-0.1 0-0.3 0-0.1 0-0.2 0-0.2 0-0.3 0.1-0.1 0.1-0.3 0.1-0.1 0.2-0.2 0.1-0.1 0.2-0.1 0.1-0.1 0.2-0.1 0.1 0 0.2-0.1 0.1 0 0.2 0h1v-0.9h-1q-0.2 0-0.4 0-0.3 0-0.5 0.1-0.2 0-0.4 0.2-0.2 0.1-0.3 0.2-0.2 0.2-0.3 0.4-0.1 0.2-0.2 0.4-0.1 0.3-0.1 0.5 0 0.2 0 0.5-0.1 0.4 0 0.9 0.2 0.4 0.5 0.7 0.3 0.4 0.7 0.5 0.5 0.2 0.9 0.1h1.3l0.4-1h2.2l0.4 1h2.2v-3.4l2.1 3.4h1.5zm-24-4.5h-1.8l-1.3 3.1-1.4-3.1h-1.7v4.3l-1.9-4.3h-1.6l-1.9 4.5h1.2l0.4-1h2.2l0.4 1h2.2v-3.5l1.6 3.5h1l1.5-3.5v3.5h1.1c0 0 0-4.5 0-4.5zm4.4 3.6h-2.5v-0.9h2.5v-0.9h-2.5v-0.9h2.5v-0.9h-3.6v4.5h3.6zm3.7-1.7q-0.1 0-0.1 0-0.1 0.1-0.2 0.1 0 0-0.1 0-0.1 0-0.1 0h-1.4v-1h1.4q0 0 0.1 0 0.1 0 0.1 0 0.1 0 0.2 0 0 0 0.1 0.1 0.1 0 0.1 0 0 0.1 0.1 0.1 0 0.1 0 0.1 0 0.1 0 0.1 0 0.1 0 0.2 0 0 0 0.1-0.1 0.1-0.1 0.1 0 0-0.1 0.1zm3.1-1.9h-1.1v4.5h1.1zm4.7 2.6l0.8-1.8 0.7 1.8zm-25.5 0l0.7-1.8 0.7 1.8z"/>
		<path id="Layer" fill-rule="evenodd" class="s1" d="m52.4 28.8q0 0 0 0 0 0 0 0zm0 0c-0.1 0 0 1.2 0 1.2q-0.2 0-0.4 0.1-0.2 0.1-0.4 0.1-0.2 0-0.4 0-0.2 0.1-0.4 0.1h-2.8v-0.5q-0.2 0.1-0.4 0.2-0.2 0.1-0.3 0.2-0.2 0-0.4 0-0.2 0.1-0.4 0.1h-8.8v-1.5c0-0.2 0-0.2-0.2-0.2h-0.1v1.6h-2.9v-1.6q-0.2 0-0.4 0.1-0.2 0-0.4 0-0.2 0.1-0.4 0.1-0.1 0-0.3 0h-0.4v1.5h-3.5l-0.9-1-0.9 1h-5.7v-6.3h5.8l0.9 0.9 0.9-0.9h3.8q0.2-0.1 0.4-0.1 0.2 0.1 0.4 0.1 0.2 0.1 0.4 0.1 0.2 0.1 0.4 0.2v-0.3h3.5q0.1-0.1 0.3 0 0.2 0 0.4 0 0.2 0.1 0.4 0.2 0.1 0 0.3 0.1v-0.3h5.3v0.3q0.1-0.1 0.3-0.2 0.1 0 0.3-0.1 0.2 0 0.3 0 0.2-0.1 0.4 0h2.9v0.3q0.2-0.1 0.3-0.2 0.2 0 0.4-0.1 0.1 0 0.3 0 0.2-0.1 0.4 0h1.9v0.8h-2.1q-0.3 0-0.6 0.1-0.3 0.1-0.5 0.3-0.2 0.2-0.3 0.4-0.2 0.3-0.2 0.6c0 1.4 1.3 1.3 2.3 1.4q0.1 0 0.1 0 0.1 0 0.1 0 0.1 0 0.1 0 0 0.1 0.1 0.1 0 0 0 0.1 0.1 0 0.1 0 0 0.1 0 0.1 0 0 0 0.1 0 0 0 0.1 0 0 0 0.1 0 0 0 0-0.1 0.1-0.1 0.1 0 0-0.1 0 0 0.1-0.1 0.1-0.1 0-0.1 0-0.1 0-0.1 0h-2.1v1h2.1q0.2 0 0.4 0 0.2-0.1 0.4-0.1 0.2-0.1 0.4-0.2 0.1-0.1 0.3-0.3zm0-1.7q-0.1 0-0.1 0 0 0 0 0 0-0.1 0-0.1 0 0 0 0-0.2-0.1-0.3-0.2-0.2-0.1-0.3-0.1-0.2 0-0.3-0.1-0.2 0-0.4 0h-0.6q0 0-0.1 0 0 0-0.1 0 0 0-0.1 0 0 0-0.1 0 0-0.1-0.1-0.1 0 0 0-0.1-0.1 0-0.1-0.1 0 0 0-0.1 0 0 0-0.1 0 0 0-0.1 0.1 0 0.1 0 0-0.1 0.1-0.1 0 0 0.1 0 0-0.1 0.1-0.1 0 0 0.1 0 0 0 0.1 0h2zm-4.6-0.3q-0.2-0.1-0.3-0.1-0.2 0-0.4-0.1-0.1 0-0.3 0h-0.6q0 0-0.1 0 0 0-0.1 0 0 0-0.1 0 0 0-0.1 0 0-0.1-0.1-0.1 0 0-0.1-0.1 0 0 0-0.1 0 0 0-0.1 0 0 0-0.1 0 0 0-0.1 0 0 0.1 0 0-0.1 0-0.1 0.1 0 0.2 0 0-0.1 0.1-0.1 0 0 0.1 0 0 0 0.1 0h2v-0.9h-2.2q-0.3-0.1-0.6 0-0.3 0.1-0.5 0.3-0.2 0.2-0.3 0.4-0.1 0.3-0.1 0.6c0 1.4 1.2 1.4 2.2 1.4q0.1 0 0.1 0 0.1 0 0.1 0 0.1 0 0.1 0 0.1 0.1 0.1 0.1 0 0 0.1 0.1 0 0 0 0 0 0.1 0 0.1 0 0.1 0 0.1 0 0 0 0.1 0 0 0 0.1 0 0 0 0 0 0.1-0.1 0.1 0 0-0.1 0.1 0 0-0.1 0 0 0-0.1 0-0.1 0-0.1 0h-2.1v1h2.1c1.1 0 1.7-0.5 1.7-1.5q0-0.1 0-0.2 0-0.1-0.1-0.3 0-0.1-0.1-0.2-0.1-0.1-0.1-0.2-0.2-0.1-0.3-0.2zm-8.5 0.3q0.1-0.1 0.2-0.3 0.1-0.2 0.2-0.3 0-0.2 0-0.4 0-0.2 0-0.3 0-0.1-0.1-0.3-0.1-0.1-0.2-0.2-0.1-0.1-0.2-0.2-0.2-0.1-0.3-0.1-0.2-0.1-0.4-0.1-0.1 0-0.3 0-0.2 0-0.3 0h-2.5v4.5h1.1v-1.7h1.1q0.1 0 0.2 0 0.1 0 0.2 0.1 0.1 0 0.2 0 0.1 0.1 0.2 0.1 0.1 0.1 0.1 0.3 0.1 0.1 0.1 0.2 0 0.1 0 0.2 0 0.1 0 0.2v0.6h1.1v-0.9q0-0.1 0-0.2 0-0.1 0-0.2-0.1-0.1-0.1-0.2 0-0.1-0.1-0.2 0-0.1-0.1-0.2-0.1 0-0.1-0.1-0.1 0-0.2-0.1 0 0-0.1 0 0.1-0.1 0.3-0.2zm-1-0.4q0 0-0.1 0.1-0.1 0-0.1 0-0.1 0-0.2 0 0 0-0.1 0h-1.3v-1h1.3q0.1 0 0.1 0 0.1 0 0.2 0 0 0 0.1 0 0.1 0.1 0.1 0.1 0.1 0 0.1 0.1 0.1 0 0.1 0.1 0 0 0 0.1 0.1 0 0.1 0.1 0 0.1-0.1 0.1 0 0.1 0 0.1 0 0.1-0.1 0.1 0 0.1-0.1 0.1zm2 2.7h3.6v-0.9h-2.5v-0.9h2.5v-1h-2.5v-0.8h2.5v-0.9h-3.6zm-7.2-4.6h-3.5l-1.3 1.5-1.4-1.5h-4.3v4.6h4.3l1.3-1.5 1.4 1.5h2.1v-1.6h1.3c1 0 1.9-0.2 1.9-1.5 0-1.2-1-1.5-1.8-1.5zm-2.5 4.1l-1.7-1.8 1.7-1.8zm-4.3-0.5h-2.6v-0.9h2.3v-0.9h-2.3v-0.8h2.7l1.2 1.3zm6.7-1.5h-1.4v-1.2h1.4c0.4 0 0.7 0.2 0.7 0.6 0 0.4-0.3 0.6-0.7 0.6z"/>
	</g>
</svg>