<?xml version="1.0" encoding="utf-8"?>
<!-- Generator: Adobe Illustrator 24.0.0, SVG Export Plug-In . SVG Version: 6.00 Build 0)  -->
<svg version="1.1" id="Camada_1" xmlns="http://www.w3.org/2000/svg" xmlns:xlink="http://www.w3.org/1999/xlink" x="0px" y="0px"
	 viewBox="0 0 496.4 79.2" style="enable-background:new 0 0 496.4 79.2;" xml:space="preserve">
<style type="text/css">
	.st0{fill:#183967;}
	.st1{fill:#8ACF25;}
	.st2{fill:#FBC707;}
</style>
<g id="g126">
	<g id="g1312" transform="translate(400.5792,82.7004)">
		<path id="path1314" class="st0" d="M-203.3-66.3c-17.6,0-32.1,9.4-32.1,29.1c0,11.6,10,19,22.9,19c4.4,0,9.7-0.6,13.9-1.9l1.3-9.6
			c-3.4,1.1-6.8,2-10.6,2c-7.8,0-12.4-4.2-12.4-11.1c0-11.2,7.3-18,17.9-18c3.8,0,7.7,1,9.8,2.4l3.3-9.7
			C-191-64.8-196-66.3-203.3-66.3"/>
	</g>
	<g id="g1316" transform="translate(405.707,75.7219)">
		<path id="path1318" class="st0" d="M-179.2-19.6c-3.1,0-4.1-2.1-4.1-4.7c0-9.2,7.3-15.8,14-15.8c0.6,0,1.3,0.1,2,0.3l-1.6,6.2
			C-170.9-25.8-174.7-19.6-179.2-19.6 M-166.9-48.1c-14,0-30.9,8.3-30.9,25.5c0,6.6,3.8,11.4,12.1,11.4c6.6,0,10.6-3.5,13.7-8.3
			c-0.5,2.7-1.2,5.7-1.4,7.5h14c0.1-2.2,0.4-5.2,1.5-10.3l5.4-23.8C-155.1-47.3-161.9-48.1-166.9-48.1"/>
	</g>
	<g id="g1320" transform="translate(414.2073,75.7093)">
		<path id="path1322" class="st0" d="M-139.3-19.5c-3.6,0-4.6-2.7-4.6-5.6c0-5,2.6-14.8,9.3-14.8c3.6,0,4.5,2.8,4.5,5.7
			C-130.1-29.4-132.8-19.5-139.3-19.5 M-110.1-62.4h-13.6l-4.5,20.2c-1.4-3.6-5-5.8-10.1-5.8c-11.6,0-20.1,11-20.1,25.1
			c0,4.3,2.2,11.7,12.3,11.7c5.6,0,9.9-2.2,13.4-7.1l-1.1,6.3h12.7c0.4-2.3,0.7-4.7,1.7-8.9L-110.1-62.4z"/>
	</g>
	<g id="g1324" transform="translate(422.3706,75.7219)">
		<path id="path1326" class="st0" d="M-101-19.6c-3.1,0-4.1-2.1-4.1-4.7c0-9.2,7.3-15.8,14-15.8c0.6,0,1.3,0.1,2,0.3l-1.6,6.2
			C-92.6-25.8-96.4-19.6-101-19.6 M-88.6-48.1c-14,0-30.9,8.3-30.9,25.5c0,6.6,3.8,11.4,12.1,11.4c6.6,0,10.6-3.5,13.7-8.3
			c-0.5,2.7-1.2,5.7-1.4,7.5h14c0.2-2.2,0.4-5.2,1.6-10.3l5.4-23.8C-76.8-47.3-83.6-48.1-88.6-48.1"/>
	</g>
	<g id="g1328" transform="translate(431.4391,80.7258)">
		<path id="path1330" class="st0" d="M-58.3-53.1c-8.3,0-20.5,2.5-20.5,12.3c0,9.7,16.3,8.9,16.3,13.5c0,3.2-5.2,3.8-7.8,3.8
			c-3.8,0-7.3-1.1-10.6-2.7l-2.5,8.2c4.4,1.3,8.9,1.8,13.4,1.8c8.9,0,20.7-2.4,20.7-12.9c0-9.3-16.7-8.8-16.7-13.4
			c0-2.9,4.5-3.4,6.9-3.4c3.5,0,6.9,0.8,10,2.1l2.7-7.5C-50.1-52.4-54.4-53.1-58.3-53.1"/>
	</g>
	<g id="g1332" transform="translate(438.2939,82.4666)">
		<path id="path1334" class="st0" d="M-26.1-64.8l-14.5,4.1l-1.5,6.6h-6.4l-1.8,8.1h6.4l-3.3,14.9c-0.4,1.7-0.6,3.3-0.6,5
			c0,5.9,4,8,9.6,8c4.4,0,8.3-0.8,10.7-1.5l1.4-8.3c-1.3,0.5-2.7,0.8-4.1,0.8c-2,0-3.3-0.7-3.3-2.8c0-1,0.1-1.7,0.3-2.6l3-13.6h8.1
			l1.8-8.1h-8.1L-26.1-64.8z"/>
	</g>
	<g id="g1336" transform="translate(446.8973,80.6019)">
		<path id="path1338" class="st0" d="M14.3-52.3H0.6L-4-31.6c-0.7,3.4-2.7,7.3-6.9,7.3c-2.7,0-3.8-1.3-3.8-3.5c0-1,0.2-2.2,0.4-3.2
			l4.7-21.2h-13.7l-5.3,24c-0.3,1.3-0.4,2.5-0.4,3.8c0,6,4.4,8.4,10.4,8.4c6.3,0,10.3-3.1,13.4-7l-1,6.2H6.8
			c0.2-2.5,0.8-5.2,1.3-7.6L14.3-52.3z"/>
	</g>
	<g id="g1340" transform="translate(452.5854,80.7258)">
		<path id="path1342" class="st0" d="M41-53.1c-5.8,0-10.3,3.6-12.8,8.4l1.5-7.6H16.8c-0.2,2.5-0.8,5-1.4,7.6L9.2-17h13.7L26-31.3
			c1.3-5.5,5.3-10.6,11.7-10.6c1.1,0,2.1,0.1,3.1,0.5l3-11.4C42.9-53,42-53.1,41-53.1"/>
	</g>
	<g id="g1344" transform="translate(403.0984,83.073)">
		<path id="path1346" class="st1" d="M-191.5-68.8C-192-70-209-81.4-229.9-82.7c-21.2-2.3-45.6,7.4-70.1,24.3
			c-24.5,16.9-48.2,28.1-68.5,28.3c-19.9,1.1-35.6-6.8-34.6-4.2c0.5,1.2,17.5,12.5,38.4,13.9c21.2,2.3,45.6-7.4,70.1-24.3
			c24.5-16.9,48.2-28.1,68.5-28.3C-206.2-74.1-190.5-66.2-191.5-68.8"/>
	</g>
	<g id="g1348" transform="translate(401.214,73.6516)">
		<path id="path1350" class="st2" d="M-200.4-5.7c-0.4,1.1-16,11.1-35.6,11.2c-19.9,1-43.1-9.8-66.7-27.6
			c-23.6-17.8-46.3-30-65.3-31.4c-18.7-2.3-33.2,4.5-32.3,2c0.4-1.2,16-11.1,35.6-11.2c19.9-1,43.1,9.8,66.7,27.6
			c23.6,17.8,46.3,30,65.3,31.4C-213.9-1.5-199.5-8.2-200.4-5.7"/>
	</g>
</g>
</svg>
