<svg version="1.2" xmlns="http://www.w3.org/2000/svg" viewBox="0 0 66 45" width="66" height="45">
	<title>formapgto-elo-svg</title>
	<style>
		.s0 { fill: #fbc712 } 
		.s1 { fill: #40a6de } 
		.s2 { fill: #ee3424 } 
		.s3 { fill: #231f20 } 
	</style>
	<g id="Layer">
		<g id="Layer">
			<path id="Layer" class="s0" d="m13.1 15.9q0.3 0 0.5-0.1 0.3-0.1 0.5-0.1 0.3-0.1 0.6-0.1 0.2 0 0.5 0 1.2 0 2.2 0.4 1.1 0.4 2 1.1 0.9 0.7 1.5 1.7 0.6 1 0.8 2.1l4.5-0.9q-0.4-1.9-1.4-3.6-1-1.6-2.5-2.9-1.5-1.2-3.3-1.8-1.9-0.7-3.8-0.7-0.4 0-0.9 0-0.4 0.1-0.9 0.1-0.4 0.1-0.9 0.2-0.4 0.1-0.8 0.3z"/>
		</g>
		<g id="Layer">
			<path id="Layer" class="s1" d="m7.8 30.6l3.1-3.4q-0.6-0.5-1-1.1-0.4-0.5-0.7-1.2-0.3-0.6-0.4-1.3-0.2-0.7-0.2-1.4 0-0.7 0.2-1.4 0.1-0.6 0.4-1.3 0.3-0.6 0.7-1.2 0.4-0.6 1-1l-3.1-3.5q-0.9 0.8-1.6 1.8-0.7 0.9-1.2 2-0.5 1.1-0.8 2.3-0.2 1.1-0.2 2.3 0 1.2 0.2 2.4 0.3 1.1 0.8 2.2 0.5 1.1 1.2 2.1 0.7 0.9 1.6 1.7z"/>
		</g>
		<g id="Layer">
			<path id="Layer" class="s2" d="m21.7 23.5q-0.2 1.2-0.8 2.1-0.6 1-1.5 1.7-0.9 0.8-2 1.1-1 0.4-2.2 0.4-0.2 0-0.5 0-0.3 0-0.5-0.1-0.3 0-0.6-0.1-0.2-0.1-0.5-0.1l-1.4 4.3q0.4 0.2 0.8 0.3 0.5 0.1 0.9 0.2 0.5 0 0.9 0.1 0.5 0 0.9 0 2 0 3.8-0.6 1.8-0.7 3.3-1.9 1.5-1.2 2.5-2.9 1-1.7 1.4-3.6z"/>
		</g>
		<g id="Layer">
			<path id="Layer" fill-rule="evenodd" class="s3" d="m41.6 27.5q-0.3 0.4-0.6 0.8-0.3 0.4-0.7 0.7-0.4 0.3-0.8 0.5-0.4 0.3-0.8 0.5-0.7 0.3-1.3 0.4-0.7 0.2-1.4 0.2-0.7 0-1.3-0.1-0.7-0.2-1.3-0.5-0.2 0-0.3-0.1-0.2-0.1-0.4-0.2-0.1-0.1-0.3-0.1-0.1-0.1-0.3-0.3l1.6-2.3 0.1-0.1q0.4 0.3 0.8 0.5 0.5 0.1 1 0.2 0.4 0 0.9-0.1 0.5-0.1 0.9-0.3 0.3-0.1 0.5-0.2 0.3-0.2 0.5-0.3 0.2-0.2 0.4-0.4 0.2-0.2 0.3-0.5l0.1 0.1zm-11.4-0.2q0-0.1-0.1-0.3-0.1-0.1-0.1-0.2-0.1-0.1-0.2-0.2 0-0.1-0.1-0.2-0.2-0.6-0.4-1.3-0.1-0.6-0.1-1.3-0.1-0.6 0-1.2 0.2-0.7 0.4-1.3 0.2-0.6 0.6-1.2 0.3-0.6 0.8-1.1 0.4-0.5 1-0.9 0.5-0.4 1.2-0.7 0.7-0.3 1.5-0.5 0.9-0.1 1.7 0 0.8 0 1.6 0.3 0.8 0.3 1.5 0.7 0.5 0.3 0.9 0.6 0.5 0.4 0.8 0.9 0.4 0.4 0.7 0.9 0.2 0.5 0.4 1 0.1 0.1 0.1 0.2 0 0 0.1 0.1 0 0.1 0 0.2 0 0 0.1 0.1zm4.1-7.2q-0.5 0.3-1 0.6-0.4 0.4-0.7 0.9-0.2 0.5-0.4 1-0.1 0.6 0 1.2l6.2-2.7q-0.3-0.5-0.8-0.8-0.5-0.3-1.1-0.4-0.5-0.2-1.1-0.1-0.6 0.1-1.1 0.3z"/>
		</g>
		<g id="Layer">
			<path id="Layer" class="s3" d="m46.9 14v13.1l2 0.8-1.2 2.7-2.2-0.9q-0.2-0.1-0.4-0.2-0.1-0.1-0.3-0.2-0.1-0.1-0.2-0.2-0.1-0.2-0.3-0.3-0.1-0.2-0.1-0.4-0.1-0.2-0.2-0.4 0-0.2-0.1-0.4 0-0.2 0-0.4v-13.2h3z"/>
		</g>
		<g id="Layer">
			<path id="Layer" class="s3" d="m52.1 23.7q0.1-0.4 0.1-0.7 0.1-0.4 0.3-0.8 0.1-0.4 0.4-0.7 0.2-0.3 0.5-0.6l-2.1-2.3q-0.5 0.5-1 1.1-0.4 0.6-0.7 1.2-0.3 0.7-0.4 1.4-0.2 0.7-0.2 1.4 0 0.8 0.2 1.5 0.1 0.7 0.4 1.4 0.3 0.6 0.7 1.2 0.5 0.6 1 1.1l2.1-2.4q-0.3-0.2-0.5-0.5-0.3-0.4-0.4-0.7-0.2-0.4-0.3-0.8-0.1-0.4-0.1-0.8z"/>
		</g>
		<g id="Layer">
			<path id="Layer" class="s3" d="m55.9 27.5q-0.2 0-0.3 0-0.2 0-0.3-0.1-0.2 0-0.3 0-0.2-0.1-0.3-0.1l-1 3q0.2 0.1 0.5 0.1 0.3 0.1 0.5 0.1 0.3 0.1 0.6 0.1 0.3 0 0.6 0 1.1 0 2.3-0.4 1.1-0.4 2-1.1 0.9-0.8 1.5-1.8 0.6-1 0.9-2.2l-3.1-0.6q-0.1 0.6-0.5 1.2-0.3 0.5-0.8 0.9-0.5 0.4-1.1 0.7-0.6 0.2-1.2 0.2z"/>
		</g>
		<g id="Layer">
			<path id="Layer" class="s3" d="m55.9 16.9q-0.3 0-0.6 0-0.3 0-0.5 0.1-0.3 0-0.6 0.1-0.3 0-0.5 0.1l1 3q0.1 0 0.2-0.1 0.2 0 0.3 0 0.2-0.1 0.3-0.1 0.2 0 0.3 0 0.7 0 1.3 0.2 0.6 0.3 1.1 0.7 0.5 0.4 0.8 0.9 0.4 0.6 0.5 1.2l3.1-0.6q-0.3-1.2-0.9-2.2-0.6-1-1.5-1.8-0.9-0.7-2-1.1-1.2-0.4-2.3-0.4z"/>
		</g>
	</g>
</svg>