<?xml version="1.0" standalone="no"?>
<!DOCTYPE svg PUBLIC "-//W3C//DTD SVG 20010904//EN"
 "http://www.w3.org/TR/2001/REC-SVG-20010904/DTD/svg10.dtd">
<svg version="1.0" xmlns="http://www.w3.org/2000/svg"
 width="1000.000000pt" height="310.000000pt" viewBox="0 0 1000.000000 310.000000"
 preserveAspectRatio="xMidYMid meet">

<g transform="translate(0.000000,310.000000) scale(0.100000,-0.100000)"
fill="#000000" stroke="none">
<path d="M4050 3080 c0 -13 7 -20 20 -20 11 0 20 3 20 8 0 4 18 7 40 6 22 0
40 3 40 9 0 5 -14 7 -30 5 -17 -3 -33 -1 -36 4 -3 4 -16 8 -30 8 -17 0 -24 -5
-24 -20z"/>
<path d="M4180 3092 c0 -26 30 -32 169 -32 79 0 141 3 137 7 -4 4 10 12 31 19
32 9 8 11 -149 13 -104 1 -188 -2 -188 -7z"/>
<path d="M4563 3086 c-9 -11 -8 -15 7 -19 12 -3 21 1 23 12 4 14 5 15 6 0 1
-14 20 -17 154 -17 83 0 190 -5 237 -11 101 -12 222 -13 215 -1 -3 4 2 10 10
14 9 3 15 0 15 -9 0 -8 6 -13 13 -11 6 3 58 7 115 10 81 5 102 4 96 -6 -5 -10
-4 -10 5 -2 8 7 29 8 60 3 27 -4 156 -8 287 -9 132 -1 251 -3 266 -5 15 -2 44
1 65 6 35 9 58 13 115 17 29 3 9 24 -27 28 -14 1 -35 6 -46 9 -12 4 -19 3 -16
-2 3 -5 2 -15 -4 -23 -7 -12 -9 -10 -9 8 0 18 -6 22 -30 22 -17 0 -33 -7 -39
-17 -8 -14 -10 -15 -11 -3 0 12 -21 16 -110 18 -78 3 -110 0 -110 -8 0 -7 -8
-9 -20 -5 -14 4 -18 2 -15 -7 4 -9 -3 -14 -20 -16 -19 -1 -25 3 -25 19 0 19
-6 20 -89 18 -71 -1 -88 -4 -84 -15 3 -8 0 -14 -6 -14 -6 0 -11 7 -11 15 0 12
-18 15 -100 15 -55 0 -100 -4 -100 -9 0 -11 -69 -20 -76 -10 -2 4 -13 5 -24 2
-11 -3 -28 -2 -37 2 -29 12 -84 15 -78 5 9 -14 -105 -21 -115 -8 -10 13 -151
22 -159 10 -5 -8 -27 -8 -80 0 -57 9 -77 9 -93 -1 -11 -7 -17 -8 -13 -2 10 17
-127 14 -142 -3z m1090 -3 c-7 -2 -19 -2 -25 0 -7 3 -2 5 12 5 14 0 19 -2 13
-5z m334 -25 c-3 -8 -6 -5 -6 6 -1 11 2 17 5 13 3 -3 4 -12 1 -19z"/>
<path d="M6389 3080 c-14 -18 -18 -19 -29 -5 -14 17 -40 20 -40 5 0 -5 -7 -10
-15 -10 -7 0 -18 -6 -22 -14 -5 -8 -28 -16 -53 -19 l-45 -4 50 -1 c28 0 55 -1
60 -2 6 -1 15 -1 20 0 6 1 38 2 73 1 41 -1 61 2 57 9 -8 13 -2 13 28 -3 16 -9
59 -13 116 -13 49 1 87 -2 85 -6 -2 -4 9 -3 26 2 24 7 30 6 30 -7 0 -8 9 -17
20 -20 13 -3 20 -14 20 -28 0 -21 -6 -24 -57 -30 -98 -10 -123 -16 -123 -26 0
-5 -15 -16 -32 -24 -18 -7 -44 -22 -58 -33 -35 -28 -98 -62 -114 -62 -20 0
-71 -28 -91 -50 -10 -11 -28 -20 -39 -20 -20 -1 -56 -21 -56 -33 0 -3 9 -3 20
0 28 7 25 -11 -5 -27 -41 -22 -28 -35 32 -33 7 1 10 -3 8 -7 -3 -5 15 -12 39
-15 26 -4 47 -13 51 -22 4 -13 3 -13 -9 -4 -11 9 -17 9 -27 -2 -19 -18 -49
-29 -49 -17 0 15 -22 12 -42 -7 -16 -14 -23 -15 -38 -5 -19 12 -50 7 -50 -8 0
-4 -17 -13 -37 -19 -36 -10 -35 -10 17 -6 30 3 99 8 153 12 53 3 97 10 97 15
0 4 5 8 11 8 5 0 8 -3 6 -7 -3 -5 122 -9 277 -10 154 -1 315 -5 356 -10 49 -6
97 -5 140 3 116 20 384 75 418 85 18 6 67 12 110 14 l77 3 -45 -13 c-25 -7
-106 -25 -180 -40 -370 -75 -422 -90 -454 -137 -18 -25 -22 -17 -6 12 17 32
-65 18 -120 -21 -37 -26 -41 -27 -23 -7 l23 24 -43 3 c-23 1 -71 6 -107 12
-211 31 -741 16 -855 -26 -14 -5 -10 2 13 24 18 17 31 31 28 31 -13 0 -124
-56 -136 -69 -28 -29 -48 -85 -55 -151 -3 -36 -13 -113 -22 -172 -13 -91 -17
-105 -29 -93 -8 7 -14 21 -14 29 0 9 -5 16 -11 16 -6 0 -9 -6 -7 -12 3 -7 -23
-27 -61 -46 -36 -19 -69 -39 -73 -45 -4 -7 -8 -34 -8 -62 -1 -41 -3 -46 -11
-27 -14 37 -26 17 -34 -58 -4 -38 -11 -67 -16 -64 -11 6 -177 -34 -334 -81
-60 -18 -144 -41 -185 -50 -41 -9 -95 -23 -120 -32 -25 -8 -49 -16 -55 -17 -5
-2 -17 -5 -25 -8 -53 -19 -124 -37 -128 -33 -3 3 3 11 13 19 12 8 14 15 7 20
-6 3 -15 -1 -20 -11 -8 -14 -13 -15 -26 -4 -13 11 -20 9 -43 -8 l-27 -22 45 6
c38 5 41 4 19 -6 -23 -10 -76 -7 -142 7 -24 5 -28 3 -28 -15 0 -21 3 -22 48
-15 26 3 44 3 40 0 -3 -4 -12 -9 -20 -10 -7 -2 -26 -9 -43 -16 -16 -7 -47 -13
-69 -13 -21 0 -33 -3 -26 -7 6 -4 -15 -14 -49 -24 -34 -9 -65 -14 -71 -11 -5
3 -21 3 -35 -1 -16 -4 -22 -9 -16 -14 7 -3 -3 -7 -21 -8 -95 -3 -128 -6 -128
-14 0 -11 -28 -10 -35 2 -4 6 1 7 11 3 11 -4 15 -3 11 4 -4 6 -30 11 -58 11
-41 1 -50 -2 -45 -14 3 -9 6 -20 6 -26 0 -7 16 -8 43 -4 39 5 40 5 23 -9 -11
-8 -25 -15 -32 -15 -7 0 -20 -3 -30 -7 -11 -4 -15 -3 -10 5 4 7 -11 6 -46 -4
-29 -8 -98 -28 -153 -43 -55 -16 -163 -46 -240 -66 -77 -20 -150 -41 -163 -46
-13 -5 -30 -9 -38 -9 -9 0 -31 -7 -50 -16 -18 -9 -39 -14 -46 -11 -7 3 -2 6
12 6 22 1 23 2 8 17 -9 10 -39 17 -79 20 -39 3 -57 1 -45 -4 10 -5 20 -20 22
-35 2 -24 -2 -28 -39 -37 -23 -6 -73 -20 -112 -31 -78 -22 -204 -57 -250 -70
-17 -4 100 -7 262 -7 178 0 293 4 295 10 2 5 33 18 68 28 100 28 223 66 244
75 17 7 17 6 6 -16 -27 -52 -61 -88 -88 -92 -15 -2 49 -5 141 -6 190 -1 219
-9 265 -69 23 -30 27 -45 27 -102 0 -57 -4 -72 -27 -102 -54 -71 -19 -68 -782
-68 -794 0 -754 -5 -800 93 -12 27 -17 56 -14 92 1 29 0 51 -4 48 -5 -2 -8
-27 -8 -54 0 -66 -20 -110 -66 -145 l-37 -29 -356 -5 c-303 -4 -363 -8 -406
-22 -73 -26 -243 -76 -296 -87 -25 -6 -112 -32 -195 -60 -251 -83 -328 -104
-332 -92 -2 6 -18 11 -35 11 -29 -1 -30 -2 -14 -14 16 -12 7 -14 -64 -10 -45
2 -87 0 -93 -5 -17 -13 -48 -22 -42 -12 12 19 -38 18 -76 -1 -25 -13 -42 -17
-46 -11 -5 7 -29 7 -75 1 -82 -12 -90 -27 -9 -17 61 7 75 4 52 -11 -8 -6 -51
-9 -95 -8 -44 0 -91 -3 -105 -7 -23 -7 -24 -7 -10 10 13 16 13 18 0 13 -8 -2
-16 -12 -18 -21 -4 -18 -2 -19 148 -18 41 1 95 6 120 12 81 19 107 22 90 10
-13 -9 -13 -11 3 -11 9 0 17 7 17 15 0 11 12 15 46 15 25 0 55 5 67 11 22 10
22 10 2 -6 -11 -9 -31 -18 -45 -21 -14 -3 -32 -9 -41 -14 -9 -5 -34 -12 -55
-15 -22 -4 -58 -16 -82 -27 -23 -11 -63 -20 -88 -20 -26 -1 -40 -4 -32 -9 14
-9 -17 -23 -97 -43 l-50 -13 -3 -82 -3 -82 128 3 c127 4 129 4 288 62 256 93
570 196 620 203 25 3 43 8 40 12 -4 3 27 16 67 28 69 21 107 24 57 4 -38 -15
1 -12 55 4 26 8 52 13 55 10 4 -2 8 2 8 9 0 10 -9 11 -36 5 -46 -11 -60 -11
-41 0 13 8 548 191 557 191 12 0 0 -19 -15 -23 -12 -3 -11 -5 6 -6 13 0 21 -5
18 -10 -4 -5 0 -11 6 -14 7 -2 10 -8 5 -12 -4 -5 -13 -3 -19 3 -16 16 -29 15
-23 -1 6 -15 -127 -58 -193 -63 -46 -3 -60 -9 -48 -21 4 -4 16 -2 26 5 11 7
20 8 20 3 0 -14 -113 -56 -245 -90 -66 -18 -146 -41 -179 -53 -46 -17 -62 -19
-77 -10 -10 7 -33 12 -51 11 l-33 -1 28 -11 c35 -14 31 -35 -10 -58 -31 -17
-49 -10 -20 8 8 5 -1 10 -23 14 -19 3 -43 10 -52 14 -13 5 -18 3 -18 -8 0 -8
-6 -18 -12 -20 -8 -3 -6 -6 4 -6 11 -1 15 -6 12 -15 -3 -8 -13 -12 -25 -9 -11
3 -19 2 -18 -3 4 -25 -4 -34 -29 -34 -15 0 -32 -4 -37 -9 -15 -15 -167 -61
-178 -54 -5 3 -13 0 -17 -8 -5 -7 -24 -13 -44 -12 -20 1 -36 -3 -36 -7 0 -4
-9 -6 -20 -3 -16 4 -19 2 -14 -11 6 -15 93 -16 1005 -16 l998 0 178 76 c98 41
192 81 208 89 17 7 86 37 155 65 69 29 144 61 167 71 24 11 118 50 210 88 160
65 242 99 638 263 94 39 274 112 400 163 506 204 621 252 890 367 154 66 293
127 308 135 26 13 28 13 25 -2 -2 -11 -83 -51 -233 -116 -126 -55 -239 -104
-250 -109 -27 -12 -264 -109 -510 -210 -428 -176 -868 -358 -955 -397 -30 -14
-89 -39 -130 -55 -100 -40 -510 -211 -610 -255 -19 -8 -114 -49 -210 -90 -96
-41 -177 -77 -179 -79 -2 -2 952 -4 2120 -4 l2124 0 42 61 c35 51 42 57 47 41
4 -12 -2 -35 -14 -56 -24 -44 -25 -53 -3 -35 11 10 14 10 9 2 -6 -10 305 -13
1538 -13 l1546 0 0 1550 0 1550 -1465 0 c-1449 -1 -1465 -1 -1475 -21 -6 -10
-7 -18 -3 -17 4 2 9 0 11 -4 1 -5 0 -8 -3 -8 -3 0 -12 0 -21 0 -9 0 -12 5 -8
12 5 8 2 9 -10 5 -10 -4 -28 -7 -42 -7 -17 0 -25 -7 -30 -25 -6 -24 -44 -37
-44 -15 0 6 6 10 14 10 16 0 29 27 20 41 -3 5 3 9 13 9 15 0 16 2 3 10 -27 18
-40 11 -40 -21 0 -16 -4 -28 -8 -25 -5 3 -27 6 -50 7 -29 2 -42 8 -45 20 -4
14 -12 17 -38 13 -19 -3 -46 -5 -61 -5 -16 0 -28 -5 -28 -10 0 -5 -10 -9 -22
-9 -18 0 -18 13 0 16 4 0 18 6 32 12 22 10 19 11 -20 6 -25 -3 -50 -10 -57
-16 -14 -11 -36 -1 -28 13 4 5 -3 9 -14 9 -12 0 -21 -5 -21 -11 0 -8 -4 -8
-12 -2 -7 5 -42 10 -78 11 -55 2 -67 -1 -81 -18z m95 -5 c-4 -8 -2 -15 4 -15
5 0 12 -7 15 -14 4 -10 1 -13 -8 -10 -8 3 -17 14 -20 24 -4 11 -12 17 -21 13
-7 -3 -14 0 -14 6 0 6 11 11 25 11 18 0 23 -4 19 -15z m656 -11 c0 -2 -7 -4
-15 -4 -8 0 -15 4 -15 10 0 5 7 7 15 4 8 -4 15 -8 15 -10z m-795 -4 c3 -5 -1
-10 -10 -10 -9 0 -13 5 -10 10 3 6 8 10 10 10 2 0 7 -4 10 -10z m285 -10 c-9
-16 -40 -19 -40 -3 0 3 6 3 14 0 8 -3 17 1 20 9 3 8 8 14 11 14 3 0 1 -9 -5
-20z m97 4 c-3 -3 -12 -4 -19 -1 -8 3 -5 6 6 6 11 1 17 -2 13 -5z m151 -54
c31 0 68 -2 82 -4 14 -1 41 1 60 5 22 5 39 4 45 -3 7 -8 5 -9 -7 -5 -10 4 -18
2 -18 -3 0 -6 -17 -10 -38 -10 -21 0 -63 -4 -93 -9 -124 -21 -129 -21 -129 -1
0 10 7 20 15 24 8 3 16 13 16 23 1 15 2 16 6 2 3 -13 18 -17 61 -19z m332 -3
c8 -3 3 -5 -12 -4 -28 1 -34 8 -21 20 4 4 9 3 12 -1 3 -5 13 -12 21 -15z m243
11 c-2 -5 -15 -8 -28 -8 -13 0 -26 3 -28 8 -3 4 10 7 28 7 18 0 31 -3 28 -7z
m-144 -52 c-6 -6 -144 -37 -191 -42 -23 -3 -38 -1 -38 6 0 5 8 10 18 11 42 1
122 16 130 24 3 3 23 5 45 5 22 0 38 -2 36 -4z m-267 -22 c-25 -9 -51 -12 -60
-8 -12 6 -6 10 23 14 69 12 82 10 37 -6z m420 -53 c90 -29 180 -51 493 -121
99 -22 191 -44 205 -49 14 -5 59 -17 100 -26 158 -36 569 -191 710 -268 148
-81 325 -214 372 -280 12 -17 17 -27 10 -23 -18 11 -15 -1 8 -32 24 -32 42
-90 31 -97 -5 -2 -6 -16 -3 -30 2 -14 0 -25 -6 -25 -6 0 -9 16 -7 37 4 48 -39
114 -132 205 -81 77 -273 205 -392 260 -202 93 -461 193 -461 178 0 -6 -10
-10 -22 -9 -22 0 -22 1 -3 9 18 7 18 9 -10 20 -16 6 -147 41 -290 76 -522 129
-581 145 -635 172 -35 17 -56 34 -58 47 -3 19 -3 19 12 -2 9 -12 43 -30 78
-42z m-523 30 l-24 -19 20 -22 c11 -12 30 -26 43 -31 12 -5 22 -14 22 -21 0
-9 -3 -8 -10 2 -5 8 -10 11 -10 7 0 -5 -5 -5 -12 -1 -7 4 -23 9 -37 10 -13 2
-29 8 -35 15 -8 9 -7 10 7 6 15 -6 16 -4 6 14 -8 16 -7 25 7 40 9 10 24 19 32
19 9 0 6 -6 -9 -19z m396 8 c-9 -14 29 -54 66 -70 16 -6 28 -14 25 -16 -6 -7
-80 33 -95 51 -12 15 -9 46 4 46 4 0 3 -5 0 -11z m-187 -51 c19 -22 9 -24 -12
-2 -9 8 -16 23 -15 32 0 14 2 14 6 2 3 -8 12 -23 21 -32z m14 35 c-6 -2 -9
-10 -6 -15 4 -7 2 -8 -5 -4 -13 9 -5 26 12 25 9 0 8 -2 -1 -6z m-344 -73 c9 0
12 -6 8 -16 -5 -14 -4 -15 8 -5 10 9 16 9 21 1 4 -6 13 -9 21 -6 18 7 46 -3
39 -14 -3 -5 12 -14 32 -21 51 -16 53 -17 47 -34 -7 -18 -34 -8 -34 14 0 11
-3 12 -8 4 -10 -16 -37 -11 -65 13 -13 11 -29 18 -35 16 -14 -4 -63 24 -61 36
3 19 -2 23 -16 12 -13 -11 -14 -10 -9 4 3 9 1 16 -5 16 -6 0 -11 10 -11 22 0
20 2 19 26 -10 15 -18 33 -32 42 -32z m-108 -4 c0 -3 -4 -8 -10 -11 -5 -3 -10
-1 -10 4 0 6 5 11 10 11 6 0 10 -2 10 -4z m443 -43 c9 -3 17 -9 17 -14 0 -13
-27 -11 -42 4 -7 6 -19 12 -25 13 -28 2 -33 4 -33 13 0 6 13 6 33 -1 17 -5 40
-12 50 -15z m34 -35 c-3 -8 -6 -5 -6 6 -1 11 2 17 5 13 3 -3 4 -12 1 -19z m20
-10 c-3 -8 -6 -5 -6 6 -1 11 2 17 5 13 3 -3 4 -12 1 -19z m20 -10 c-3 -7 -5
-2 -5 12 0 14 2 19 5 13 2 -7 2 -19 0 -25z m233 22 c0 -5 -2 -10 -4 -10 -3 0
-8 5 -11 10 -3 6 -1 10 4 10 6 0 11 -4 11 -10z m-213 -22 c-3 -8 -6 -5 -6 6
-1 11 2 17 5 13 3 -3 4 -12 1 -19z m303 -8 c0 -5 -4 -10 -10 -10 -5 0 -10 5
-10 10 0 6 5 10 10 10 6 0 10 -4 10 -10z m-235 -12 c14 -6 25 -15 25 -19 0
-11 -38 1 -51 17 -14 17 -8 18 26 2z m-125 -18 c0 -6 8 -10 19 -10 10 0 32 -7
47 -15 28 -15 28 -15 -38 -15 -38 0 -68 4 -68 9 0 5 10 7 23 4 19 -4 18 -2 -5
12 -34 19 -34 20 -3 23 14 1 25 -3 25 -8z m465 -8 c-3 -3 -11 0 -18 7 -9 10
-8 11 6 5 10 -3 15 -9 12 -12z m-1355 4 c0 -3 -4 -8 -10 -11 -5 -3 -10 -1 -10
4 0 6 5 11 10 11 6 0 10 -2 10 -4z m610 -21 c-7 -8 -17 -15 -22 -15 -6 0 -5 7
2 15 7 8 17 15 22 15 6 0 5 -7 -2 -15z m808 6 c9 -6 34 -13 55 -16 20 -3 37
-10 37 -16 0 -5 -17 -7 -42 -3 -51 9 -98 22 -80 23 7 1 10 6 7 11 -8 13 0 13
23 1z m289 3 c-3 -3 -12 -4 -19 -1 -8 3 -5 6 6 6 11 1 17 -2 13 -5z m-1180
-26 c-3 -8 -6 -5 -6 6 -1 11 2 17 5 13 3 -3 4 -12 1 -19z m603 6 c0 -2 -11 -4
-25 -4 -14 0 -25 4 -25 9 0 4 11 6 25 3 14 -2 25 -6 25 -8z m688 -10 c46 -14
82 -27 79 -30 -2 -3 -44 9 -93 25 -110 36 -100 40 14 5z m-1035 -19 c-2 -8
-13 -17 -24 -20 -10 -3 -28 -8 -39 -11 -14 -4 -20 -1 -20 10 0 13 -14 16 -72
17 l-73 2 58 11 c77 15 178 9 170 -9z m460 18 c-13 -2 -33 -2 -45 0 -13 2 -3
4 22 4 25 0 35 -2 23 -4z m1637 3 c0 -2 -7 -9 -15 -16 -13 -11 -14 -10 -9 4 5
14 24 23 24 12z m-1913 -22 c-3 -3 -12 -4 -19 -1 -8 3 -5 6 6 6 11 1 17 -2 13
-5z m604 -12 c-7 -2 -18 1 -23 6 -8 8 -4 9 13 5 13 -4 18 -8 10 -11z m-1034 2
c-3 -3 -12 -4 -19 -1 -8 3 -5 6 6 6 11 1 17 -2 13 -5z m-82 -14 c-19 -8 -19
-9 3 -9 14 -1 20 -5 17 -12 -4 -6 -13 -8 -20 -5 -7 2 -16 -1 -18 -8 -3 -8 -18
-11 -41 -8 -30 3 -34 7 -25 18 6 8 8 15 3 15 -15 2 50 17 76 17 23 1 23 0 5
-8z m155 -8 c0 -5 -14 -8 -30 -7 -17 1 -33 -2 -36 -7 -9 -14 -41 -9 -48 7 -4
12 5 15 54 15 33 0 60 -4 60 -8z m308 1 c-10 -2 -28 -2 -40 0 -13 2 -5 4 17 4
22 1 32 -1 23 -4z m661 3 c-2 -2 -110 -32 -239 -65 -129 -33 -294 -76 -365
-94 -72 -19 -142 -40 -155 -47 -23 -12 -24 -12 -11 3 16 20 7 17 416 123 290
75 366 92 354 80z m61 -12 c0 -2 -7 -4 -15 -4 -8 0 -15 4 -15 10 0 5 7 7 15 4
8 -4 15 -8 15 -10z m335 6 c13 -6 15 -9 5 -9 -8 0 -22 4 -30 9 -18 12 -2 12
25 0z m-1658 -6 c-3 -3 -12 -4 -19 -1 -8 3 -5 6 6 6 11 1 17 -2 13 -5z m-57
-13 c0 -5 10 -7 22 -3 14 3 19 2 14 -6 -4 -7 -23 -12 -42 -12 -30 0 -33 2 -22
15 15 16 28 19 28 6z m378 -8 c-10 -2 -26 -2 -35 0 -10 3 -2 5 17 5 19 0 27
-2 18 -5z m1057 -3 c3 -5 -1 -10 -9 -10 -9 0 -16 5 -16 10 0 6 4 10 9 10 6 0
13 -4 16 -10z m365 0 c8 -5 11 -10 5 -10 -5 0 -17 5 -25 10 -8 5 -10 10 -5 10
6 0 17 -5 25 -10z m101 -40 c94 -39 245 -120 323 -173 154 -105 262 -245 301
-392 19 -74 31 -423 20 -607 -6 -116 -9 -128 -26 -128 -22 0 -22 6 -10 355 13
339 -1 419 -97 569 -91 143 -195 215 -552 384 -66 31 -43 26 41 -8z m-406 0
c3 -5 2 -10 -4 -10 -5 0 -13 5 -16 10 -3 6 -2 10 4 10 5 0 13 -4 16 -10z m55
-42 c0 -6 -6 -5 -15 2 -8 7 -15 14 -15 16 0 2 7 1 15 -2 8 -4 15 -11 15 -16z
m1457 -20 c-3 -8 -6 -5 -6 6 -1 11 2 17 5 13 3 -3 4 -12 1 -19z m-1407 -13
c11 -13 10 -14 -4 -9 -9 3 -16 10 -16 15 0 13 6 11 20 -6z m76 -63 c-4 -3 -14
2 -24 12 -16 18 -16 18 6 6 13 -6 21 -14 18 -18z m914 -12 c0 -11 -4 -20 -9
-20 -5 0 -7 9 -4 20 3 11 7 20 9 20 2 0 4 -9 4 -20z m-865 -31 c11 -17 -1 -21
-15 -4 -8 9 -8 15 -2 15 6 0 14 -5 17 -11z m-2435 -29 c0 -5 -4 -10 -10 -10
-5 0 -10 5 -10 10 0 6 5 10 10 10 6 0 10 -4 10 -10z m330 -10 c0 -5 -4 -10
-10 -10 -5 0 -10 5 -10 10 0 6 5 10 10 10 6 0 10 -4 10 -10z m180 0 c0 -5 -5
-10 -11 -10 -5 0 -7 5 -4 10 3 6 8 10 11 10 2 0 4 -4 4 -10z m190 -10 c0 -5
-4 -10 -10 -10 -5 0 -10 5 -10 10 0 6 5 10 10 10 6 0 10 -4 10 -10z m380 -10
c0 -5 -4 -10 -10 -10 -5 0 -10 5 -10 10 0 6 5 10 10 10 6 0 10 -4 10 -10z
m1404 -5 c3 -8 1 -15 -3 -15 -5 0 -11 7 -15 15 -3 8 -1 15 3 15 5 0 11 -7 15
-15z m26 -75 c0 -11 -4 -20 -9 -20 -5 0 -11 9 -14 20 -3 13 0 20 9 20 8 0 14
-9 14 -20z m0 -85 c0 -14 -6 -25 -14 -25 -9 0 -12 8 -8 25 2 14 8 25 13 25 5
0 9 -11 9 -25z m-883 -47 c-34 -18 -66 -45 -78 -65 -11 -18 -23 -33 -25 -33
-6 0 2 14 28 53 18 25 99 76 123 76 6 0 -16 -14 -48 -31z m840 -68 c-6 -16
-17 -30 -24 -30 -11 0 -10 7 2 30 9 17 20 30 24 30 5 0 4 -13 -2 -30z m-1212
-50 c-10 -11 -20 -18 -23 -15 -7 6 18 35 31 35 5 0 2 -9 -8 -20z m2370 -245
c20 -60 50 -141 66 -179 32 -74 37 -98 13 -52 -11 20 -18 25 -24 16 -11 -18
-31 47 -24 79 4 18 3 22 -4 13 -7 -11 -12 -6 -20 17 -7 18 -7 29 -2 26 6 -4
10 1 10 9 0 9 -5 16 -11 16 -14 0 -42 69 -36 92 3 10 2 18 -3 18 -7 0 -23 80
-20 96 1 4 -3 10 -8 13 -5 3 -7 22 -4 41 5 33 7 31 18 -30 7 -36 29 -114 49
-175z m-3715 58 c0 -73 3 -93 14 -93 17 0 22 13 31 75 12 74 21 36 24 -96 2
-132 -2 -161 -25 -152 -10 3 -14 23 -16 67 -1 34 -3 47 -5 29 -2 -18 -9 -33
-14 -33 -6 0 -7 -6 -4 -12 4 -7 -3 -2 -14 12 -19 23 -21 24 -23 5 -1 -11 -5
18 -8 65 l-6 85 -3 -105 c-2 -58 -7 -150 -11 -205 -6 -72 -7 -33 -5 143 l3
243 -39 -6 c-55 -9 -51 12 5 26 42 10 44 13 51 56 l7 46 19 -29 c15 -23 19
-47 19 -121z m2488 112 c-13 -19 -29 -35 -35 -35 -18 0 -16 6 9 40 32 44 54
39 26 -5z m-2248 4 c0 -6 -10 -13 -21 -16 -21 -6 -21 -7 -4 -19 24 -18 12 -46
-17 -42 -19 2 -24 10 -26 46 l-3 42 35 0 c20 0 36 -5 36 -11z m997 -136 c-2
-16 -4 -3 -4 27 0 30 2 43 4 28 2 -16 2 -40 0 -55z m1163 10 c-1 -14 -70 -103
-80 -103 -16 0 -12 12 23 62 28 42 57 63 57 41z m-1513 -175 c-2 -18 -4 -6 -4
27 0 33 2 48 4 33 2 -15 2 -42 0 -60z m-1242 12 c3 -5 2 -10 -4 -10 -5 0 -13
5 -16 10 -3 6 -2 10 4 10 5 0 13 -4 16 -10z m1379 -69 c23 -22 46 -22 46 1 0
7 -6 6 -15 -2 -26 -21 -18 11 11 45 17 20 22 23 15 8 -16 -32 -14 -35 18 -28
l30 6 -26 -74 c-25 -71 -27 -74 -52 -67 -14 4 -25 13 -23 20 2 10 -1 10 -10 3
-7 -5 -30 -10 -50 -12 -28 -1 -38 2 -38 14 0 8 -3 14 -7 13 -5 0 -17 3 -27 7
-13 6 -23 3 -31 -8 -26 -35 -33 -16 -12 31 30 65 48 88 75 96 19 6 22 4 23
-21 2 -27 2 -27 6 -3 3 14 10 31 16 39 9 11 13 8 19 -16 4 -16 19 -39 32 -52z
m-773 -9 c-14 -26 -14 -35 -1 -27 6 3 10 1 10 -4 0 -6 15 -11 33 -12 l32 -1
-33 -8 c-18 -4 -40 -16 -48 -26 -14 -18 -15 -18 -8 5 4 17 3 21 -6 16 -9 -5
-10 -1 -5 16 16 51 26 72 31 66 3 -3 1 -14 -5 -25z m-236 -2 c3 -5 1 -10 -4
-10 -6 0 -11 5 -11 10 0 6 2 10 4 10 3 0 8 -4 11 -10z m2213 2 c-14 -33 -107
-141 -120 -142 -10 0 -18 3 -18 6 0 18 108 143 123 144 10 0 17 -3 15 -8z
m1590 -162 c-2 -8 -13 12 -26 46 -29 80 -27 93 4 24 14 -30 23 -61 22 -70z
m-3098 75 c-7 -9 -15 -13 -19 -10 -3 3 1 10 9 15 21 14 24 12 10 -5z m3104 -1
c3 -8 2 -12 -4 -9 -6 3 -10 10 -10 16 0 14 7 11 14 -7z m-3034 -4 c0 -5 -4
-10 -10 -10 -5 0 -10 5 -10 10 0 6 5 10 10 10 6 0 10 -4 10 -10z m100 -18 c-8
-3 -24 -12 -35 -21 -14 -11 -13 -8 4 11 13 15 29 24 34 21 7 -4 6 -8 -3 -11z
m2970 -70 c0 -3 -7 3 -15 14 -8 10 -14 28 -14 39 0 14 4 10 14 -14 8 -18 15
-36 15 -39z m-3750 48 c0 -5 -2 -10 -4 -10 -3 0 -8 5 -11 10 -3 6 -1 10 4 10
6 0 11 -4 11 -10z m900 -5 c0 -18 17 -20 23 -2 2 6 8 9 12 5 14 -13 -6 -28
-38 -28 -24 0 -28 3 -17 10 8 5 11 12 7 16 -3 4 -13 1 -22 -6 -16 -13 -45 -7
-45 10 0 5 18 10 40 10 29 0 40 -4 40 -15z m-275 -5 c-3 -5 -12 -10 -18 -10
-7 0 -6 4 3 10 19 12 23 12 15 0z m1255 -26 c0 -14 -5 -24 -11 -22 -6 2 -10 7
-10 11 1 4 1 14 1 22 0 8 5 15 10 15 6 0 10 -12 10 -26z m-1365 -4 c3 -5 1
-10 -4 -10 -6 0 -11 5 -11 10 0 6 2 10 4 10 3 0 8 -4 11 -10z m-1935 -16 c0
-8 -5 -12 -10 -9 -6 4 -8 11 -5 16 9 14 15 11 15 -7z m5144 -10 c3 -8 2 -12
-4 -9 -6 3 -10 10 -10 16 0 14 7 11 14 -7z m53 -56 c-3 -8 -6 -5 -6 6 -1 11 2
17 5 13 3 -3 4 -12 1 -19z m-3953 -33 c3 -8 1 -15 -4 -15 -6 0 -10 7 -10 15 0
8 2 15 4 15 2 0 6 -7 10 -15z m3399 -22 c-7 -2 -19 -2 -25 0 -7 3 -2 5 12 5
14 0 19 -2 13 -5z m-3398 -13 c3 -5 2 -10 -4 -10 -5 0 -13 5 -16 10 -3 6 -2
10 4 10 5 0 13 -4 16 -10z m3392 -16 c-3 -3 -12 -4 -19 -1 -8 3 -5 6 6 6 11 1
17 -2 13 -5z m-3398 -75 l12 -24 -20 25 c-11 14 -20 36 -20 50 l1 25 7 -26 c5
-14 14 -36 20 -50z m-1961 19 c-3 -7 -24 -14 -49 -16 -49 -4 -47 6 3 18 48 11
50 11 46 -2z m2023 -148 c45 -18 89 -49 89 -62 0 -6 -7 -5 -17 4 -31 26 -43
31 -37 13 4 -8 0 -22 -7 -31 -11 -14 -9 -15 24 -9 32 6 36 5 31 -9 -4 -11 0
-16 14 -16 20 0 39 -17 29 -26 -2 -2 -42 8 -88 23 -46 15 -88 27 -94 28 -17 0
-22 17 -30 84 l-7 65 29 -25 c17 -14 46 -32 64 -39z m1469 10 c0 -11 -2 -20
-4 -20 -2 0 -6 9 -9 20 -3 11 -1 20 4 20 5 0 9 -9 9 -20z m-257 -117 c-14 -28
-27 -41 -56 -50 -50 -17 -227 -47 -234 -40 -13 14 12 27 53 27 64 0 138 20
125 33 -16 16 -13 44 4 51 22 8 49 -23 34 -40 -6 -8 -7 -14 -2 -14 18 0 54 32
70 63 23 44 28 18 6 -30z m-73 43 c0 -2 -11 -6 -25 -8 -13 -3 -22 -1 -19 3 5
9 44 13 44 5z m40 -27 c0 -5 -4 -9 -10 -9 -5 0 -10 7 -10 16 0 8 5 12 10 9 6
-3 10 -10 10 -16z m-113 5 c-3 -3 -12 -4 -19 -1 -8 3 -5 6 6 6 11 1 17 -2 13
-5z m-57 -15 c-14 -6 -34 -18 -45 -27 -12 -9 -8 -5 7 11 16 15 36 27 46 26 12
0 9 -3 -8 -10z m48 -32 c2 -10 -3 -17 -12 -17 -18 0 -29 16 -21 31 9 14 29 6
33 -14z m-1044 -73 c5 -14 4 -15 -9 -4 -17 14 -19 20 -6 20 5 0 12 -7 15 -16z
m1093 -83 c0 -11 -6 -17 -14 -14 -18 7 -17 33 1 33 8 0 14 -8 13 -19z m-4745
-81 c-5 -37 -15 -44 -43 -30 -19 11 -20 10 -15 -12 3 -12 3 -18 0 -11 -4 9
-13 8 -36 -2 -27 -11 -34 -10 -46 1 -7 8 -21 14 -30 14 -13 0 -12 -3 6 -16 30
-21 28 -29 -8 -30 -33 -1 -38 12 -16 41 12 16 148 72 182 74 6 1 9 -11 6 -29z
m3608 26 c0 -7 -418 -276 -429 -276 -7 0 -9 6 -5 13 6 10 4 10 -7 0 -7 -7 -20
-13 -27 -13 -15 0 240 172 358 242 54 32 110 49 110 34z m-3822 -78 c-3 -7
-11 -13 -19 -14 -42 -3 -43 -4 -23 -18 29 -22 12 -28 -20 -7 l-28 19 44 15
c23 9 45 16 46 16 2 1 2 -5 0 -11z m-933 -368 c8 -13 -15 -13 -35 0 -12 8 -11
10 7 10 12 0 25 -4 28 -10z m3910 -110 c4 -6 -8 -10 -30 -10 -22 0 -34 4 -30
10 3 6 17 10 30 10 13 0 27 -4 30 -10z"/>
<path d="M9065 2330 c3 -5 8 -10 11 -10 2 0 4 5 4 10 0 6 -5 10 -11 10 -5 0
-7 -4 -4 -10z"/>
<path d="M9202 2232 c7 -10 33 -36 58 -57 41 -36 40 -34 -10 18 -56 58 -71 71
-48 39z"/>
<path d="M5680 972 c0 -25 26 -59 50 -65 11 -3 17 -1 14 4 -3 6 -1 16 6 24 9
11 4 18 -29 35 -38 19 -41 19 -41 2z m50 -22 c0 -5 -5 -10 -11 -10 -5 0 -7 -5
-3 -12 4 -7 3 -8 -4 -4 -17 10 -15 36 3 36 8 0 15 -4 15 -10z"/>
<path d="M1995 569 c-4 -6 -4 -13 -1 -16 3 -4 6 -1 6 6 0 7 5 9 12 5 7 -4 8
-3 4 4 -9 15 -13 15 -21 1z"/>
<path d="M3338 3053 c7 -3 16 -2 19 1 4 3 -2 6 -13 5 -11 0 -14 -3 -6 -6z"/>
<path d="M3703 3043 c15 -2 39 -2 55 0 15 2 2 4 -28 4 -30 0 -43 -2 -27 -4z"/>
<path d="M3968 3043 c72 -2 192 -2 265 0 72 1 13 3 -133 3 -146 0 -205 -2
-132 -3z"/>
<path d="M4492 3043 c70 -2 187 -2 260 0 73 1 16 3 -127 3 -143 0 -203 -2
-133 -3z"/>
<path d="M5980 2760 c-11 -7 -7 -10 18 -10 20 0 31 4 27 10 -8 13 -26 13 -45
0z"/>
<path d="M1285 2686 c-53 -24 -95 -85 -95 -138 0 -46 40 -106 84 -127 40 -20
59 -21 383 -21 336 0 340 0 373 23 54 36 75 72 75 127 0 52 -19 87 -69 124
-26 20 -41 21 -374 23 -274 2 -353 0 -377 -11z m563 -51 c38 -31 49 -75 29
-113 -13 -26 -12 -30 4 -41 22 -13 25 -41 5 -41 -8 0 -21 9 -28 19 -10 14 -18
17 -28 10 -8 -5 -32 -9 -53 -9 -55 0 -97 43 -97 100 0 88 100 133 168 75z
m-263 5 c4 -6 -26 -44 -66 -85 l-72 -75 41 0 c31 0 42 -4 42 -15 0 -12 -14
-15 -70 -15 l-70 0 0 70 c0 54 3 70 14 70 10 0 16 -13 18 -40 l3 -39 72 69
c40 39 74 70 77 70 3 0 8 -5 11 -10z"/>
<path d="M1735 2605 c-14 -13 -25 -33 -25 -45 0 -26 43 -70 68 -70 32 0 72 38
72 68 0 33 -8 45 -37 61 -33 17 -51 14 -78 -14z m55 -20 c0 -8 7 -15 15 -15 8
0 15 -4 15 -10 0 -5 -7 -10 -15 -10 -8 0 -15 -7 -15 -15 0 -8 -4 -15 -10 -15
-5 0 -10 7 -10 15 0 8 -7 15 -15 15 -8 0 -15 5 -15 10 0 6 7 10 15 10 8 0 15
7 15 15 0 8 5 15 10 15 6 0 10 -7 10 -15z"/>
<path d="M6130 2630 c0 -5 9 -10 20 -10 11 0 20 5 20 10 0 6 -9 10 -20 10 -11
0 -20 -4 -20 -10z"/>
<path d="M5909 2534 c-10 -13 -10 -17 2 -25 12 -7 46 -4 58 7 7 6 -21 34 -34
34 -7 0 -18 -7 -26 -16z"/>
<path d="M5730 2410 c0 -5 5 -10 11 -10 5 0 7 5 4 10 -3 6 -8 10 -11 10 -2 0
-4 -4 -4 -10z"/>
<path d="M2644 2229 l-19 -22 30 8 c38 10 62 11 100 0 l30 -8 -22 22 c-30 29
-93 29 -119 0z"/>
<path d="M5567 2203 c-15 -15 -5 -23 30 -23 22 0 33 4 28 9 -15 13 -50 22 -58
14z"/>
<path d="M1199 2153 c10 -27 31 -78 46 -115 l27 -68 52 0 51 0 37 98 c21 53
40 105 44 115 6 16 2 18 -32 15 l-38 -3 -29 -83 c-17 -46 -33 -79 -37 -75 -4
4 -19 43 -34 86 l-28 77 -39 0 -39 0 19 -47z"/>
<path d="M1492 2103 c-61 -146 -60 -133 -17 -133 28 0 38 5 42 20 5 17 14 20
68 20 54 0 63 -3 68 -20 4 -16 14 -20 45 -20 l40 0 -48 113 -49 112 -53 3 -54
3 -42 -98z m118 -20 c0 -7 -11 -13 -25 -13 -28 0 -30 8 -13 45 l12 26 13 -23
c7 -13 12 -29 13 -35z"/>
<path d="M1750 2085 l0 -115 35 0 35 0 0 115 0 115 -35 0 -35 0 0 -115z"/>
<path d="M1920 2085 l0 -117 100 4 c81 3 105 8 127 24 55 41 55 137 0 178 -23
17 -46 22 -128 24 l-99 4 0 -117z m178 39 c28 -20 28 -58 0 -78 -12 -9 -42
-16 -65 -16 l-43 0 0 55 0 55 43 0 c23 0 53 -7 65 -16z"/>
<path d="M2210 2085 l0 -115 120 0 120 0 0 30 0 30 -85 0 c-78 0 -85 2 -85 20
0 18 7 20 80 20 64 0 80 3 80 15 0 12 -16 15 -80 15 -73 0 -80 2 -80 20 0 18
7 20 85 20 l85 0 0 30 0 30 -120 0 -120 0 0 -115z"/>
<path d="M2650 2194 c-80 -29 -110 -90 -78 -158 26 -58 123 -82 203 -51 87 33
102 142 27 191 -25 16 -125 28 -152 18z m111 -74 c11 -6 19 -21 19 -35 0 -29
-26 -45 -75 -45 -20 0 -45 5 -56 10 -24 13 -25 56 -1 69 22 14 88 14 113 1z"/>
<path d="M2860 2085 l0 -115 35 0 34 0 3 88 3 87 31 -85 31 -85 67 -3 66 -3 0
116 0 115 -35 0 -34 0 -3 -87 -3 -88 -31 85 -31 85 -67 3 -66 3 0 -116z"/>
<path d="M3160 2085 l0 -115 35 0 35 0 0 115 0 115 -35 0 -35 0 0 -115z"/>
<path d="M3260 2085 l0 -115 109 0 c127 0 168 11 178 48 4 19 1 30 -16 43
l-22 18 21 21 c21 21 25 46 12 67 -15 23 -65 33 -173 33 l-109 0 0 -115z m220
40 c0 -12 -15 -15 -75 -15 -60 0 -75 3 -75 15 0 12 15 15 75 15 60 0 75 -3 75
-15z m0 -85 c0 -6 -32 -10 -75 -10 -43 0 -75 4 -75 10 0 6 32 10 75 10 43 0
75 -4 75 -10z"/>
<path d="M3571 2115 c4 -75 7 -87 30 -110 31 -32 121 -45 169 -25 55 23 70 53
70 141 l0 79 -35 0 -35 0 0 -70 c0 -78 -10 -90 -72 -90 -49 0 -58 15 -58 92
l0 68 -36 0 -36 0 3 -85z"/>
<path d="M3934 2189 c-44 -13 -68 -42 -60 -74 8 -32 48 -50 134 -60 34 -4 62
-11 62 -16 0 -12 -117 -11 -125 1 -7 12 -75 14 -75 2 0 -20 34 -52 66 -62 46
-16 146 -7 179 14 18 12 25 26 25 47 0 25 -6 32 -35 45 -19 7 -52 14 -74 14
-48 0 -95 16 -86 30 10 17 115 12 121 -5 8 -19 74 -21 74 -2 0 58 -111 94
-206 66z"/>
<path d="M5577 2033 c-9 -8 12 -33 29 -33 7 0 25 5 41 11 22 8 24 12 13 19
-17 11 -74 13 -83 3z"/>
<path d="M5468 2023 c7 -3 16 -2 19 1 4 3 -2 6 -13 5 -11 0 -14 -3 -6 -6z"/>
<path d="M5438 1934 c-27 -13 -48 -28 -48 -32 0 -13 -60 -44 -74 -39 -8 3 -23
-1 -35 -10 -12 -8 -28 -12 -35 -10 -8 3 -22 -1 -33 -8 -10 -8 -24 -15 -31 -15
-7 0 -25 -14 -40 -30 -26 -29 -28 -30 -57 -15 -29 16 -30 16 -63 -24 -19 -23
-40 -41 -48 -41 -8 0 -14 -7 -14 -16 0 -24 -54 -14 -58 11 -7 37 -21 40 -52
10 -16 -16 -30 -35 -30 -43 0 -8 -6 -12 -15 -8 -8 3 -15 1 -15 -4 0 -6 4 -10
10 -10 5 0 7 -7 3 -15 -6 -18 -88 -76 -97 -70 -3 3 -2 0 3 -6 7 -8 24 -7 63 4
66 20 282 78 378 102 8 2 16 4 18 5 1 2 5 3 10 4 4 1 12 4 17 7 6 4 28 9 50
13 22 4 91 21 153 38 l114 31 -4 45 c-3 38 1 49 24 74 32 34 36 57 11 60 -32
2 -38 3 -48 10 -5 3 -31 -5 -57 -18z m-254 -191 c4 -10 4 -14 0 -11 -4 4 -15
3 -25 -3 -21 -11 -25 1 -7 19 16 16 25 15 32 -5z m-64 -36 c0 -2 -12 -14 -27
-28 l-28 -24 24 28 c23 25 31 32 31 24z m-110 -17 c0 -5 -5 -10 -11 -10 -5 0
-7 5 -4 10 3 6 8 10 11 10 2 0 4 -4 4 -10z m-145 -10 c3 -5 1 -10 -4 -10 -6 0
-11 5 -11 10 0 6 2 10 4 10 3 0 8 -4 11 -10z"/>
<path d="M1564 1779 c-10 -17 13 -36 27 -22 12 12 4 33 -11 33 -5 0 -12 -5
-16 -11z"/>
<path d="M2165 1759 c-28 -25 -35 -38 -35 -68 0 -46 32 -99 65 -107 14 -3 25
-10 25 -14 0 -5 3 -15 6 -23 3 -9 -2 -17 -13 -20 -10 -3 7 -5 37 -4 55 2 71
17 29 27 -27 7 -38 30 -14 30 31 0 75 55 75 94 0 104 -98 152 -175 85z m120
-24 c40 -39 26 -106 -24 -123 -77 -27 -130 69 -71 128 27 27 66 25 95 -5z"/>
<path d="M3138 1782 l-38 -3 0 -100 c0 -93 1 -99 21 -99 15 0 20 6 19 23 -4
42 0 47 34 47 54 0 86 44 67 92 -11 30 -50 44 -103 40z m53 -32 c28 -15 25
-58 -5 -72 -39 -17 -55 -5 -51 39 1 21 3 39 4 41 3 6 34 1 52 -8z"/>
<path d="M1192 1769 c3 -8 18 -53 34 -101 26 -82 30 -88 55 -88 28 0 31 6 83
178 6 16 3 22 -8 22 -11 0 -23 -27 -41 -85 -15 -47 -29 -85 -33 -85 -4 0 -19
37 -33 83 -18 59 -31 83 -44 86 -12 2 -16 -2 -13 -10z"/>
<path d="M1830 1743 c0 -29 -3 -34 -12 -25 -7 7 -26 12 -43 12 -69 0 -95 -90
-41 -137 21 -18 35 -23 50 -17 12 3 33 7 49 7 l27 0 0 98 c0 81 -3 99 -15 99
-11 0 -15 -11 -15 -37z m-18 -50 c22 -20 23 -56 2 -77 -31 -32 -74 -10 -74 37
0 54 35 74 72 40z"/>
<path d="M2608 1732 c-36 -4 -58 -37 -58 -84 0 -45 27 -68 82 -68 28 0 40 5
49 21 12 23 15 23 -50 3 -18 -5 -51 18 -51 36 0 5 26 10 58 12 l58 3 -8 31
c-9 34 -38 51 -80 46z m40 -34 c21 -21 13 -28 -28 -28 -42 0 -52 12 -22 29 23
14 36 13 50 -1z"/>
<path d="M4118 1723 c-50 -31 -43 -120 11 -143 23 -9 36 -8 65 4 40 17 41 42
1 32 -12 -3 -25 -2 -29 2 -4 4 -12 8 -17 8 -5 1 -13 2 -19 3 -5 0 -10 6 -10
12 0 6 16 10 38 9 66 -3 72 -1 72 23 0 49 -67 79 -112 50z m63 -23 c31 -17 22
-30 -21 -30 -42 0 -52 12 -22 29 21 13 20 13 43 1z"/>
<path d="M4408 1724 c-17 -9 -29 -10 -33 -4 -9 14 -58 13 -73 -2 -9 -9 -12 -9
-12 0 0 7 -6 12 -14 12 -11 0 -14 -16 -13 -75 2 -64 5 -75 20 -75 14 0 17 9
17 54 0 58 8 71 40 61 17 -5 20 -15 20 -61 0 -48 3 -55 18 -52 13 3 16 12 14
37 -6 59 5 83 36 79 24 -3 27 -8 30 -42 2 -24 -2 -42 -10 -47 -11 -7 -10 -11
2 -19 33 -21 40 -12 40 54 0 39 -5 67 -12 73 -25 19 -44 21 -70 7z"/>
<path d="M1406 1715 c4 -9 13 -13 24 -10 23 7 50 -4 50 -21 0 -9 -11 -14 -33
-14 -38 0 -57 -15 -57 -45 0 -12 5 -26 12 -33 15 -15 65 -16 74 -1 4 8 9 7 15
-2 13 -22 19 -6 20 54 2 71 -10 87 -67 87 -35 0 -42 -3 -38 -15z m84 -71 c0
-3 -5 -14 -10 -25 -19 -34 -70 -19 -56 16 5 14 66 22 66 9z"/>
<path d="M1550 1720 c0 -5 5 -10 10 -10 6 0 10 -28 10 -65 0 -51 3 -65 15 -65
15 0 17 10 17 80 0 67 -1 70 -27 70 -14 0 -25 -4 -25 -10z"/>
<path d="M1916 1708 c-22 -31 -20 -84 4 -108 24 -24 82 -27 105 -4 22 23 11
29 -24 15 -33 -14 -71 -1 -71 24 0 11 13 15 55 15 52 0 55 2 55 24 0 36 -26
56 -70 56 -29 0 -43 -6 -54 -22z m82 -10 c21 -21 13 -28 -28 -28 -42 0 -52 12
-22 29 23 14 36 13 50 -1z"/>
<path d="M2380 1671 c0 -41 5 -65 16 -75 18 -18 70 -21 80 -5 4 8 9 7 15 -2
13 -22 17 -8 20 66 2 59 0 71 -14 73 -14 3 -17 -5 -17 -52 0 -43 -4 -57 -18
-65 -34 -18 -52 5 -52 64 0 42 -4 55 -15 55 -12 0 -15 -13 -15 -59z"/>
<path d="M2739 1683 c0 -27 -2 -60 -3 -75 -1 -21 3 -28 16 -28 14 0 18 11 20
58 3 50 6 57 26 60 12 2 22 10 22 18 0 19 -25 18 -44 -2 -15 -14 -16 -14 -16
0 0 9 -4 16 -10 16 -5 0 -10 -21 -11 -47z"/>
<path d="M2850 1703 c-16 -20 -20 -36 -16 -57 10 -47 33 -66 81 -66 51 0 75
23 77 73 2 52 -24 77 -78 77 -34 0 -47 -5 -64 -27z m91 -3 c13 -8 19 -21 19
-46 0 -28 -5 -36 -26 -44 -32 -13 -30 -13 -48 6 -22 21 -20 70 2 83 22 13 29
13 53 1z"/>
<path d="M3290 1714 c0 -12 6 -15 21 -11 27 7 49 -1 49 -19 0 -9 -11 -14 -33
-14 -38 0 -57 -15 -57 -45 0 -28 19 -45 50 -45 14 0 31 5 38 12 9 9 12 9 12 0
0 -7 5 -12 10 -12 14 0 13 123 -2 138 -19 19 -88 16 -88 -4z m73 -70 c11 -12
-13 -44 -33 -44 -22 0 -34 15 -26 35 5 15 47 21 59 9z"/>
<path d="M3438 1705 c-14 -32 2 -52 48 -61 20 -4 34 -12 34 -20 0 -21 -29 -29
-51 -16 -10 7 -26 12 -35 12 -16 0 -15 -2 1 -20 20 -23 83 -28 103 -8 15 15
16 55 0 64 -6 4 -25 10 -41 13 -17 4 -32 12 -35 19 -6 19 27 26 54 12 28 -16
42 -7 24 15 -7 9 -29 15 -51 15 -32 0 -42 -5 -51 -25z"/>
<path d="M3592 1718 c-29 -29 -8 -63 46 -74 34 -7 43 -30 16 -41 -8 -3 -26 0
-40 7 -28 16 -42 7 -24 -15 15 -18 81 -20 98 -3 15 15 16 55 0 64 -6 4 -25 10
-41 13 -17 4 -32 12 -35 19 -6 19 27 26 54 12 28 -16 42 -7 24 15 -15 18 -81
20 -98 3z"/>
<path d="M3750 1714 c0 -12 6 -15 22 -11 23 6 58 -8 58 -23 0 -6 -15 -10 -34
-10 -33 0 -66 -21 -66 -41 0 -6 5 -19 10 -30 12 -22 68 -27 88 -7 9 9 12 9 12
0 0 -7 5 -12 10 -12 6 0 10 28 10 65 0 73 -11 85 -74 85 -27 0 -36 -4 -36 -16z
m80 -77 c0 -18 -21 -37 -41 -37 -19 0 -29 18 -21 38 6 16 62 16 62 -1z"/>
<path d="M3924 1722 c-22 -14 -35 -53 -29 -83 12 -52 75 -77 109 -43 19 18 20
15 6 -20 -8 -22 -16 -26 -50 -26 -30 0 -40 -4 -40 -16 0 -14 9 -16 51 -12 27
3 55 10 62 17 6 6 13 51 15 101 4 78 2 90 -12 90 -9 0 -16 -5 -16 -12 0 -9 -3
-9 -12 0 -13 13 -67 16 -84 4z m74 -24 c7 -7 12 -27 12 -45 0 -27 -5 -34 -25
-39 -32 -8 -55 11 -55 45 0 30 16 51 40 51 9 0 21 -5 28 -12z"/>
<path d="M4752 1675 c-11 -13 -10 -15 5 -12 10 1 27 8 38 15 19 11 19 11 -5
11 -14 0 -31 -6 -38 -14z"/>
<path d="M2478 1523 c6 -2 18 -2 25 0 6 3 1 5 -13 5 -14 0 -19 -2 -12 -5z"/>
<path d="M3168 1523 c7 -3 16 -2 19 1 4 3 -2 6 -13 5 -11 0 -14 -3 -6 -6z"/>
<path d="M1946 1512 c-3 -5 8 -6 25 -4 16 2 29 6 29 8 0 8 -49 4 -54 -4z"/>
<path d="M1505 1490 c-19 -8 -19 -9 2 -9 12 -1 25 4 28 9 7 12 -2 12 -30 0z"/>
<path d="M1968 1474 c-3 -3 -20 -6 -37 -6 -17 -1 -28 -5 -25 -10 4 -5 18 -7
31 -3 14 3 67 7 117 7 73 1 83 3 51 9 -48 9 -129 11 -137 3z"/>
<path d="M1615 1450 c-27 -7 -28 -8 -5 -8 14 0 34 3 45 8 25 11 2 11 -40 0z"/>
<path d="M1253 1433 c9 -2 23 -2 30 0 6 3 -1 5 -18 5 -16 0 -22 -2 -12 -5z"/>
<path d="M1348 1433 c7 -3 16 -2 19 1 4 3 -2 6 -13 5 -11 0 -14 -3 -6 -6z"/>
<path d="M1868 1423 c7 -3 16 -2 19 1 4 3 -2 6 -13 5 -11 0 -14 -3 -6 -6z"/>
<path d="M4318 1423 c7 -3 16 -2 19 1 4 3 -2 6 -13 5 -11 0 -14 -3 -6 -6z"/>
<path d="M778 1413 c7 -3 16 -2 19 1 4 3 -2 6 -13 5 -11 0 -14 -3 -6 -6z"/>
<path d="M2218 1403 c7 -3 16 -2 19 1 4 3 -2 6 -13 5 -11 0 -14 -3 -6 -6z"/>
<path d="M155 1390 l-50 -7 45 -1 c25 -1 52 3 60 8 8 5 11 9 5 8 -5 -1 -32 -4
-60 -8z"/>
<path d="M1478 1393 c12 -2 30 -2 40 0 9 3 -1 5 -23 4 -22 0 -30 -2 -17 -4z"/>
<path d="M3818 1393 c6 -2 18 -2 25 0 6 3 1 5 -13 5 -14 0 -19 -2 -12 -5z"/>
<path d="M573 1383 c9 -2 25 -2 35 0 9 3 1 5 -18 5 -19 0 -27 -2 -17 -5z"/>
<path d="M933 1380 c-13 -5 -23 -12 -23 -16 0 -3 8 -3 18 1 9 4 58 11 107 15
l90 7 -85 1 c-47 0 -95 -3 -107 -8z"/>
<path d="M1367 1384 c-4 -4 -34 -6 -68 -5 -72 2 -129 -7 -129 -21 0 -6 7 -8
15 -4 8 3 66 6 130 7 63 0 118 5 121 10 3 5 -4 9 -15 9 -10 0 -26 2 -33 5 -8
3 -17 3 -21 -1z"/>
<path d="M2204 1378 c-6 -10 30 -9 71 2 26 7 23 8 -18 7 -27 0 -50 -4 -53 -9z"/>
<path d="M3525 1380 c-4 -6 7 -10 27 -10 25 0 29 3 18 10 -19 13 -37 13 -45 0z"/>
<path d="M856 1371 c-4 -5 3 -7 14 -4 23 6 26 13 6 13 -8 0 -17 -4 -20 -9z"/>
<path d="M1138 1373 c7 -3 16 -2 19 1 4 3 -2 6 -13 5 -11 0 -14 -3 -6 -6z"/>
<path d="M3468 1373 c6 -2 18 -2 25 0 6 3 1 5 -13 5 -14 0 -19 -2 -12 -5z"/>
<path d="M3080 1361 c-12 -8 -8 -10 15 -9 17 0 66 -2 110 -6 57 -4 70 -3 45 4
-60 15 -154 21 -170 11z"/>
<path d="M428 1353 c6 -2 18 -2 25 0 6 3 1 5 -13 5 -14 0 -19 -2 -12 -5z"/>
<path d="M498 1353 c7 -3 16 -2 19 1 4 3 -2 6 -13 5 -11 0 -14 -3 -6 -6z"/>
<path d="M245 1339 c-22 -4 -61 -8 -87 -8 -26 -1 -49 -5 -52 -9 -7 -12 111 -3
176 13 58 14 27 18 -37 4z"/>
<path d="M368 1343 c7 -3 16 -2 19 1 4 3 -2 6 -13 5 -11 0 -14 -3 -6 -6z"/>
<path d="M1014 1342 c8 -13 116 -15 116 -3 0 7 -25 11 -61 11 -33 0 -58 -4
-55 -8z"/>
<path d="M3383 1333 c9 -2 23 -2 30 0 6 3 -1 5 -18 5 -16 0 -22 -2 -12 -5z"/>
<path d="M2808 1323 c7 -3 16 -2 19 1 4 3 -2 6 -13 5 -11 0 -14 -3 -6 -6z"/>
<path d="M3338 1323 c7 -3 16 -2 19 1 4 3 -2 6 -13 5 -11 0 -14 -3 -6 -6z"/>
<path d="M900 1310 c-10 -7 -1 -8 30 -4 56 8 64 14 19 14 -19 0 -41 -5 -49
-10z"/>
<path d="M2435 1300 c-4 -6 6 -7 27 -3 44 8 48 13 10 13 -17 0 -34 -4 -37 -10z"/>
<path d="M328 1293 c7 -3 16 -2 19 1 4 3 -2 6 -13 5 -11 0 -14 -3 -6 -6z"/>
<path d="M3060 1289 c-50 -4 -38 -6 55 -6 116 -1 134 3 50 9 -22 2 -69 0 -105
-3z"/>
<path d="M3468 1293 c7 -3 16 -2 19 1 4 3 -2 6 -13 5 -11 0 -14 -3 -6 -6z"/>
<path d="M205 1280 c-16 -7 -13 -9 18 -9 20 -1 37 4 37 9 0 12 -27 12 -55 0z"/>
<path d="M2830 1279 c-19 -5 -11 -7 29 -8 55 -1 65 5 21 12 -14 2 -36 1 -50
-4z"/>
<path d="M3718 1283 c7 -3 16 -2 19 1 4 3 -2 6 -13 5 -11 0 -14 -3 -6 -6z"/>
<path d="M2460 1267 c-35 -8 -40 -12 -21 -15 31 -5 89 6 96 18 8 12 -16 11
-75 -3z"/>
<path d="M2668 1273 c7 -3 16 -2 19 1 4 3 -2 6 -13 5 -11 0 -14 -3 -6 -6z"/>
<path d="M3668 1273 c7 -3 16 -2 19 1 4 3 -2 6 -13 5 -11 0 -14 -3 -6 -6z"/>
<path d="M590 1249 c-18 -5 -6 -7 39 -8 35 -1 62 1 60 3 -10 8 -76 12 -99 5z"/>
<path d="M1748 1253 c6 -2 18 -2 25 0 6 3 1 5 -13 5 -14 0 -19 -2 -12 -5z"/>
<path d="M1927 1253 c-9 -2 -15 -9 -12 -14 8 -12 85 -12 85 1 0 6 -6 10 -14
10 -8 0 -20 2 -28 4 -7 2 -21 2 -31 -1z"/>
<path d="M913 1243 c9 -2 25 -2 35 0 9 3 1 5 -18 5 -19 0 -27 -2 -17 -5z"/>
<path d="M273 1233 c9 -2 23 -2 30 0 6 3 -1 5 -18 5 -16 0 -22 -2 -12 -5z"/>
<path d="M365 1233 c-16 -3 -34 -9 -40 -15 -13 -14 64 -3 79 12 5 5 6 9 1 9
-6 -1 -23 -4 -40 -6z"/>
<path d="M725 1230 c-7 -12 2 -12 30 0 19 8 19 9 -2 9 -12 1 -25 -3 -28 -9z"/>
<path d="M818 1233 c7 -3 16 -2 19 1 4 3 -2 6 -13 5 -11 0 -14 -3 -6 -6z"/>
<path d="M1805 1230 c-7 -12 2 -12 30 0 19 8 19 9 -2 9 -12 1 -25 -3 -28 -9z"/>
<path d="M2023 1233 c8 -7 108 -5 116 3 2 2 -24 4 -59 4 -35 0 -60 -3 -57 -7z"/>
<path d="M2198 1233 c6 -2 18 -2 25 0 6 3 1 5 -13 5 -14 0 -19 -2 -12 -5z"/>
<path d="M18 1223 c12 -2 30 -2 40 0 9 3 -1 5 -23 4 -22 0 -30 -2 -17 -4z"/>
<path d="M1290 1213 c-25 -9 -40 -18 -33 -20 7 -3 22 1 34 8 13 6 57 15 98 19
l76 7 -65 1 c-36 0 -85 -7 -110 -15z"/>
<path d="M1730 1220 c-12 -8 -11 -10 7 -10 12 0 25 5 28 10 8 13 -15 13 -35 0z"/>
<path d="M108 1213 c6 -2 18 -2 25 0 6 3 1 5 -13 5 -14 0 -19 -2 -12 -5z"/>
<path d="M1045 1209 c-40 -5 -39 -5 15 -10 66 -5 130 -1 130 9 0 9 -87 10
-145 1z"/>
<path d="M1850 1210 c-18 -12 -2 -12 25 0 13 6 15 9 5 9 -8 0 -22 -4 -30 -9z"/>
<path d="M2548 1213 c12 -2 30 -2 40 0 9 3 -1 5 -23 4 -22 0 -30 -2 -17 -4z"/>
<path d="M1938 1203 c12 -2 30 -2 40 0 9 3 -1 5 -23 4 -22 0 -30 -2 -17 -4z"/>
<path d="M2380 1201 c61 -15 114 -21 104 -12 -5 5 -38 12 -74 15 -46 4 -55 3
-30 -3z"/>
<path d="M38 1192 c-21 -2 -38 -7 -38 -13 0 -11 19 -11 75 -1 48 9 21 19 -37
14z"/>
<path d="M2111 1192 c-9 -7 0 -10 30 -9 24 0 82 -3 129 -7 65 -5 79 -4 60 4
-33 15 -201 24 -219 12z"/>
<path d="M2930 1190 c-24 -8 -23 -8 8 -9 20 -1 31 3 27 9 -3 6 -7 10 -8 9 -1
-1 -13 -5 -27 -9z"/>
<path d="M518 1183 c6 -2 18 -2 25 0 6 3 1 5 -13 5 -14 0 -19 -2 -12 -5z"/>
<path d="M889 1176 c-3 -3 -45 -10 -94 -16 -50 -6 -94 -15 -99 -20 -10 -10 20
-7 159 14 55 8 114 17 130 19 17 2 3 5 -31 6 -33 0 -63 -1 -65 -3z"/>
<path d="M1175 1170 c-4 -6 14 -10 51 -10 67 0 68 5 2 14 -29 4 -49 3 -53 -4z"/>
<path d="M360 1160 c0 -5 16 -10 36 -10 21 0 33 4 29 10 -3 6 -19 10 -36 10
-16 0 -29 -4 -29 -10z"/>
<path d="M1577 1163 c-3 -5 15 -8 39 -8 24 0 44 3 44 8 0 4 -18 7 -39 7 -22 0
-42 -3 -44 -7z"/>
<path d="M1706 1155 c-4 -12 4 -15 42 -14 34 0 42 3 27 8 -19 8 -18 9 5 13 16
3 8 6 -21 7 -33 1 -49 -3 -53 -14z"/>
<path d="M1816 1152 c-5 -9 63 -6 72 3 3 3 -11 5 -31 5 -20 0 -38 -4 -41 -8z"/>
<path d="M1908 1153 c7 -3 16 -2 19 1 4 3 -2 6 -13 5 -11 0 -14 -3 -6 -6z"/>
<path d="M1960 1150 c-18 -12 -2 -12 25 0 13 6 15 9 5 9 -8 0 -22 -4 -30 -9z"/>
<path d="M2902 1155 c12 -12 135 -17 142 -6 5 8 -16 11 -70 11 -43 0 -75 -2
-72 -5z"/>
<path d="M5 1140 c-3 -5 -2 -10 4 -10 5 0 13 5 16 10 3 6 2 10 -4 10 -5 0 -13
-4 -16 -10z"/>
<path d="M1315 1140 c-3 -6 1 -7 9 -4 18 7 21 14 7 14 -6 0 -13 -4 -16 -10z"/>
<path d="M1418 1143 c7 -3 16 -2 19 1 4 3 -2 6 -13 5 -11 0 -14 -3 -6 -6z"/>
<path d="M2130 1133 l-25 -13 25 0 c14 0 31 4 38 9 24 15 -10 19 -38 4z"/>
<path d="M2610 1140 c-9 -6 -10 -10 -3 -10 6 0 15 5 18 10 8 12 4 12 -15 0z"/>
<path d="M270 1130 c-19 -13 46 -13 75 0 16 7 11 9 -20 9 -22 0 -47 -4 -55 -9z"/>
<path d="M1208 1133 c6 -2 18 -2 25 0 6 3 1 5 -13 5 -14 0 -19 -2 -12 -5z"/>
<path d="M2235 1130 l-50 -7 45 -1 c25 0 54 3 65 8 23 10 12 10 -60 0z"/>
<path d="M2653 1133 c9 -2 23 -2 30 0 6 3 -1 5 -18 5 -16 0 -22 -2 -12 -5z"/>
<path d="M911 1126 c2 -2 20 -6 39 -10 25 -4 31 -3 20 4 -14 9 -69 15 -59 6z"/>
<path d="M2333 1123 c9 -2 25 -2 35 0 9 3 1 5 -18 5 -19 0 -27 -2 -17 -5z"/>
<path d="M600 1110 c-20 -6 -15 -8 23 -7 26 0 50 4 53 9 6 10 -42 9 -76 -2z"/>
<path d="M1828 1109 c40 -6 69 -6 80 0 12 8 -6 10 -63 9 l-80 0 63 -9z"/>
<path d="M1993 1113 c9 -2 23 -2 30 0 6 3 -1 5 -18 5 -16 0 -22 -2 -12 -5z"/>
<path d="M2788 1113 c12 -2 30 -2 40 0 9 3 -1 5 -23 4 -22 0 -30 -2 -17 -4z"/>
<path d="M1435 1100 c-12 -5 5 -7 45 -3 36 3 67 7 69 9 9 8 -95 2 -114 -6z"/>
<path d="M2538 1103 c12 -2 30 -2 40 0 9 3 -1 5 -23 4 -22 0 -30 -2 -17 -4z"/>
<path d="M200 1094 c-8 -2 -41 -6 -74 -9 -94 -11 -50 -24 49 -15 107 10 172
29 90 28 -27 -1 -57 -3 -65 -4z"/>
<path d="M548 1093 c7 -3 16 -2 19 1 4 3 -2 6 -13 5 -11 0 -14 -3 -6 -6z"/>
<path d="M707 1090 c-52 -10 -58 -20 -11 -20 22 0 44 4 50 9 5 6 36 12 69 14
l60 3 -65 1 c-36 0 -82 -3 -103 -7z"/>
<path d="M3003 1093 c9 -2 23 -2 30 0 6 3 -1 5 -18 5 -16 0 -22 -2 -12 -5z"/>
<path d="M433 1083 c9 -2 23 -2 30 0 6 3 -1 5 -18 5 -16 0 -22 -2 -12 -5z"/>
<path d="M1163 1083 c9 -2 23 -2 30 0 6 3 -1 5 -18 5 -16 0 -22 -2 -12 -5z"/>
<path d="M1094 1072 c8 -14 177 -33 278 -31 48 0 93 -3 100 -7 9 -5 8 -2 -2
10 -12 15 -24 17 -75 12 -33 -3 -87 -2 -120 3 -113 17 -187 22 -181 13z"/>
<path d="M2098 1073 c7 -3 16 -2 19 1 4 3 -2 6 -13 5 -11 0 -14 -3 -6 -6z"/>
<path d="M268 1063 c7 -3 16 -2 19 1 4 3 -2 6 -13 5 -11 0 -14 -3 -6 -6z"/>
<path d="M1028 1063 c7 -3 16 -2 19 1 4 3 -2 6 -13 5 -11 0 -14 -3 -6 -6z"/>
<path d="M30 1050 c-12 -8 -11 -10 7 -10 12 0 25 5 28 10 8 13 -15 13 -35 0z"/>
<path d="M497 1048 c-17 -11 63 -9 88 2 14 6 6 8 -28 7 -27 -1 -54 -5 -60 -9z"/>
<path d="M820 1052 c-14 -2 -74 -10 -135 -17 -96 -11 -102 -13 -49 -14 54 -1
253 23 279 34 11 5 -57 2 -95 -3z"/>
<path d="M2008 1053 c6 -2 18 -2 25 0 6 3 1 5 -13 5 -14 0 -19 -2 -12 -5z"/>
<path d="M2371 1050 c-9 -5 -8 -9 5 -14 9 -4 21 -3 26 2 12 12 -15 23 -31 12z"/>
<path d="M2513 1054 c3 -3 34 -8 68 -10 35 -3 60 -2 56 2 -4 4 -35 9 -69 11
-33 1 -59 0 -55 -3z"/>
<path d="M110 1040 c-10 -6 8 -9 57 -7 40 1 65 5 55 9 -26 10 -95 9 -112 -2z"/>
<path d="M2065 1040 c-17 -7 -15 -9 13 -9 17 -1 32 4 32 9 0 12 -17 12 -45 0z"/>
<path d="M1948 1033 c6 -2 18 -2 25 0 6 3 1 5 -13 5 -14 0 -19 -2 -12 -5z"/>
<path d="M2664 1033 c10 -11 86 -12 80 -2 -3 5 -24 9 -46 9 -23 0 -38 -3 -34
-7z"/>
<path d="M1123 1019 c14 -8 22 -8 30 0 8 8 3 11 -18 11 -26 -1 -28 -2 -12 -11z"/>
<path d="M2275 1020 c4 -6 11 -8 16 -5 14 9 11 15 -7 15 -8 0 -12 -5 -9 -10z"/>
<path d="M2438 1023 c7 -3 16 -2 19 1 4 3 -2 6 -13 5 -11 0 -14 -3 -6 -6z"/>
<path d="M2020 1000 c-21 -7 -21 -8 -5 -9 11 0 27 4 35 9 18 11 5 11 -30 0z"/>
<path d="M2344 1001 c5 -8 56 -3 56 5 0 2 -14 4 -31 4 -16 0 -28 -4 -25 -9z"/>
<path d="M8 993 c7 -3 16 -2 19 1 4 3 -2 6 -13 5 -11 0 -14 -3 -6 -6z"/>
<path d="M58 993 c6 -2 18 -2 25 0 6 3 1 5 -13 5 -14 0 -19 -2 -12 -5z"/>
<path d="M570 990 c0 -5 14 -7 33 -3 45 8 47 13 4 13 -20 0 -37 -4 -37 -10z"/>
<path d="M1080 990 c-16 -5 8 -8 70 -8 52 0 104 3 115 8 26 11 -150 11 -185 0z"/>
<path d="M1630 990 l-25 -8 28 -1 c15 -1 27 4 27 9 0 6 -1 10 -2 9 -2 -1 -14
-5 -28 -9z"/>
<path d="M2553 993 c9 -2 25 -2 35 0 9 3 1 5 -18 5 -19 0 -27 -2 -17 -5z"/>
<path d="M3429 989 c-10 -6 -7 -9 14 -9 29 0 35 5 14 13 -8 3 -20 1 -28 -4z"/>
<path d="M275 975 c-22 -7 -31 -13 -20 -13 11 0 38 5 60 13 22 7 31 13 20 13
-11 0 -38 -5 -60 -13z"/>
<path d="M528 983 c6 -2 18 -2 25 0 6 3 1 5 -13 5 -14 0 -19 -2 -12 -5z"/>
<path d="M1015 980 l-30 -8 27 -1 c15 0 30 4 33 9 3 6 5 9 3 9 -2 -1 -16 -5
-33 -9z"/>
<path d="M1548 983 c7 -3 16 -2 19 1 4 3 -2 6 -13 5 -11 0 -14 -3 -6 -6z"/>
<path d="M370 960 c-35 -7 -35 -7 -5 -9 17 0 37 4 45 9 17 11 11 11 -40 0z"/>
<path d="M835 940 c-3 -5 -15 -10 -25 -10 -10 0 -21 -4 -24 -8 -3 -5 46 -8
110 -8 88 1 111 4 99 12 -9 7 -24 10 -34 7 -10 -3 -22 0 -25 6 -9 14 -93 15
-101 1z"/>
<path d="M2318 927 c31 -7 46 -7 54 1 9 9 -1 12 -42 11 l-55 -1 43 -11z"/>
<path d="M430 910 c-24 -8 -23 -8 8 -9 17 -1 32 4 32 9 0 11 -5 11 -40 0z"/>
<path d="M493 913 c9 -2 25 -2 35 0 9 3 1 5 -18 5 -19 0 -27 -2 -17 -5z"/>
<path d="M580 899 c-128 -20 -251 -29 -244 -18 5 9 -30 14 -51 9 -5 -2 -37 -4
-70 -6 -71 -3 -215 -34 -215 -46 0 -4 4 -8 9 -8 5 0 17 -3 27 -7 13 -5 15 -3
9 7 -6 10 0 11 27 6 19 -3 50 -3 69 1 l34 7 -30 8 c-21 5 -17 5 15 2 140 -15
152 -15 195 0 28 9 54 12 67 7 l22 -8 -22 -5 c-12 -4 -22 -2 -22 2 0 4 -11 3
-25 -3 l-25 -12 28 -5 c27 -6 201 16 211 26 3 3 -1 9 -9 14 -10 7 8 10 55 10
74 0 131 -19 65 -21 -31 -1 -29 -2 14 -10 28 -4 71 -4 99 2 54 10 73 19 41 19
-18 1 -18 1 -1 11 11 6 34 8 54 4 26 -5 33 -3 28 6 -6 8 -29 10 -84 4 -42 -4
-83 -6 -91 -6 -8 1 -31 1 -50 1 -24 0 -31 3 -21 9 26 17 -5 17 -109 0z m-277
-26 c-7 -2 -19 -2 -25 0 -7 3 -2 5 12 5 14 0 19 -2 13 -5z m520 0 c-7 -2 -19
-2 -25 0 -7 3 -2 5 12 5 14 0 19 -2 13 -5z m-596 -9 c-3 -3 -12 -4 -19 -1 -8
3 -5 6 6 6 11 1 17 -2 13 -5z m330 0 c-3 -3 -12 -4 -19 -1 -8 3 -5 6 6 6 11 1
17 -2 13 -5z m-40 -10 c-3 -3 -12 -4 -19 -1 -8 3 -5 6 6 6 11 1 17 -2 13 -5z"/>
<path d="M1025 910 c3 -5 18 -10 33 -11 l27 -1 -25 -8 c-20 -6 -14 -8 25 -8
41 0 46 2 25 9 -18 6 -9 8 32 5 70 -5 86 9 21 18 -71 9 -145 7 -138 -4z"/>
<path d="M176 900 c6 -6 21 -6 39 -1 30 9 30 9 -9 10 -26 1 -37 -2 -30 -9z"/>
<path d="M1360 900 c-8 -5 -12 -11 -9 -14 2 -3 11 -1 19 4 8 5 12 11 9 14 -2
3 -11 1 -19 -4z"/>
<path d="M1420 900 c0 -6 7 -10 15 -10 8 0 15 2 15 4 0 2 -7 6 -15 10 -8 3
-15 1 -15 -4z"/>
<path d="M2313 903 c9 -2 23 -2 30 0 6 3 -1 5 -18 5 -16 0 -22 -2 -12 -5z"/>
<path d="M27 887 c-15 -6 -27 -15 -27 -19 0 -11 78 2 109 19 26 13 25 13 -14
12 -22 -1 -52 -6 -68 -12z"/>
<path d="M983 893 c9 -2 23 -2 30 0 6 3 -1 5 -18 5 -16 0 -22 -2 -12 -5z"/>
<path d="M3532 821 l-20 -58 39 1 c43 1 45 5 33 79 -9 54 -29 46 -52 -22z m38
-5 c0 -8 -4 -18 -10 -21 -5 -3 -10 3 -10 14 0 12 5 21 10 21 6 0 10 -6 10 -14z"/>
<path d="M3633 872 c-13 -8 -33 -55 -33 -77 0 -19 28 -45 49 -45 25 0 48 78
32 109 -12 22 -27 26 -48 13z m25 -54 c-4 -41 -28 -50 -28 -10 0 16 3 32 7 35
15 16 24 5 21 -25z"/>
<path d="M3706 864 c-13 -33 -6 -102 10 -108 30 -12 52 12 59 64 4 28 5 54 2
57 -12 11 -27 -10 -27 -37 0 -34 -9 -60 -21 -60 -4 0 -5 23 -2 50 6 49 -7 70
-21 34z"/>
<path d="M3796 849 c-9 -45 -7 -89 3 -89 12 0 21 36 21 83 0 45 -15 49 -24 6z"/>
<path d="M928 863 c7 -3 16 -2 19 1 4 3 -2 6 -13 5 -11 0 -14 -3 -6 -6z"/>
<path d="M983 863 c9 -2 25 -2 35 0 9 3 1 5 -18 5 -19 0 -27 -2 -17 -5z"/>
<path d="M1334 855 c-4 -9 -1 -28 5 -43 23 -56 131 -33 131 27 0 11 -4 23 -10
26 -6 3 -7 -1 -4 -10 10 -26 -23 -65 -56 -65 -33 0 -66 39 -56 65 3 8 3 15 0
15 -2 0 -7 -7 -10 -15z"/>
<path d="M1550 810 c0 -33 4 -60 10 -60 6 0 10 9 10 20 0 11 6 20 13 20 7 0
18 -9 25 -20 17 -27 36 -26 21 1 -8 15 -8 24 0 32 27 27 -3 67 -50 67 -29 0
-29 0 -29 -60z m60 20 c0 -13 -7 -20 -20 -20 -13 0 -20 7 -20 20 0 13 7 20 20
20 13 0 20 -7 20 -20z"/>
<path d="M1684 853 c-3 -10 -12 -35 -20 -57 -16 -42 -10 -61 10 -33 17 22 52
22 65 0 20 -37 23 -1 4 49 -21 55 -48 74 -59 41z m35 -45 c1 -5 -6 -8 -15 -8
-11 0 -14 5 -10 16 3 9 6 21 7 27 0 12 17 -20 18 -35z"/>
<path d="M1770 860 c0 -5 5 -10 10 -10 6 0 10 -22 10 -50 0 -27 5 -50 10 -50
6 0 10 27 10 60 0 53 -2 60 -20 60 -11 0 -20 -4 -20 -10z"/>
<path d="M1851 851 c-16 -28 -14 -76 3 -90 8 -7 27 -11 43 -9 60 7 52 109 -9
116 -18 2 -30 -3 -37 -17z m58 -19 c14 -27 2 -62 -20 -62 -24 0 -33 21 -25 55
7 29 31 33 45 7z"/>
<path d="M1972 858 c-7 -7 -12 -28 -12 -48 0 -41 14 -60 45 -60 31 0 45 19 45
60 0 41 -14 60 -45 60 -12 0 -26 -5 -33 -12z m56 -51 c3 -35 1 -38 -20 -35
-24 3 -35 34 -24 64 12 30 41 11 44 -29z"/>
<path d="M2086 854 c-34 -34 -13 -104 32 -104 37 0 52 17 52 56 0 36 -22 64
-50 64 -10 0 -26 -7 -34 -16z m59 -24 c9 -29 -4 -60 -25 -60 -10 0 -22 9 -25
20 -9 29 4 60 25 60 10 0 22 -9 25 -20z"/>
<path d="M2463 858 c-6 -7 -10 -33 -9 -58 1 -42 3 -45 29 -48 34 -4 61 15 51
37 -4 9 -6 27 -5 40 2 37 -44 57 -66 29z m42 -17 c7 -12 -12 -24 -25 -16 -11
7 -4 25 10 25 5 0 11 -4 15 -9z m5 -56 c0 -8 -9 -15 -20 -15 -11 0 -20 7 -20
15 0 8 9 15 20 15 11 0 20 -7 20 -15z"/>
<path d="M2590 838 c1 -21 2 -22 14 -5 31 40 48 5 21 -43 -18 -32 -18 -40 -1
-40 12 0 46 71 46 98 0 7 -15 12 -40 12 -35 0 -40 -3 -40 -22z"/>
<path d="M623 832 c-13 -2 -23 -8 -23 -14 0 -6 10 -8 23 -4 12 3 42 6 66 6 24
0 42 2 40 4 -7 6 -83 12 -106 8z"/>
<path d="M920 830 c-19 -13 46 -13 75 0 16 7 11 9 -20 9 -22 0 -47 -4 -55 -9z"/>
<path d="M1133 833 c9 -2 25 -2 35 0 9 3 1 5 -18 5 -19 0 -27 -2 -17 -5z"/>
<path d="M2725 831 c-3 -2 -5 -22 -5 -43 0 -27 4 -38 15 -38 10 0 15 11 15 35
0 24 5 35 15 35 10 0 15 -11 15 -35 0 -19 5 -35 10 -35 15 0 12 66 -3 78 -12
11 -53 13 -62 3z"/>
<path d="M2838 829 c-36 -21 -16 -79 27 -79 44 0 63 60 26 80 -24 12 -31 12
-53 -1z m50 -33 c4 -21 -14 -37 -35 -29 -14 5 -18 35 -6 47 12 12 38 1 41 -18z"/>
<path d="M805 820 c-13 -6 -15 -9 -5 -9 8 0 22 4 30 9 18 12 2 12 -25 0z"/>
<path d="M96 803 c-3 -4 -27 -6 -52 -4 -33 1 -44 -1 -38 -10 8 -13 155 -6 209
10 25 8 17 9 -41 10 -39 1 -74 -2 -78 -6z"/>
<path d="M1088 793 c6 -2 18 -2 25 0 6 3 1 5 -13 5 -14 0 -19 -2 -12 -5z"/>
<path d="M226 778 c7 -11 95 -10 113 1 8 5 -12 8 -52 8 -36 0 -64 -4 -61 -9z"/>
<path d="M386 779 c-56 -13 -60 -23 -7 -14 25 4 75 7 112 7 37 -1 80 3 95 8
41 12 -149 11 -200 -1z"/>
<path d="M1110 770 l-45 -7 45 -1 c25 -1 52 3 60 8 18 11 13 11 -60 0z"/>
<path d="M2550 765 c0 -8 7 -15 15 -15 8 0 15 7 15 15 0 8 -7 15 -15 15 -8 0
-15 -7 -15 -15z"/>
<path d="M792 759 c-74 -4 -128 -11 -135 -19 -9 -9 -1 -10 38 -6 28 3 114 8
193 12 78 4 141 8 140 10 -8 7 -127 9 -236 3z"/>
<path d="M583 753 c9 -2 25 -2 35 0 9 3 1 5 -18 5 -19 0 -27 -2 -17 -5z"/>
<path d="M1055 743 c-11 -3 -24 -9 -30 -15 -13 -12 46 1 60 13 10 10 4 10 -30
2z"/>
<path d="M78 733 c18 -2 45 -2 60 0 15 2 0 4 -33 4 -33 0 -45 -2 -27 -4z"/>
<path d="M503 733 c9 -2 23 -2 30 0 6 3 -1 5 -18 5 -16 0 -22 -2 -12 -5z"/>
<path d="M958 733 c7 -3 16 -2 19 1 4 3 -2 6 -13 5 -11 0 -14 -3 -6 -6z"/>
<path d="M185 719 c-13 -5 3 -8 48 -8 37 -1 67 3 67 9 0 11 -86 11 -115 -1z"/>
<path d="M1127 717 c-3 -9 -21 -12 -58 -10 -30 2 -101 3 -159 2 -58 0 -132 -1
-165 -1 l-60 0 49 -8 c27 -5 92 -11 144 -15 52 -3 113 -8 135 -12 29 -4 38 -3
33 5 -5 8 4 12 28 12 57 0 141 21 125 31 -21 13 -66 11 -72 -4z"/>
<path d="M400 705 c-44 -14 -43 -14 40 -8 85 6 120 13 62 13 -16 0 -36 2 -44
4 -7 2 -33 -2 -58 -9z"/>
<path d="M7 683 c-17 -16 -3 -22 41 -16 73 9 86 22 21 23 -31 0 -59 -3 -62 -7z"/>
<path d="M405 670 c-29 -5 -14 -7 55 -7 52 -1 109 3 125 7 39 10 -124 10 -180
0z"/>
<path d="M198 658 c-3 -8 -71 -15 -175 -17 -13 -1 -23 -7 -23 -14 0 -9 20 -12
78 -9 69 3 258 35 268 45 3 2 -29 4 -70 4 -42 0 -77 -4 -78 -9z"/>
<path d="M1133 664 c7 -8 87 -7 95 0 3 3 -19 6 -48 6 -29 0 -51 -3 -47 -6z"/>
<path d="M693 653 c9 -2 23 -2 30 0 6 3 -1 5 -18 5 -16 0 -22 -2 -12 -5z"/>
<path d="M910 650 c-12 -8 -12 -10 5 -9 11 0 29 4 40 9 18 8 18 9 -5 9 -14 0
-32 -4 -40 -9z"/>
<path d="M1020 644 c-8 -3 -51 -9 -95 -14 l-80 -9 99 4 c54 2 103 8 109 14 11
11 -2 13 -33 5z"/>
<path d="M1248 645 c-3 -3 -28 -10 -55 -15 -32 -6 -1 -7 96 -4 147 4 208 14
89 14 -36 0 -78 3 -94 6 -16 3 -32 3 -36 -1z"/>
<path d="M1064 622 c5 -8 66 -4 66 4 0 2 -16 4 -36 4 -19 0 -33 -4 -30 -8z"/>
<path d="M678 613 c6 -2 18 -2 25 0 6 3 1 5 -13 5 -14 0 -19 -2 -12 -5z"/>
<path d="M320 600 c-25 -5 -53 -6 -64 -3 -12 3 -16 1 -11 -6 9 -15 156 -11
152 4 -5 13 -23 14 -77 5z"/>
<path d="M578 603 c18 -2 45 -2 60 0 15 2 0 4 -33 4 -33 0 -45 -2 -27 -4z"/>
<path d="M20 590 c-16 -6 -1 -7 40 -3 36 3 67 7 69 9 8 8 -84 2 -109 -6z"/>
<path d="M665 589 c-22 -6 -18 -7 18 -4 30 3 46 1 42 -5 -3 -6 -13 -10 -22
-10 -9 0 -14 -2 -12 -5 4 -4 182 21 204 29 20 8 -201 2 -230 -5z"/>
<path d="M1160 590 c-8 -5 -34 -10 -56 -10 -56 0 -104 -10 -104 -22 0 -6 10
-8 23 -4 12 3 65 11 117 17 52 6 99 15 105 20 13 12 -66 11 -85 -1z"/>
<path d="M139 575 c-3 -2 -21 -5 -41 -7 -20 -1 -34 -6 -31 -10 5 -10 115 -9
173 0 l35 6 -40 7 c-47 9 -90 11 -96 4z"/>
<path d="M450 570 c-52 -5 -49 -6 40 -12 52 -4 113 -4 135 1 l40 9 -32 2 c-66
5 -129 5 -183 0z"/>
<path d="M8 563 c7 -3 16 -2 19 1 4 3 -2 6 -13 5 -11 0 -14 -3 -6 -6z"/>
<path d="M295 560 c-18 -8 -17 -9 7 -9 15 -1 30 4 33 9 7 12 -12 12 -40 0z"/>
<path d="M878 559 c-16 -5 -9 -7 22 -7 25 0 56 3 70 8 32 9 -57 8 -92 -1z"/>
<path d="M790 550 c-24 -8 -24 -8 5 -9 17 0 37 4 45 9 12 8 11 10 -5 9 -11 -1
-31 -5 -45 -9z"/>
<path d="M708 533 c12 -2 30 -2 40 0 9 3 -1 5 -23 4 -22 0 -30 -2 -17 -4z"/>
<path d="M215 520 c-8 -13 35 -13 55 0 11 7 7 10 -17 10 -17 0 -35 -4 -38 -10z"/>
<path d="M508 523 c7 -3 16 -2 19 1 4 3 -2 6 -13 5 -11 0 -14 -3 -6 -6z"/>
<path d="M855 515 c-70 -11 -79 -16 -32 -18 27 -1 133 15 152 23 17 7 15 9
-10 8 -16 0 -66 -6 -110 -13z"/>
<path d="M13 513 c-16 -6 -17 -43 -2 -43 5 0 7 5 4 10 -4 6 11 10 37 10 31 0
39 -3 28 -10 -10 -6 2 -7 38 -3 36 4 52 2 52 -6 0 -6 -15 -11 -34 -11 -19 0
-38 -5 -42 -11 -5 -8 -9 -8 -14 1 -5 7 -20 9 -44 5 -29 -6 -36 -12 -36 -31 0
-26 18 -31 52 -13 15 8 22 8 27 0 9 -15 58 -8 101 15 19 10 64 22 100 26 62 7
118 18 168 33 13 5 22 3 22 -3 0 -6 -8 -13 -17 -15 -10 -2 7 -2 37 1 30 3 60
11 67 18 21 21 15 24 -22 8 -39 -16 -69 -19 -46 -5 23 15 -5 17 -102 8 -116
-11 -113 -11 -232 -3 -55 4 -101 12 -103 17 -4 10 -19 11 -39 2z"/>
<path d="M614 510 c-24 -9 -41 -30 -25 -30 5 0 13 5 16 10 3 6 27 10 53 11 35
0 42 3 27 9 -25 11 -44 11 -71 0z"/>
<path d="M758 473 c7 -3 16 -2 19 1 4 3 -2 6 -13 5 -11 0 -14 -3 -6 -6z"/>
<path d="M577 452 c-45 -19 -27 -24 44 -12 112 18 134 29 55 27 -38 -1 -82 -8
-99 -15z"/>
<path d="M815 460 c-25 -11 1 -11 35 0 20 6 21 8 5 8 -11 0 -29 -3 -40 -8z"/>
<path d="M329 425 c-3 -2 -41 -11 -85 -20 l-79 -15 73 4 c51 2 79 8 90 20 9 9
14 16 11 16 -3 0 -8 -2 -10 -5z"/>
<path d="M645 400 c-3 -5 3 -10 14 -10 12 0 21 5 21 10 0 6 -6 10 -14 10 -8 0
-18 -4 -21 -10z"/>
<path d="M368 393 c6 -2 18 -2 25 0 6 3 1 5 -13 5 -14 0 -19 -2 -12 -5z"/>
<path d="M525 390 c-13 -6 -15 -9 -5 -9 8 0 22 4 30 9 18 12 2 12 -25 0z"/>
<path d="M48 362 c-57 -18 -64 -34 -10 -20 20 5 50 9 66 8 16 0 38 3 50 6 21
7 21 7 1 15 -29 11 -54 9 -107 -9z"/>
<path d="M1460 370 l-25 -8 27 -1 c15 -1 30 4 33 9 7 11 0 11 -35 0z"/>
<path d="M1410 355 c7 -8 16 -15 21 -15 5 0 6 7 3 15 -4 8 -13 15 -21 15 -13
0 -13 -3 -3 -15z"/>
<path d="M50 320 c-13 -8 -13 -10 2 -10 9 0 20 5 23 10 8 13 -5 13 -25 0z"/>
<path d="M1165 280 c-3 -5 1 -10 9 -10 9 0 16 5 16 10 0 6 -4 10 -9 10 -6 0
-13 -4 -16 -10z"/>
<path d="M0 253 c0 -5 26 -9 58 -10 54 -1 55 -1 17 7 -51 11 -75 12 -75 3z"/>
<path d="M1095 250 c-13 -5 -14 -9 -5 -9 8 0 24 4 35 9 13 5 14 9 5 9 -8 0
-24 -4 -35 -9z"/>
<path d="M208 243 c7 -3 16 -2 19 1 4 3 -2 6 -13 5 -11 0 -14 -3 -6 -6z"/>
<path d="M27 213 c-50 -8 -28 -22 26 -16 67 7 97 23 42 21 -22 0 -52 -3 -68
-5z"/>
<path d="M712 118 c20 -5 43 -6 52 -1 9 5 -4 8 -37 9 -51 1 -52 1 -15 -8z"/>
<path d="M660 91 c0 -5 9 -7 20 -4 11 3 20 7 20 9 0 2 -9 4 -20 4 -11 0 -20
-4 -20 -9z"/>
<path d="M358 33 c-10 -2 -18 -9 -18 -15 0 -5 6 -8 13 -5 6 2 23 0 35 -5 32
-11 48 0 25 18 -19 14 -26 15 -55 7z"/>
</g>
</svg>
