<svg version="1.2" xmlns="http://www.w3.org/2000/svg" viewBox="0 0 66 45" width="66" height="45">
	<title>formapgto-hipercard-svg</title>
	<style>
		.s0 { fill: #981b1e } 
		.s1 { fill: #ffffff } 
	</style>
	<g id="Layer">
		<path id="Layer" fill-rule="evenodd" class="s0" d="m20.4 10h-5.8c-2.6 0.1-4.7 1.2-5.3 3.3-0.3 1.1-0.5 2.3-0.7 3.5-1.3 5.8-2.4 11.8-3.6 17.6h45.2c3.5 0 5.9-0.8 6.5-3.5 0.3-1.3 0.6-2.8 0.9-4.2 1.1-5.5 2.2-11 3.4-16.7z"/>
		<path id="Layer" fill-rule="evenodd" class="s1" d="m19.7 18.8q-0.1 0-0.2 0-0.2 0-0.3 0-0.1-0.1-0.2-0.1c-0.2-0.3-0.1-0.9 0.1-1.1q0-0.1 0.1-0.1 0-0.1 0.1-0.1 0 0 0.1 0 0.1-0.1 0.2-0.1 0 0 0.1 0 0.1 0 0.1 0 0.1 0 0.2 0.1 0.1 0 0.1 0c0.4 0.3 0.1 1.1-0.2 1.3q-0.1 0-0.2 0.1zm-3.2-1.4q0 0 0 0zm0 0h1.4c-0.6 2.7-1.1 5.5-1.5 8.3h-1.4c0.2-1.4 0.5-2.7 0.7-4.1q-0.4 0-0.9 0-0.5 0-0.9 0-0.5 0-1 0-0.4 0-0.9 0c-0.3 1.3-0.5 2.7-0.7 4.1h-1.4c0.6-2.7 1-5.5 1.5-8.3h1.3c-0.2 1.1-0.3 2.3-0.6 3.3 1.2 0.1 2.5 0.1 3.8 0.1q0.3-1.7 0.6-3.4zm19.4 3.3q-0.3-0.1-0.7-0.1-0.3 0-0.6 0.2-0.4 0.2-0.6 0.5-0.2 0.3-0.3 0.6-0.1 0.5-0.2 0.9-0.1 0.5-0.2 1-0.1 0.5-0.1 0.9-0.1 0.5-0.1 1h-1.2c0.3-1.9 0.7-3.8 1-5.9h1.1c-0.1 0.3-0.1 0.7-0.2 1q0.1-0.3 0.4-0.6 0.2-0.2 0.5-0.4 0.4-0.1 0.7-0.1 0.4 0 0.7 0.1c0 0.3-0.1 0.6-0.2 0.9zm3.8 3.9q-0.1 0.5-0.2 0.9c-1.6 0.6-3.5 0.5-4-0.9q-0.1-0.5-0.1-1.1 0-0.5 0.2-1 0.1-0.6 0.3-1 0.3-0.5 0.6-0.9c0.8-0.9 2.4-1.1 4-0.8 0 0.3-0.1 0.6-0.1 1-1-0.4-2.3-0.5-2.9 0.1q-0.2 0.3-0.4 0.5-0.1 0.3-0.2 0.6-0.1 0.3-0.2 0.6 0 0.3 0 0.6-0.1 0.1-0.1 0.3 0 0.1 0.1 0.3 0 0.1 0 0.2 0 0.2 0.1 0.3c0.4 1 2 0.8 2.9 0.3zm10.6-3.9c-1.9-0.6-2.3 1.2-2.6 2.9q0 0.2-0.1 0.5 0 0.3-0.1 0.5 0 0.3 0 0.6 0 0.2-0.1 0.5h-1.2q0.6-2.9 1-5.9h1.1c-0.1 0.3-0.1 0.7-0.2 0.9q0.2-0.3 0.4-0.5 0.3-0.2 0.6-0.4 0.3-0.1 0.7-0.1 0.3 0 0.6 0.1c0 0.3-0.1 0.6-0.1 0.9zm-30.4-0.9c-0.4 1.9-0.8 3.9-1.1 5.9h-1.2c0.4-1.9 0.8-3.8 1-5.8q0-0.1 0.1-0.1zm11.7 0.8q0.1 0.3 0.1 0.5 0 0.3 0 0.5 0 0.2-0.1 0.5 0 0.2-0.1 0.4c-1.3 0-2.7 0-4 0-0.2 0.9-0.2 1.9 0.4 2.3 0.9 0.5 2.3 0.1 3.1-0.2-0.1 0.3-0.2 0.6-0.2 1-2 0.4-4.4 0.5-4.6-1.4q-0.1-0.5 0-1 0-0.5 0.1-0.9 0.2-0.5 0.4-0.9 0.2-0.4 0.5-0.8 0.2-0.2 0.5-0.4 0.2-0.2 0.5-0.3 0.3-0.1 0.6-0.1 0.3-0.1 0.6-0.1c1-0.1 2 0.1 2.2 0.9zm-2.3-0.2q-0.3 0-0.6 0.2-0.3 0.1-0.5 0.3-0.2 0.2-0.3 0.4-0.2 0.3-0.2 0.6h2.8c0.3-1.1-0.3-1.5-1.2-1.5zm-5.2 5.1c-0.8 0.5-2.6 0.7-2.9-0.4-0.2 1-0.3 2.2-0.5 3.2h-1.2q0.8-4.1 1.5-8.5h1c0 0.2-0.1 0.3-0.1 0.5q0 0 0 0.1 0 0 0-0.1 0.3-0.2 0.7-0.3 0.3-0.2 0.7-0.3 0.4 0 0.7 0 0.4 0 0.8 0.1c2.1 0.8 0.9 4.9-0.7 5.7zm0.1-1.6q0.2-0.4 0.3-0.8 0.1-0.4 0.1-0.8 0.1-0.4 0-0.8c-0.2-1.3-2.1-1.2-2.7-0.5q-0.1 0.8-0.3 1.5 0 0.2-0.1 0.4 0 0.2 0 0.4-0.1 0.2-0.1 0.4 0 0.2 0 0.4c0.1 1.2 1.7 1.2 2.4 0.5q0.2-0.3 0.4-0.7zm30.8-6.6h1.2q-0.2 1-0.4 2.1-0.2 1-0.4 2.1-0.2 1-0.3 2.1-0.2 1-0.3 2.1h-1.1q0-0.1 0.1-0.2 0-0.1 0-0.2 0-0.1 0-0.3 0-0.1 0-0.2c0-0.1-0.1 0.2-0.2 0.3q0 0.1-0.1 0.1 0 0.1-0.1 0.1 0 0.1-0.1 0.1-0.1 0.1-0.1 0.1-0.4 0.2-0.8 0.3-0.4 0.1-0.8 0.1-0.4-0.1-0.7-0.2-0.4-0.2-0.7-0.4-0.1-0.2-0.2-0.3-0.1-0.2-0.2-0.4 0-0.2 0-0.4-0.1-0.1 0-0.3c-0.1-2.7 1.7-4.9 4.7-4q0.1-0.3 0.2-0.7 0-0.3 0.1-0.6 0-0.3 0.1-0.7 0-0.3 0.1-0.6zm-0.6 3.4q-0.1-0.1-0.3-0.1-0.2-0.1-0.4-0.1-0.2 0-0.4 0-0.2-0.1-0.4 0c-1.3 0.1-1.9 1.7-1.9 3.2 0 0.8 0.4 1.4 1.2 1.3 2 0 1.8-2.7 2.2-4.3zm-8.6 0.1q0 0.2 0 0.5 0 0.3-0.1 0.6 0 0.2-0.1 0.5 0 0.3-0.1 0.6-0.1 0.3-0.1 0.6-0.1 0.4-0.1 0.7-0.1 0.4-0.1 0.7 0 0.3 0 0.7h-1.1q0-0.1 0-0.2 0-0.2 0.1-0.3 0-0.1 0-0.2 0-0.1 0-0.2-0.2 0.3-0.6 0.6-0.4 0.2-0.8 0.3-0.4 0.2-0.9 0.1-0.4 0-0.8-0.1-0.3-0.2-0.5-0.5-0.1-0.2-0.2-0.5-0.1-0.3-0.1-0.6 0-0.3 0.1-0.6c0.5-1.5 2.1-1.8 4.1-1.6q0.1-0.1 0.1-0.2 0.1-0.1 0.1-0.2 0-0.2 0-0.3 0-0.1 0-0.2c-0.2-1-2.5-0.4-3.2-0.2 0.1-0.4 0.2-0.7 0.2-1 1.5 0 4.1-0.6 4.1 1zm-1.8 3.3q0.1-0.2 0.2-0.5 0.1-0.2 0.2-0.5 0-0.3 0-0.5c-1.4-0.2-2.7 0.1-2.9 1.3-0.2 1.5 1.6 1.3 2.2 0.7q0.2-0.3 0.3-0.5z"/>
	</g>
</svg>