<svg width="23" height="16" viewBox="0 0 23 16" fill="none" xmlns="http://www.w3.org/2000/svg">
<path id="Vector" d="M6.44727 8.5C7.04061 8.5 7.62063 8.32405 8.11398 7.99441C8.60732 7.66476 8.99184 7.19623 9.2189 6.64805C9.44597 6.09987 9.50538 5.49667 9.38962 4.91473C9.27387 4.33279 8.98814 3.79824 8.56859 3.37868C8.14903 2.95912 7.61448 2.6734 7.03254 2.55764C6.45059 2.44189 5.84739 2.5013 5.29922 2.72836C4.75104 2.95542 4.2825 3.33994 3.95286 3.83329C3.62321 4.32664 3.44727 4.90666 3.44727 5.5C3.44727 6.29565 3.76334 7.05871 4.32595 7.62132C4.88855 8.18393 5.65162 8.5 6.44727 8.5ZM6.44727 4.5C6.64505 4.5 6.83839 4.55865 7.00284 4.66853C7.16728 4.77841 7.29546 4.93459 7.37115 5.11732C7.44683 5.30004 7.46664 5.50111 7.42805 5.69509C7.38947 5.88907 7.29422 6.06725 7.15437 6.20711C7.01452 6.34696 6.83634 6.4422 6.64236 6.48079C6.44837 6.51937 6.24731 6.49957 6.06458 6.42388C5.88186 6.34819 5.72568 6.22002 5.6158 6.05557C5.50591 5.89112 5.44727 5.69778 5.44727 5.5C5.44727 5.23478 5.55262 4.98043 5.74016 4.79289C5.9277 4.60536 6.18205 4.5 6.44727 4.5ZM19.4473 2.5H11.4473C11.182 2.5 10.9277 2.60536 10.7402 2.79289C10.5526 2.98043 10.4473 3.23478 10.4473 3.5V9.5H2.44727V1.5C2.44727 1.23478 2.34191 0.98043 2.15437 0.792893C1.96684 0.605357 1.71248 0.5 1.44727 0.5C1.18205 0.5 0.927695 0.605357 0.740159 0.792893C0.552622 0.98043 0.447266 1.23478 0.447266 1.5V14.5C0.447266 14.7652 0.552622 15.0196 0.740159 15.2071C0.927695 15.3946 1.18205 15.5 1.44727 15.5C1.71248 15.5 1.96684 15.3946 2.15437 15.2071C2.34191 15.0196 2.44727 14.7652 2.44727 14.5V11.5H20.4473V14.5C20.4473 14.7652 20.5526 15.0196 20.7402 15.2071C20.9277 15.3946 21.182 15.5 21.4473 15.5C21.7125 15.5 21.9668 15.3946 22.1544 15.2071C22.3419 15.0196 22.4473 14.7652 22.4473 14.5V5.5C22.4473 4.70435 22.1312 3.94129 21.5686 3.37868C21.006 2.81607 20.2429 2.5 19.4473 2.5ZM20.4473 9.5H12.4473V4.5H19.4473C19.7125 4.5 19.9668 4.60536 20.1544 4.79289C20.3419 4.98043 20.4473 5.23478 20.4473 5.5V9.5Z" fill="#0D2240"/>
</svg>
