<?xml version="1.0" encoding="utf-8"?>
<!-- Generator: Adobe Illustrator 23.1.0, SVG Export Plug-In . SVG Version: 6.00 Build 0)  -->
<svg version="1.1" id="Camada_1" xmlns="http://www.w3.org/2000/svg" xmlns:xlink="http://www.w3.org/1999/xlink" x="0px" y="0px"
	 viewBox="0 0 283.1 283.5" style="enable-background:new 0 0 283.1 283.5;" xml:space="preserve">
<style type="text/css">
	.st0{fill:#0D2240;}
</style>
<g>
	<g>
		<path class="st0" d="M163.1,107.9c0-11-8.1-17.1-21.9-17.1c-13.3,0-24.8,5.5-35.7,16.4l-21.9-24C97.4,68,116,57.5,141.9,57.5
			c34.3,0,57.6,17.6,57.6,49.5c0,30.5-21,42.9-46.9,48.1l-2.6,14.5h-24.3l-5.5-38.6l1.2-1.2C151.5,128.6,163.1,120.7,163.1,107.9z
			 M117.9,226.2v-38.1h38.6v38.1L117.9,226.2L117.9,226.2z"/>
	</g>
	<path class="st0" d="M278.3,105c-0.7-2.5-1.4-5-2.2-7.4c-4.7-14.9-12-28.8-21.5-41.4c-5.9-7.9-12.6-15-20-21.4
		c-6.3-5.5-13.2-10.5-20.4-14.8C197.9,10.3,180,4,161.1,1.4S123.3-0.1,105,4.9c-8,2.2-15.8,5-23.3,8.5c-9,4.2-17.5,9.3-25.5,15.4
		c-12.6,9.5-23.4,20.9-32.1,34c-1.4,2.1-2.8,4.3-4.1,6.5c-9.7,16.3-16,34.2-18.6,53.1s-1.5,37.9,3.5,56.2
		c4.7,17.7,12.8,34.1,23.9,48.8c11,14.5,24.6,26.7,40.3,36.2c16.3,9.7,34.2,16,53.1,18.6s37.8,1.5,56.1-3.5
		c16.3-4.4,31.6-11.6,45.3-21.4c1.2-0.8,2.3-1.6,3.4-2.5c9.1-6.9,17.3-14.8,24.4-23.6c4.3-5.4,8.3-11,11.8-16.9
		c9.7-16.3,16-34.2,18.6-53.1S283.3,123.3,278.3,105z M253.9,157.2c-2.1,15.1-7.1,29.4-14.8,42.4c-2.8,4.7-6,9.2-9.4,13.5
		c-5.7,7-12.2,13.3-19.5,18.8c-0.9,0.7-1.8,1.4-2.7,2c-10.9,7.8-23.1,13.6-36.1,17.1c-14.6,4-29.7,4.9-44.8,2.8s-29.4-7.1-42.4-14.8
		c-12.5-7.6-23.4-17.3-32.2-28.9c-8.9-11.7-15.3-24.8-19.1-38.9c-4-14.6-4.9-29.8-2.8-44.8C32.2,111.3,37.2,97,44.9,84
		c1-1.8,2.2-3.5,3.3-5.2c6.9-10.5,15.6-19.5,25.6-27.1c6.4-4.9,13.2-8.9,20.3-12.3c6-2.8,12.2-5,18.6-6.8c14.6-4,29.7-4.9,44.8-2.8
		s29.4,7.1,42.4,14.8c5.7,3.4,11.2,7.4,16.3,11.8c5.9,5.1,11.2,10.8,16,17.1c7.6,10.1,13.4,21.1,17.2,33c0.6,1.9,1.2,3.9,1.8,5.9
		C255,127,255.9,142.1,253.9,157.2z"/>
</g>
</svg>
