<svg width="126" height="30" viewBox="0 0 126 30" fill="none" xmlns="http://www.w3.org/2000/svg">
<g id="LOGOSVGNEGRO-02 2" clip-path="url(#clip0_480_39435)">
<path id="Vector" d="M78.2191 28.1227H78.1392L78.1602 28.0708L79.2536 25.5733C79.2568 25.567 79.2616 25.5616 79.2676 25.5579C79.2735 25.5542 79.2803 25.5522 79.2873 25.5522C79.2942 25.5522 79.301 25.5542 79.307 25.5579C79.3129 25.5616 79.3177 25.567 79.3209 25.5733L80.4144 28.0708L80.4354 28.1227H80.3513L79.2915 25.7029L78.2191 28.1227Z" fill="black"/>
<path id="Vector_2" d="M80.5655 28.2354H80.2795L80.2501 28.149L79.2786 25.9323L78.2777 28.2354H77.9917L78.0674 28.0539L79.1608 25.5564C79.1711 25.5344 79.1872 25.5158 79.2073 25.5028C79.2274 25.4898 79.2507 25.4829 79.2744 25.4829C79.2981 25.4829 79.3214 25.4898 79.3415 25.5028C79.3615 25.5158 79.3777 25.5344 79.3879 25.5564L80.5655 28.2354Z" fill="black"/>
<path id="Vector_3" d="M82.4033 25.6078V25.5732H82.4874V27.3276C82.5216 27.5279 82.6234 27.7094 82.7749 27.8401C82.9264 27.9709 83.118 28.0426 83.3159 28.0426C83.5138 28.0426 83.7054 27.9709 83.8569 27.8401C84.0085 27.7094 84.1103 27.5279 84.1444 27.3276V25.5732H84.2285V27.3276C84.1986 27.5522 84.0906 27.758 83.9243 27.9071C83.7581 28.0561 83.545 28.1382 83.3243 28.1382C83.1037 28.1382 82.8906 28.0561 82.7243 27.9071C82.5581 27.758 82.45 27.5522 82.4201 27.3276L82.4033 25.6078Z" fill="black"/>
<path id="Vector_4" d="M83.3075 28.2354C83.0589 28.2496 82.815 28.1621 82.629 27.992C82.443 27.822 82.3301 27.5833 82.3149 27.328V25.4829H82.5883V25.6212V27.3496C82.6178 27.5287 82.7082 27.6914 82.8433 27.8086C82.9784 27.9259 83.1495 27.9903 83.3264 27.9903C83.5032 27.9903 83.6744 27.9259 83.8095 27.8086C83.9446 27.6914 84.0349 27.5287 84.0645 27.3496V25.4829H84.3378V25.6212V27.3496C84.3272 27.4774 84.2921 27.6019 84.2345 27.7157C84.1769 27.8296 84.098 27.9306 84.0022 28.013C83.9064 28.0953 83.7957 28.1573 83.6765 28.1955C83.5572 28.2337 83.4318 28.2472 83.3075 28.2354Z" fill="black"/>
<path id="Vector_5" d="M84.9688 28.1055V28.1444H84.8931V25.608C84.8963 25.6016 84.9011 25.5963 84.907 25.5926C84.9129 25.5889 84.9198 25.5869 84.9267 25.5869C84.9337 25.5869 84.9405 25.5889 84.9464 25.5926C84.9523 25.5963 84.9572 25.6016 84.9604 25.608L86.6972 28.0105V25.5907H86.7687V28.1271C86.7656 28.1335 86.7607 28.1388 86.7548 28.1425C86.7489 28.1462 86.742 28.1482 86.7351 28.1482C86.7281 28.1482 86.7213 28.1462 86.7154 28.1425C86.7095 28.1388 86.7046 28.1335 86.7015 28.1271L84.9646 25.7247L84.9688 28.1055Z" fill="black"/>
<path id="Vector_6" d="M86.7858 28.2698L86.7606 28.2309C86.7367 28.2358 86.7119 28.234 86.689 28.2256C86.666 28.2173 86.6457 28.2027 86.6302 28.1834L85.0573 26.0229V28.2482H84.8008V25.608C84.8012 25.5832 84.8085 25.559 84.822 25.5383C84.8354 25.5176 84.8543 25.5013 84.8765 25.4914V25.4438L84.9059 25.4827C84.9296 25.4775 84.9542 25.4797 84.9767 25.4889C84.9991 25.4982 85.0184 25.5141 85.0321 25.5346L86.605 27.6951V25.4784H86.8615V28.1056C86.8616 28.1306 86.8545 28.155 86.841 28.1758C86.8275 28.1966 86.8083 28.2128 86.7858 28.2222V28.2698Z" fill="black"/>
<path id="Vector_7" d="M90.9617 27.5611H91.0501L91.0206 27.6173C90.8915 27.7722 90.7271 27.8917 90.5419 27.9651C90.3568 28.0386 90.1569 28.0636 89.96 28.0381C89.7631 28.0125 89.5755 27.9371 89.414 27.8187C89.2524 27.7003 89.1221 27.5425 89.0345 27.3595C88.947 27.1765 88.905 26.9741 88.9125 26.7703C88.9199 26.5666 88.9764 26.3679 89.077 26.1922C89.1775 26.0164 89.319 25.869 89.4887 25.7633C89.6584 25.6576 89.8509 25.5968 90.0491 25.5864C90.2415 25.588 90.4304 25.6391 90.5986 25.735C90.7668 25.8308 90.909 25.9684 91.0122 26.1352L91.0374 26.1957H90.9575V26.1741C90.8623 26.0183 90.7302 25.8898 90.5736 25.8006C90.4169 25.7114 90.2408 25.6645 90.0617 25.6642C89.7737 25.6996 89.5083 25.8423 89.3157 26.0653C89.1231 26.2882 89.0168 26.576 89.0168 26.8741C89.0168 27.1722 89.1231 27.4599 89.3157 27.6829C89.5083 27.9058 89.7737 28.0485 90.0617 28.084C90.242 28.0795 90.4184 28.0294 90.5754 27.9382C90.7324 27.847 90.8651 27.7175 90.9617 27.5611Z" fill="black"/>
<path id="Vector_8" d="M90.0573 28.2353C89.7199 28.2078 89.4049 28.0507 89.1752 27.7952C88.9455 27.5398 88.8179 27.2047 88.8179 26.8569C88.8179 26.5091 88.9455 26.1741 89.1752 25.9186C89.4049 25.6631 89.7199 25.506 90.0573 25.4785C90.2664 25.4798 90.4718 25.5356 90.6542 25.6407C90.8366 25.7457 90.9901 25.8966 91.1003 26.0791L91.1886 26.2693H90.9111L90.8732 26.2001C90.7855 26.0593 90.665 25.9432 90.5225 25.8624C90.38 25.7817 90.2201 25.7388 90.0573 25.7378C89.7918 25.7717 89.5474 25.9042 89.3703 26.1103C89.1931 26.3164 89.0953 26.5819 89.0953 26.8569C89.0953 27.1319 89.1931 27.3974 89.3703 27.6035C89.5474 27.8096 89.7918 27.9421 90.0573 27.976C90.2235 27.9771 90.3872 27.9358 90.534 27.8558C90.6808 27.7759 90.806 27.6598 90.8984 27.518L90.9363 27.4489H91.2265L91.1256 27.6433C91.0103 27.8263 90.852 27.9765 90.6653 28.08C90.4786 28.1834 90.2695 28.2369 90.0573 28.2353Z" fill="black"/>
<path id="Vector_9" d="M91.563 25.6082V25.5693H91.6387V28.0669H93.0686V28.1446H91.6008C91.5908 28.1446 91.5812 28.1405 91.5741 28.1333C91.567 28.126 91.563 28.1161 91.563 28.1058V25.6082Z" fill="black"/>
<path id="Vector_10" d="M93.1569 28.2353H91.5967C91.5798 28.2359 91.5629 28.233 91.5471 28.2267C91.5313 28.2205 91.5169 28.211 91.5047 28.1989C91.4926 28.1868 91.4829 28.1723 91.4763 28.1563C91.4697 28.1403 91.4663 28.1231 91.4663 28.1057V25.4785H91.7271V27.9631H93.1569V28.2353Z" fill="black"/>
<path id="Vector_11" d="M93.561 25.6082V25.5693H93.6373V28.1619H93.561V25.6082Z" fill="black"/>
<path id="Vector_12" d="M93.7248 25.4785H93.4683V28.2353H93.7248V25.4785Z" fill="black"/>
<path id="Vector_13" d="M96.2357 27.5611H96.324L96.2945 27.6173C96.1655 27.7722 96.001 27.8917 95.8159 27.9651C95.6308 28.0386 95.4308 28.0636 95.2339 28.0381C95.037 28.0125 94.8494 27.9371 94.6879 27.8187C94.5264 27.7003 94.396 27.5425 94.3084 27.3595C94.2209 27.1765 94.179 26.9741 94.1864 26.7703C94.1938 26.5666 94.2503 26.3679 94.3509 26.1922C94.4515 26.0164 94.5929 25.869 94.7626 25.7633C94.9323 25.6576 95.1249 25.5968 95.3231 25.5864C95.5154 25.588 95.7043 25.6391 95.8725 25.735C96.0407 25.8308 96.1829 25.9684 96.2861 26.1352L96.3114 26.1957H96.2273V26.1741C96.1356 26.0175 96.007 25.8871 95.8534 25.795C95.6998 25.7029 95.5261 25.6519 95.3483 25.6469C95.0602 25.6824 94.7948 25.8251 94.6022 26.048C94.4097 26.271 94.3033 26.5587 94.3033 26.8568C94.3033 27.1549 94.4097 27.4426 94.6022 27.6656C94.7948 27.8885 95.0602 28.0312 95.3483 28.0667C95.5249 28.062 95.6978 28.0136 95.8522 27.9256C96.0067 27.8376 96.1383 27.7125 96.2357 27.5611Z" fill="black"/>
<path id="Vector_14" d="M95.3484 28.2353C95.0109 28.2078 94.6959 28.0507 94.4662 27.7952C94.2365 27.5398 94.1089 27.2047 94.1089 26.8569C94.1089 26.5091 94.2365 26.1741 94.4662 25.9186C94.6959 25.6631 95.0109 25.506 95.3484 25.4785C95.5577 25.4786 95.7635 25.5339 95.9461 25.6391C96.1287 25.7442 96.282 25.8957 96.3913 26.0791L96.4796 26.2693H96.1895L96.1516 26.2001C96.0651 26.0611 95.9465 25.9461 95.8064 25.8655C95.6663 25.7848 95.5089 25.741 95.3484 25.7378C95.0918 25.7814 94.8586 25.9172 94.6904 26.1209C94.5222 26.3247 94.4299 26.5832 94.4299 26.8504C94.4299 27.1176 94.5222 27.3761 94.6904 27.5799C94.8586 27.7837 95.0918 27.9195 95.3484 27.9631C95.5145 27.9641 95.6782 27.9228 95.825 27.8429C95.9718 27.7629 96.097 27.6469 96.1895 27.5051L96.2273 27.4359H96.5175L96.4166 27.6304C96.3028 27.8158 96.1451 27.9685 95.9583 28.0743C95.7715 28.1801 95.5617 28.2355 95.3484 28.2353Z" fill="black"/>
<path id="Vector_15" d="M97.2909 26.8956H96.9082V28.1444H96.8325V25.5518H96.9082V26.8005H97.2909L98.5778 25.5647H98.7124L98.6451 25.6295L97.3834 26.8524L98.6451 28.0752L98.7124 28.14H98.6031L97.2909 26.8956Z" fill="black"/>
<path id="Vector_16" d="M98.9271 28.2353H98.5486L98.5234 28.2094L97.2533 26.9865H97.001V28.2353H96.7402V25.4785H97.001V26.7273H97.2533L98.5402 25.4915L98.5907 25.4785H98.9271L97.4888 26.8569L98.9271 28.2353Z" fill="black"/>
<path id="Vector_17" d="M100.815 28.1445C100.81 28.1452 100.805 28.1447 100.8 28.143C100.795 28.1413 100.791 28.1384 100.787 28.1347C100.784 28.1309 100.781 28.1263 100.779 28.1213C100.777 28.1162 100.777 28.1109 100.778 28.1056V25.6081C100.777 25.6028 100.777 25.5974 100.779 25.5924C100.781 25.5873 100.784 25.5827 100.787 25.579C100.791 25.5752 100.795 25.5724 100.8 25.5707C100.805 25.569 100.81 25.5684 100.815 25.5692H101.758C102.046 25.6335 102.304 25.7971 102.489 26.033C102.674 26.2688 102.775 26.5626 102.775 26.8655C102.775 27.1684 102.674 27.4621 102.489 27.6979C102.304 27.9338 102.046 28.0974 101.758 28.1618H100.815V28.1445ZM100.849 28.0667H101.753C101.89 28.0486 102.021 28.003 102.141 27.9326C102.26 27.8622 102.365 27.7683 102.449 27.6564C102.532 27.5444 102.594 27.4166 102.63 27.2801C102.666 27.1437 102.675 27.0013 102.658 26.8611C102.675 26.721 102.666 26.5786 102.63 26.4421C102.594 26.3057 102.532 26.1778 102.449 26.0659C102.365 25.9539 102.26 25.8601 102.141 25.7897C102.021 25.7193 101.89 25.6737 101.753 25.6556H100.849V28.0667Z" fill="black"/>
<path id="Vector_18" d="M100.815 28.2354C100.799 28.236 100.782 28.233 100.766 28.2268C100.75 28.2205 100.736 28.2111 100.723 28.199C100.711 28.1869 100.702 28.1724 100.695 28.1564C100.688 28.1404 100.685 28.1231 100.685 28.1057V25.6082C100.685 25.5908 100.688 25.5736 100.695 25.5576C100.702 25.5416 100.711 25.5271 100.723 25.515C100.736 25.5029 100.75 25.4934 100.766 25.4872C100.782 25.4809 100.799 25.478 100.815 25.4786H101.753C101.902 25.4901 102.047 25.5319 102.18 25.6016C102.313 25.6714 102.431 25.7676 102.527 25.8848C102.639 26.0187 102.724 26.1748 102.775 26.3435C102.826 26.5122 102.844 26.6899 102.826 26.8656C102.841 27.0386 102.823 27.213 102.772 27.3786C102.72 27.5441 102.637 27.6973 102.527 27.8292C102.432 27.945 102.317 28.0405 102.186 28.1102C102.055 28.1799 101.913 28.2225 101.766 28.2354H100.815ZM100.942 27.9761H101.753C102.004 27.9396 102.23 27.8029 102.383 27.5957C102.536 27.3885 102.603 27.1276 102.569 26.8699V26.844C102.586 26.7145 102.577 26.5829 102.543 26.4569C102.51 26.3309 102.452 26.213 102.374 26.11C102.296 26.0071 102.198 25.9212 102.087 25.8573C101.976 25.7934 101.854 25.7528 101.728 25.7378H100.925L100.942 27.9761Z" fill="black"/>
<path id="Vector_19" d="M105.122 25.5692H105.16V25.6469H103.427V26.8179H104.689V26.8957H103.427V28.0667H105.16V28.1445H103.389C103.384 28.1452 103.379 28.1447 103.374 28.143C103.369 28.1413 103.365 28.1384 103.361 28.1347C103.357 28.1309 103.354 28.1263 103.353 28.1213C103.351 28.1162 103.351 28.1109 103.351 28.1056V25.6081C103.351 25.6028 103.351 25.5974 103.353 25.5924C103.354 25.5873 103.357 25.5827 103.361 25.579C103.365 25.5752 103.369 25.5724 103.374 25.5707C103.379 25.569 103.384 25.5684 103.389 25.5692H105.122Z" fill="black"/>
<path id="Vector_20" d="M105.248 28.2354H103.389C103.372 28.236 103.355 28.233 103.34 28.2268C103.324 28.2205 103.309 28.2111 103.297 28.199C103.285 28.1869 103.275 28.1724 103.269 28.1564C103.262 28.1404 103.259 28.1231 103.259 28.1057V25.6082C103.259 25.5908 103.262 25.5736 103.269 25.5576C103.275 25.5416 103.285 25.5271 103.297 25.515C103.309 25.5029 103.324 25.4934 103.34 25.4872C103.355 25.4809 103.372 25.478 103.389 25.4786H105.248V25.7378H103.515V26.7274H104.777V26.9866H103.515V27.9632H105.248V28.2354Z" fill="black"/>
<path id="Vector_21" d="M107.418 28.1446C107.408 28.1446 107.399 28.1405 107.391 28.1333C107.384 28.126 107.38 28.1161 107.38 28.1058V25.6082C107.38 25.5979 107.384 25.588 107.391 25.5807C107.399 25.5734 107.408 25.5693 107.418 25.5693H108.385C108.674 25.6336 108.932 25.7973 109.117 26.0331C109.302 26.269 109.402 26.5627 109.402 26.8656C109.402 27.1685 109.302 27.4623 109.117 27.6981C108.932 27.9339 108.674 28.0976 108.385 28.1619H107.418V28.1446ZM107.456 28.0669H108.36C108.497 28.0487 108.628 28.0032 108.748 27.9328C108.867 27.8624 108.971 27.7685 109.055 27.6566C109.139 27.5446 109.201 27.4168 109.237 27.2803C109.273 27.1438 109.282 27.0015 109.264 26.8613C109.299 26.5784 109.223 26.293 109.054 26.0671C108.885 25.8413 108.635 25.6934 108.36 25.6558H107.456V28.0669Z" fill="black"/>
<path id="Vector_22" d="M107.418 28.2354C107.401 28.236 107.384 28.233 107.368 28.2268C107.353 28.2205 107.338 28.2111 107.326 28.199C107.314 28.1869 107.304 28.1724 107.298 28.1564C107.291 28.1404 107.288 28.1231 107.288 28.1057V25.6082C107.288 25.5908 107.291 25.5736 107.298 25.5576C107.304 25.5416 107.314 25.5271 107.326 25.515C107.338 25.5029 107.353 25.4934 107.368 25.4872C107.384 25.4809 107.401 25.478 107.418 25.4786H108.36C108.509 25.4905 108.654 25.5326 108.786 25.6023C108.919 25.672 109.037 25.768 109.134 25.8848C109.245 26.0191 109.329 26.1753 109.38 26.344C109.43 26.5126 109.447 26.6902 109.428 26.8656C109.444 27.0383 109.427 27.2126 109.376 27.3781C109.326 27.5436 109.243 27.697 109.134 27.8292C108.942 28.062 108.668 28.2079 108.373 28.2354H107.418ZM107.544 27.9632H108.356C108.606 27.9257 108.831 27.7885 108.983 27.5814C109.135 27.3743 109.201 27.114 109.167 26.857V26.8311C109.201 26.5727 109.133 26.3113 108.98 26.1039C108.826 25.8966 108.599 25.7603 108.347 25.7249H107.544V27.9632Z" fill="black"/>
<path id="Vector_23" d="M109.983 25.6082V25.5693H110.068V28.1619H109.992V25.6082H109.983Z" fill="black"/>
<path id="Vector_24" d="M110.148 25.4785H109.891V28.2353H110.148V25.4785Z" fill="black"/>
<path id="Vector_25" d="M112.347 26.2347V26.2693H112.276V26.2347C112.231 26.0655 112.133 25.9161 111.997 25.8096C111.862 25.7031 111.696 25.6454 111.525 25.6454C111.354 25.6454 111.188 25.7031 111.053 25.8096C110.917 25.9161 110.819 26.0655 110.774 26.2347C110.774 26.818 112.431 26.818 112.427 27.4835C112.427 27.8335 112.006 28.1446 111.523 28.1446C111.039 28.1446 110.619 27.8378 110.619 27.4835V27.4446H110.694V27.4835C110.694 27.8075 111.073 28.0668 111.535 28.0668C111.998 28.0668 112.377 27.8032 112.377 27.4835C112.377 26.8872 110.728 26.8958 110.724 26.2347C110.762 26.0393 110.866 25.8637 111.016 25.7376C111.166 25.6114 111.354 25.5425 111.548 25.5425C111.742 25.5425 111.93 25.6114 112.08 25.7376C112.231 25.8637 112.334 26.0393 112.372 26.2347H112.347Z" fill="black"/>
<path id="Vector_26" d="M111.523 28.2354C110.976 28.2354 110.53 27.8984 110.53 27.4836V27.3539H110.787V27.4836C110.787 27.7515 111.123 27.9762 111.523 27.9762C111.922 27.9762 112.263 27.7471 112.263 27.4836C112.263 27.22 111.889 27.1163 111.527 26.9823C111.077 26.8138 110.61 26.6367 110.606 26.2348C110.651 26.0194 110.767 25.8265 110.934 25.688C111.1 25.5496 111.308 25.4741 111.523 25.4741C111.737 25.4741 111.945 25.5496 112.112 25.688C112.279 25.8265 112.394 26.0194 112.44 26.2348V26.3644H112.17V26.2348C112.17 25.9626 111.876 25.7379 111.51 25.7379C111.144 25.7379 110.854 25.9626 110.854 26.2348C110.854 26.507 111.224 26.5891 111.582 26.7231C112.036 26.8959 112.511 27.0731 112.507 27.4836C112.503 27.8941 112.065 28.2354 111.523 28.2354Z" fill="black"/>
<path id="Vector_27" d="M113.676 25.5693H114.614V25.6471H113.676V28.1446H113.6V25.6471H112.654V25.5693H113.676Z" fill="black"/>
<path id="Vector_28" d="M113.769 28.2353H113.508V25.7378H112.562V25.4785H114.702V25.7378H113.769V28.2353Z" fill="black"/>
<path id="Vector_29" d="M114.837 28.123H114.752L114.778 28.0712L115.867 25.5736C115.867 25.5477 115.926 25.5477 115.934 25.5736L117.028 28.0712L117.053 28.123H116.969L115.909 25.7033L114.837 28.123Z" fill="black"/>
<path id="Vector_30" d="M117.179 28.2354H116.893L116.868 28.149L115.892 25.9323L114.896 28.2354H114.605L114.685 28.0539L115.775 25.5564C115.786 25.5344 115.803 25.5159 115.824 25.503C115.844 25.4901 115.868 25.4831 115.892 25.4829C115.916 25.4824 115.94 25.4891 115.96 25.5022C115.98 25.5152 115.996 25.5341 116.006 25.5564L117.179 28.2354Z" fill="black"/>
<path id="Vector_31" d="M117.553 28.1055V28.1444H117.478V25.608C117.481 25.6016 117.486 25.5963 117.491 25.5926C117.497 25.5889 117.504 25.5869 117.511 25.5869C117.518 25.5869 117.525 25.5889 117.531 25.5926C117.537 25.5963 117.542 25.6016 117.545 25.608L119.282 28.0105V25.5907H119.353V28.1271C119.353 28.1617 119.303 28.1747 119.282 28.1271L117.549 25.7247L117.553 28.1055Z" fill="black"/>
<path id="Vector_32" d="M119.37 28.2698L119.345 28.2309C119.321 28.2358 119.296 28.234 119.273 28.2256C119.25 28.2173 119.23 28.2027 119.215 28.1834L117.642 26.0229V28.2482H117.385V25.608C117.386 25.5832 117.393 25.559 117.406 25.5383C117.42 25.5176 117.439 25.5013 117.461 25.4914V25.4438L117.49 25.4827C117.514 25.4775 117.539 25.4797 117.561 25.4889C117.584 25.4982 117.603 25.5141 117.617 25.5346L119.189 27.6951V25.4784H119.446V28.1056C119.446 28.1306 119.439 28.155 119.425 28.1758C119.412 28.1966 119.393 28.2128 119.37 28.2222V28.2698Z" fill="black"/>
<path id="Vector_33" d="M121.923 27.5611H122.011L121.982 27.6173C121.853 27.772 121.689 27.8914 121.504 27.9648C121.319 28.0382 121.119 28.0633 120.922 28.038C120.726 28.0126 120.538 27.9375 120.377 27.8193C120.215 27.7012 120.085 27.5438 119.997 27.3612C119.909 27.1785 119.867 26.9764 119.874 26.7728C119.881 26.5692 119.937 26.3706 120.037 26.1948C120.137 26.0189 120.278 25.8713 120.447 25.7651C120.616 25.6589 120.808 25.5976 121.006 25.5864C121.199 25.5873 121.389 25.638 121.558 25.7339C121.727 25.8298 121.87 25.9678 121.973 26.1352L121.999 26.1957H121.915V26.1741C121.819 26.0131 121.685 25.8801 121.525 25.7878C121.366 25.6954 121.185 25.6469 121.002 25.6469C120.714 25.6824 120.448 25.8251 120.256 26.048C120.063 26.271 119.957 26.5587 119.957 26.8568C119.957 27.1549 120.063 27.4426 120.256 27.6656C120.448 27.8885 120.714 28.0312 121.002 28.0667C121.184 28.0684 121.364 28.023 121.525 27.9347C121.686 27.8463 121.823 27.7179 121.923 27.5611Z" fill="black"/>
<path id="Vector_34" d="M121.002 28.2353C120.665 28.2078 120.35 28.0507 120.12 27.7952C119.89 27.5398 119.763 27.2047 119.763 26.8569C119.763 26.5091 119.89 26.1741 120.12 25.9186C120.35 25.6631 120.665 25.506 121.002 25.4785C121.212 25.4791 121.418 25.5346 121.601 25.6396C121.785 25.7447 121.939 25.896 122.049 26.0791L122.138 26.2693H121.86L121.818 26.2001C121.731 26.0587 121.61 25.9422 121.468 25.8614C121.325 25.7805 121.165 25.738 121.002 25.7378C120.746 25.7814 120.512 25.9172 120.344 26.1209C120.176 26.3247 120.084 26.5832 120.084 26.8504C120.084 27.1176 120.176 27.3761 120.344 27.5799C120.512 27.7837 120.746 27.9195 121.002 27.9631C121.166 27.9677 121.329 27.9307 121.475 27.8554C121.622 27.78 121.749 27.6686 121.843 27.531L121.885 27.4618H122.176L122.075 27.6563C121.956 27.8356 121.796 27.9821 121.609 28.0831C121.422 28.184 121.213 28.2363 121.002 28.2353Z" fill="black"/>
<path id="Vector_35" d="M122.566 25.6082V25.5693H122.643V28.1619H122.566V25.6082Z" fill="black"/>
<path id="Vector_36" d="M122.731 25.4785H122.474V28.2353H122.731V25.4785Z" fill="black"/>
<path id="Vector_37" d="M123.198 28.1227H123.105L123.126 28.0708L124.219 25.5733C124.223 25.567 124.227 25.5616 124.233 25.5579C124.239 25.5542 124.246 25.5522 124.253 25.5522C124.26 25.5522 124.267 25.5542 124.273 25.5579C124.279 25.5616 124.284 25.567 124.287 25.5733L125.38 28.0708L125.401 28.1227H125.317L124.257 25.7029L123.198 28.1227Z" fill="black"/>
<path id="Vector_38" d="M125.544 28.2354H125.258L125.229 28.149L124.257 25.9323L123.256 28.2354H122.97L123.046 28.0539L124.139 25.5564C124.149 25.5341 124.165 25.5152 124.185 25.5022C124.206 25.4891 124.229 25.4824 124.253 25.4829C124.277 25.483 124.3 25.4899 124.32 25.5029C124.34 25.5159 124.356 25.5344 124.366 25.5564L125.544 28.2354Z" fill="black"/>
<path id="Vector_39" d="M35.6839 1.5791H34.0059V6.397H35.6839V1.5791Z" fill="#2C3179"/>
<path id="Vector_40" d="M35.6839 6.39697H34.0059V11.2149H35.6839V6.39697Z" fill="white"/>
<path id="Vector_41" d="M35.6839 23.9575H34.0059V28.7754H35.6839V23.9575Z" fill="#2C3179"/>
<path id="Vector_42" d="M35.6839 19.1396H34.0059V23.9576H35.6839V19.1396Z" fill="white"/>
<path id="Vector_43" d="M35.6839 11.2104H34.0059V19.1395H35.6839V11.2104Z" fill="#FF0000"/>
<path id="Vector_44" d="M42.8589 12.1005L44.6379 12.1653C44.7071 12.1671 44.7751 12.1844 44.8372 12.2161C44.8992 12.2477 44.9538 12.2929 44.997 12.3484C45.0403 12.404 45.0712 12.4686 45.0876 12.5377C45.1041 12.6069 45.1056 12.6789 45.0921 12.7487L43.4982 21.2826C43.4853 21.353 43.4875 21.4255 43.5047 21.4949C43.5219 21.5643 43.5537 21.6291 43.5977 21.6846C43.6417 21.7401 43.697 21.7851 43.7597 21.8164C43.8225 21.8478 43.8911 21.8647 43.9608 21.8659L47.2832 21.9048C47.3582 21.9058 47.432 21.9249 47.4985 21.9606C47.5651 21.9962 47.6225 22.0474 47.6663 22.1101C47.7101 22.1727 47.7389 22.245 47.7505 22.3212C47.7622 22.3974 47.7562 22.4753 47.7331 22.5487L47.2579 24.0178C47.2267 24.1162 47.1659 24.2018 47.0843 24.2624C47.0027 24.323 46.9044 24.3553 46.8037 24.3548H40.8276C40.7578 24.3548 40.6887 24.339 40.6255 24.3084C40.5623 24.2778 40.5064 24.2333 40.4618 24.178C40.4172 24.1228 40.3851 24.058 40.3676 23.9885C40.3501 23.919 40.3478 23.8464 40.3608 23.7758L42.3585 12.5024C42.3798 12.3842 42.4424 12.2781 42.5346 12.2041C42.6268 12.1301 42.7421 12.0932 42.8589 12.1005Z" fill="black"/>
<path id="Vector_45" d="M56.4845 15.5313C56.4845 15.5313 51.9341 14.3517 50.0668 17.4584C48.1996 20.5652 48.4267 23.9831 51.2486 24.493C52.178 24.6615 53.1621 24.0091 54.0663 23.0584V23.577C54.0641 23.6518 54.0764 23.7264 54.1026 23.7962C54.1288 23.8661 54.1684 23.9299 54.2189 23.9838C54.2695 24.0378 54.33 24.0808 54.397 24.1104C54.4639 24.1399 54.536 24.1554 54.6088 24.156H56.0766C56.2117 24.1533 56.3411 24.0992 56.4397 24.0043C56.5384 23.9093 56.5993 23.7802 56.6107 23.6418C56.678 22.2634 56.9303 18.5819 57.7504 16.901C58.2677 15.5097 57.1406 15.6566 56.4845 15.5313ZM52.178 21.9696C50.9164 21.0103 51.7575 18.8628 53.221 17.7523C53.4224 17.6168 53.6493 17.5264 53.887 17.487C54.1246 17.4475 54.3677 17.4599 54.6004 17.5233C55.37 17.7523 53.4565 22.9288 52.178 21.9696Z" fill="black"/>
<path id="Vector_46" d="M119.109 15.5313C119.109 15.5313 114.563 14.3517 112.692 17.4584C110.82 20.5652 111.052 23.9831 113.878 24.493C114.803 24.6615 115.787 24.0091 116.691 23.0584V23.577C116.688 23.6507 116.699 23.7243 116.724 23.7936C116.748 23.8629 116.786 23.9263 116.835 23.9803C116.884 24.0343 116.943 24.0776 117.009 24.1078C117.074 24.1379 117.145 24.1543 117.217 24.156H118.685C118.823 24.1586 118.957 24.1068 119.06 24.0113C119.162 23.9157 119.225 23.7835 119.236 23.6418C119.303 22.2634 119.555 18.5819 120.375 16.901C120.893 15.5097 119.77 15.6566 119.109 15.5313ZM114.803 21.9696C113.541 21.0103 114.403 18.8628 115.85 17.7523C116.051 17.6167 116.277 17.5262 116.514 17.4867C116.751 17.4472 116.993 17.4597 117.225 17.5233C117.995 17.7523 116.086 22.9288 114.803 21.9696Z" fill="black"/>
<path id="Vector_47" d="M54.0244 13.1764C55.7402 12.0875 60.4799 9.25728 64.0798 8.82518C64.1775 8.81179 64.2769 8.82165 64.3703 8.85398C64.4637 8.88631 64.5487 8.94025 64.6186 9.01165C64.6885 9.08305 64.7415 9.17 64.7735 9.26578C64.8055 9.36156 64.8156 9.46361 64.8032 9.56407L63.121 23.7758C63.1115 23.8679 63.1211 23.961 63.1489 24.049C63.1767 24.1371 63.2222 24.2182 63.2825 24.287C63.3427 24.3559 63.4164 24.4109 63.4987 24.4487C63.581 24.4864 63.6701 24.5059 63.7602 24.506H64.5256C64.6743 24.5064 64.8185 24.4542 64.9342 24.3582C65.0498 24.2622 65.1298 24.1283 65.1607 23.9789L68.2139 8.95049C68.2446 8.805 68.3217 8.67419 68.4329 8.57873C68.5441 8.48326 68.6831 8.42858 68.8279 8.42333C72.8042 8.36062 76.769 8.87855 80.6034 9.9616C80.6888 9.98738 80.7785 9.99468 80.8668 9.98303C80.955 9.97139 81.04 9.94105 81.1163 9.89394C81.1926 9.84684 81.2585 9.78398 81.31 9.70935C81.3614 9.63472 81.3972 9.54994 81.4151 9.46037L81.7179 7.9437C81.7505 7.77969 81.7212 7.6091 81.6362 7.46635C81.5511 7.3236 81.4165 7.21933 81.2595 7.17457C78.1852 6.28876 63.4532 2.71531 53.2547 12.1048C53.1571 12.195 53.0887 12.3137 53.0586 12.445C53.0285 12.5763 53.0383 12.7139 53.0865 12.8394C53.1187 12.9315 53.1704 13.015 53.238 13.084C53.3056 13.1529 53.3873 13.2054 53.4772 13.2377C53.5671 13.27 53.6629 13.2813 53.7575 13.2707C53.8522 13.2601 53.9434 13.2279 54.0244 13.1764Z" fill="black"/>
<path id="Vector_48" d="M71.3766 15.6178C69.6944 16.2789 67.844 17.7178 67.8734 20.3061C67.9028 22.8944 68.5925 24.8431 72.8822 24.2598C73.5369 24.1853 74.1644 23.9496 74.7116 23.5728C74.7788 23.5273 74.8294 23.4602 74.8553 23.3819C74.8812 23.3037 74.8809 23.2188 74.8546 23.1407L74.5055 22.0043C74.4915 21.9563 74.4679 21.9118 74.4363 21.8737C74.4047 21.8355 74.3657 21.8045 74.3218 21.7826C74.278 21.7607 74.2302 21.7483 74.1815 21.7463C74.1328 21.7443 74.0842 21.7527 74.0387 21.7709C73.0841 22.1468 70.4977 22.9678 70.4808 20.9413C70.4808 20.9413 75.3971 21.4382 75.7378 18.3962C76.0784 15.3543 73.0841 14.9567 71.3766 15.6178ZM73.206 18.1456C73.0084 19.066 71.3346 18.8283 70.9224 18.8067C70.5103 18.7851 70.8173 18.3746 70.8173 18.3746C70.8173 18.3746 70.9224 18.111 71.7635 17.5104C72.1757 17.2425 73.4079 17.2296 73.2102 18.1456H73.206Z" fill="black"/>
<path id="Vector_49" d="M77.9538 15.6484L79.636 15.6224C79.6788 15.6213 79.7204 15.6373 79.7518 15.6672C79.7833 15.6971 79.8021 15.7384 79.8043 15.7823C79.8043 16.0675 79.8715 16.6465 79.9641 16.6465C80.0551 16.6707 80.1506 16.6707 80.2416 16.6465C80.4513 16.2847 80.7411 15.9787 81.0875 15.7535C81.4339 15.5282 81.827 15.3901 82.2351 15.3502C83.6061 15.2465 82.6094 16.5169 82.6556 17.2601C82.7019 18.0033 81.8902 18.1589 81.4697 18.2021C81.0491 18.2453 79.9052 18.6342 79.6318 20.6305C79.481 21.7535 79.2576 22.865 78.9631 23.9576C78.9524 23.9926 78.9312 24.0232 78.9025 24.0449C78.8737 24.0667 78.839 24.0785 78.8033 24.0786H76.5323C76.5079 24.0784 76.4838 24.0727 76.4617 24.0619C76.4396 24.0511 76.4201 24.0355 76.4045 24.0161C76.3889 23.9968 76.3776 23.9742 76.3713 23.9499C76.3651 23.9256 76.364 23.9003 76.3683 23.8755L77.8024 15.791C77.8081 15.753 77.8262 15.7182 77.8537 15.6923C77.8812 15.6664 77.9165 15.6509 77.9538 15.6484Z" fill="black"/>
<path id="Vector_50" d="M84.0436 15.9549L82.6138 23.5944C82.6026 23.6531 82.6042 23.7137 82.6185 23.7717C82.6328 23.8297 82.6593 23.8838 82.6963 23.93C82.7333 23.9762 82.7797 24.0135 82.8323 24.0392C82.8849 24.0648 82.9424 24.0782 83.0007 24.0784H84.6198C84.7122 24.0788 84.8016 24.0456 84.8725 23.9847C84.9433 23.9238 84.9908 23.8391 85.0067 23.7456C85.2212 22.5098 86.0329 18.245 87.0086 17.7524C88.1483 17.1777 88.6067 17.8172 88.3375 19.1395C88.1272 20.1635 87.6941 22.5703 87.4964 23.5987C87.4852 23.6572 87.4867 23.7176 87.501 23.7754C87.5153 23.8332 87.5419 23.887 87.579 23.933C87.616 23.9789 87.6626 24.0157 87.7152 24.0409C87.7678 24.066 87.8253 24.0788 87.8833 24.0784H89.6707C89.7597 24.0778 89.846 24.0463 89.9154 23.989C89.9849 23.9318 90.0335 23.8521 90.0534 23.7629C90.3057 22.6438 91.1468 18.8975 91.273 18.6037C91.3992 18.3098 92.1141 17.3463 92.808 17.6012C93.5019 17.8561 93.4725 18.2623 93.3085 19.308C93.1781 20.1247 92.7954 22.5703 92.6314 23.629C92.626 23.6862 92.6325 23.744 92.6505 23.7985C92.6685 23.8529 92.6975 23.9029 92.7357 23.9449C92.7739 23.987 92.8203 24.0203 92.8719 24.0425C92.9235 24.0648 92.9792 24.0755 93.0351 24.074H94.6669C94.7603 24.0744 94.8509 24.0408 94.9225 23.9791C94.9941 23.9174 95.0421 23.8316 95.058 23.737L96.101 17.4284C96.101 17.4284 96.4332 15.3802 93.6113 15.337C91.8029 15.337 91.3361 16.3654 90.8903 16.2963C90.6001 16.2963 90.4193 15.3716 89.2964 15.2679C88.1735 15.1642 86.9665 15.5919 86.5712 16.2963C86.5712 16.2963 86.3651 15.5055 86.2179 15.4882C86.0707 15.471 85.2338 15.4537 84.6535 15.4407C84.5092 15.4392 84.3691 15.4898 84.2575 15.5839C84.146 15.6779 84.0703 15.8092 84.0436 15.9549Z" fill="black"/>
<path id="Vector_51" d="M98.927 15.6138H100.395C100.469 15.6132 100.542 15.6295 100.609 15.6613C100.677 15.6931 100.736 15.7397 100.784 15.7979C100.832 15.856 100.867 15.9242 100.886 15.9977C100.905 16.0712 100.908 16.1481 100.895 16.223L99.6336 23.6465C99.6136 23.7678 99.5523 23.8779 99.4606 23.9571C99.369 24.0362 99.2529 24.0793 99.1331 24.0786H97.4761C97.4057 24.071 97.3377 24.0484 97.2763 24.0122C97.2149 23.9761 97.1615 23.9271 97.1196 23.8686C97.0776 23.81 97.048 23.7431 97.0326 23.6721C97.0173 23.6012 97.0165 23.5277 97.0303 23.4564L98.4518 16.0329C98.4735 15.9183 98.5322 15.8145 98.6185 15.7384C98.7047 15.6624 98.8135 15.6184 98.927 15.6138Z" fill="black"/>
<path id="Vector_52" d="M100.248 14.6156C101.051 14.6156 101.703 13.9463 101.703 13.1206C101.703 12.2949 101.051 11.6255 100.248 11.6255C99.444 11.6255 98.7925 12.2949 98.7925 13.1206C98.7925 13.9463 99.444 14.6156 100.248 14.6156Z" fill="black"/>
<path id="Vector_53" d="M102.884 16.102L101.623 23.3742C101.609 23.4599 101.613 23.5477 101.635 23.6315C101.658 23.7154 101.697 23.7932 101.752 23.8598C101.806 23.9263 101.874 23.98 101.95 24.017C102.027 24.054 102.11 24.0735 102.195 24.0742H103.675C103.815 24.0736 103.95 24.0214 104.056 23.927C104.162 23.8327 104.231 23.7024 104.251 23.56C104.441 22.1384 104.987 18.3748 106.14 17.8131C107.401 17.1866 107.868 17.9816 107.633 19.3773C107.464 20.3668 107.136 22.3285 106.96 23.3742C106.945 23.461 106.95 23.5499 106.973 23.6347C106.996 23.7194 107.037 23.798 107.093 23.8648C107.148 23.9315 107.218 23.9849 107.296 24.0211C107.374 24.0573 107.459 24.0754 107.544 24.0742H108.894C109.021 24.0752 109.144 24.0335 109.245 23.9554C109.346 23.8773 109.419 23.7672 109.454 23.6421C109.824 22.2464 110.888 17.9168 110.206 16.3353C109.39 14.4471 105.887 15.4409 105.555 16.4217V16.2316C105.558 16.1515 105.545 16.0716 105.517 15.9968C105.489 15.9219 105.447 15.8536 105.393 15.7959C105.338 15.7383 105.274 15.6924 105.202 15.6611C105.13 15.6298 105.053 15.6137 104.975 15.6137H103.461C103.324 15.6124 103.191 15.6607 103.086 15.75C102.981 15.8393 102.909 15.9639 102.884 16.102Z" fill="black"/>
<path id="Vector_54" d="M123.042 12.1484L120.939 23.4262C120.925 23.5046 120.928 23.5853 120.947 23.6626C120.966 23.7399 121.002 23.8119 121.051 23.8736C121.101 23.9353 121.162 23.9852 121.232 24.0199C121.302 24.0545 121.379 24.0731 121.456 24.0743H122.832C122.976 24.0742 123.117 24.0224 123.229 23.9279C123.341 23.8333 123.417 23.7018 123.446 23.5558L125.695 12.1354C125.707 12.0725 125.704 12.0079 125.688 11.9461C125.672 11.8843 125.643 11.827 125.603 11.7782C125.562 11.7295 125.512 11.6905 125.455 11.6641C125.399 11.6377 125.337 11.6245 125.275 11.6255H123.635C123.492 11.6292 123.356 11.6832 123.248 11.7785C123.14 11.8738 123.067 12.0044 123.042 12.1484Z" fill="black"/>
<path id="Vector_55" d="M16.0819 29.8339C7.72545 29.7951 0.941895 23.2358 0.941895 15.2204C0.946683 13.2765 1.34297 11.3548 2.10583 9.57601C2.86869 7.79722 3.9816 6.1999 5.37454 4.88455C8.27875 2.11065 12.1041 0.580559 16.0693 0.606777C24.4173 0.606777 31.2092 7.16604 31.2092 15.2204C31.2092 23.2747 24.4215 29.7821 16.0693 29.8339H16.0819ZM16.0819 1.0648C12.2273 1.03303 8.50729 2.51891 5.68575 5.21727C4.33636 6.4897 3.25789 8.0353 2.5182 9.75683C1.7785 11.4784 1.39359 13.3385 1.38768 15.2204C1.38768 22.9981 7.97778 29.3327 16.0819 29.3759C24.1776 29.3241 30.7592 22.9765 30.7592 15.2204C30.7592 7.46418 24.1734 1.06912 16.0735 1.0648H16.0819Z" fill="black" stroke="black" stroke-width="0.59" stroke-miterlimit="10"/>
<path id="Vector_56" d="M26.1629 10.8734L25.0736 10.679C25.0736 11.4913 25.0736 12.2043 25.0736 12.9172C25.1283 16.4172 25.1956 19.9172 25.2503 23.4172C25.2503 24.3419 25.0905 24.5018 24.1736 24.5277C24.0601 24.5277 23.9466 24.5277 23.8036 24.558C23.7797 24.6749 23.7629 24.7932 23.7531 24.9123C23.7279 25.7246 23.7068 25.7506 22.9372 25.7765H21.255C20.5863 25.7765 20.5064 25.6944 20.498 25.0246C20.498 24.8907 20.498 24.7567 20.4728 24.5925H11.9439C11.9228 24.6732 11.9087 24.7556 11.9019 24.8388C11.9019 25.7851 11.9019 25.7851 10.9472 25.7765H9.29862C8.72246 25.7765 8.65097 25.6858 8.65097 25.0808V24.5709C8.41125 24.5709 8.23041 24.545 8.02434 24.5407C7.40192 24.5407 7.14118 24.2814 7.14118 23.6376C7.14118 21.8271 7.10333 20.0166 7.14118 18.2061C7.19164 15.9376 7.3094 13.6691 7.39771 11.4006C7.39771 11.1975 7.39771 10.9944 7.39771 10.666L6.22437 10.8691C6.33936 11.2402 6.42515 11.6203 6.4809 12.0055C6.51455 12.7055 6.4809 13.4055 6.4809 14.1055C6.4809 14.6197 6.27063 14.8444 5.81222 14.8574C5.35382 14.8703 5.09728 14.6586 5.08887 14.1358C5.08887 13.3493 5.08887 12.5629 5.08887 11.7808C5.08887 10.9987 6.09399 10.0222 7.0108 9.80612C7.15379 9.77156 7.30099 9.74563 7.47341 9.71106C7.55332 8.74316 7.64164 7.79255 7.69631 6.84625C7.69631 6.67431 7.73828 6.50512 7.81836 6.35415C7.89844 6.20318 8.01408 6.07524 8.15471 5.98205C9.02417 5.4089 10.0067 5.04141 11.0313 4.90613C14.8149 4.16468 18.7088 4.26043 22.4536 5.18699C23.0939 5.38079 23.7063 5.66124 24.2746 6.02094C24.3823 6.10394 24.4728 6.20825 24.5407 6.32773C24.6086 6.44721 24.6525 6.57943 24.6699 6.71662C24.7877 7.69316 24.8465 8.68267 24.9306 9.68514L25.3512 9.78452C25.9086 9.90681 26.408 10.2229 26.765 10.6794C27.122 11.136 27.3148 11.7051 27.311 12.2907C27.311 12.9043 27.311 13.5179 27.311 14.1358C27.311 14.6413 27.0839 14.8574 26.6171 14.8574C26.1503 14.8574 25.919 14.637 25.9147 14.1358C25.9147 13.3709 25.8937 12.5975 25.9147 11.8327C25.9642 11.5048 26.0474 11.1832 26.1629 10.8734Z" fill="black"/>
<path id="Vector_57" d="M24.1186 18.457C18.8708 19.2374 13.541 19.2374 8.29315 18.457C8.29315 18.081 8.23427 17.731 8.24689 17.3767C8.331 14.3909 8.41511 11.4008 8.52025 8.41498C8.54128 7.76683 8.78941 7.55078 9.44127 7.55078C13.944 7.55078 18.451 7.55078 22.9621 7.55078C23.6014 7.55078 23.8789 7.79708 23.8999 8.41498C24.0009 11.4886 24.0948 14.5609 24.1817 17.6316C24.1733 17.9082 24.1355 18.1761 24.1186 18.457Z" fill="white"/>
<path id="Vector_58" d="M19.1353 6.71671H13.2476V5.42041H19.1353V6.71671Z" fill="white"/>
<path id="Vector_59" d="M20.4181 21.957L24.6237 20.0601C24.6573 20.7644 24.6825 21.3996 24.7162 22.1557C24.1652 22.2465 23.6353 22.3545 23.1012 22.4107C22.4452 22.4798 21.7807 22.5273 21.1162 22.536C20.7924 22.5403 20.4097 22.5187 20.4181 21.957Z" fill="white"/>
<path id="Vector_60" d="M13.7856 22.7432H18.622V23.8104H13.7856V22.7432Z" fill="white"/>
<path id="Vector_61" d="M11.3844 21.935C11.5063 22.3671 11.2414 22.5184 10.9428 22.5097C9.90822 22.4838 8.87365 22.406 7.82227 22.3499V20.2412L11.3844 21.935Z" fill="white"/>
</g>
<defs>
<clipPath id="clip0_480_39435">
<rect width="125.625" height="30" fill="white" transform="translate(0.302734)"/>
</clipPath>
</defs>
</svg>
