<svg version="1.2" xmlns="http://www.w3.org/2000/svg" viewBox="0 0 66 45" width="66" height="45">
	<title>formapgto-master-svg</title>
	<style>
		.s0 { fill: #231f20 } 
		.s1 { fill: #ff5f00 } 
		.s2 { fill: #eb001b } 
		.s3 { fill: #f79e1b } 
	</style>
	<g id="Layer">
		<path id="Layer" fill-rule="evenodd" class="s0" d="m18.8 38.6v-2c0-0.5-0.2-0.9-0.7-0.9h-0.2q-0.1 0.1-0.3 0.1-0.1 0.1-0.2 0.2-0.1 0.2-0.1 0.3-0.1 0.2-0.1 0.3v2h-0.7v-2c0-0.5-0.3-0.9-0.8-0.9h-0.1q-0.2 0.1-0.3 0.1-0.2 0.1-0.3 0.2 0 0.2-0.1 0.3 0 0.2 0 0.3v2h-0.8v-3.5h0.8v0.4q0.1-0.1 0.2-0.2 0.1-0.1 0.2-0.2 0.2 0 0.3-0.1 0.2 0 0.3 0 0.2 0 0.3 0 0.2 0.1 0.4 0.2 0.1 0 0.2 0.2 0.2 0.1 0.3 0.2 0.1-0.1 0.2-0.2 0.1-0.2 0.3-0.2 0.2-0.1 0.3-0.2 0.2 0 0.4 0h0.2q0.2 0 0.5 0.1 0.2 0.2 0.4 0.4 0.1 0.1 0.2 0.4 0.1 0.2 0.1 0.5v2.2zm12-2.8h-1.2v1.5c0 0.4 0.1 0.6 0.5 0.6q0.1 0 0.2 0 0.1 0 0.1 0 0.1-0.1 0.2-0.1 0.1 0 0.2-0.1l0.2 0.7q-0.1 0-0.2 0.1-0.2 0-0.3 0.1-0.1 0-0.2 0-0.1 0-0.3 0c-0.8 0-1.2-0.4-1.2-1.2v-1.6h-0.6v-0.7h0.6v-1.1h0.8v1.1h1.2zm7-0.7l-0.2 0.7q-0.1 0-0.2 0 0 0-0.1-0.1 0 0-0.1 0-0.1 0-0.1 0c-0.5 0-0.7 0.3-0.7 0.9v2h-0.8v-3.5h0.8v0.4q0-0.1 0.1-0.2 0.1-0.1 0.2-0.1 0.2-0.1 0.3-0.1 0.1-0.1 0.3-0.1c0.1 0 0.3 0.1 0.5 0.1zm-10.6 0.9q-0.1-0.1-0.2-0.1-0.2-0.1-0.3-0.1-0.1 0-0.3-0.1-0.1 0-0.3 0c-0.4 0-0.6 0.2-0.6 0.4 0 0.2 0.2 0.3 0.6 0.3l0.3 0.1c0.7 0.1 1.2 0.4 1.2 1 0 0.7-0.6 1.1-1.6 1.1q-0.2 0-0.4 0-0.2 0-0.4-0.1-0.1 0-0.3-0.1-0.2-0.1-0.4-0.2l0.4-0.6q0.1 0.1 0.3 0.2 0.1 0.1 0.3 0.1 0.1 0.1 0.3 0.1 0.1 0 0.3 0c0.5 0 0.8-0.2 0.8-0.4q0-0.3-0.7-0.4h-0.3c-0.8-0.1-1.2-0.5-1.2-1 0-0.7 0.6-1.2 1.4-1.2q0.2 0 0.4 0 0.2 0.1 0.4 0.1 0.1 0.1 0.3 0.1 0.2 0.1 0.3 0.2zm21-0.9l-0.2 0.7q0 0-0.1 0-0.1-0.1-0.1-0.1-0.1 0-0.1 0-0.1 0-0.1 0c-0.5 0-0.8 0.3-0.8 0.9v2h-0.7v-3.5h0.7v0.4q0.1-0.1 0.2-0.2 0.1-0.1 0.2-0.1 0.1-0.1 0.3-0.2 0.1 0 0.2 0c0.2 0 0.4 0.1 0.5 0.1zm-10.2 1.6q0.1-0.5 0.4-0.9 0.4-0.4 0.8-0.6 0.5-0.2 1-0.1 0.5 0 0.9 0.4l-0.3 0.6q-0.1-0.1-0.2-0.2-0.1 0-0.3-0.1-0.1 0-0.2 0-0.1-0.1-0.2-0.1c-0.3 0-0.6 0.2-0.8 0.4-0.2 0.2-0.3 0.5-0.3 0.7 0 0.3 0.1 0.6 0.3 0.8 0.2 0.2 0.5 0.3 0.8 0.3q0.1 0 0.2 0 0.1 0 0.2-0.1 0.1 0 0.2-0.1 0.2 0 0.3-0.1l0.3 0.6q-0.1 0.1-0.3 0.2-0.1 0.1-0.3 0.2-0.1 0-0.3 0-0.1 0-0.3 0h-0.2q-0.3 0-0.7-0.1-0.3-0.2-0.5-0.4-0.2-0.3-0.3-0.6-0.2-0.3-0.2-0.7c0 0 0-0.1 0-0.1zm7.1 1.9h-0.8v-0.4q-0.1 0.1-0.2 0.2-0.1 0.1-0.3 0.2-0.1 0-0.3 0-0.1 0.1-0.3 0.1c-0.5-0.1-0.9-0.3-1.2-0.6-0.3-0.3-0.5-0.8-0.5-1.3 0-0.4 0.2-0.9 0.5-1.2 0.3-0.4 0.7-0.6 1.2-0.6q0.2 0 0.3 0 0.2 0.1 0.3 0.1 0.2 0.1 0.3 0.2 0.1 0.1 0.2 0.2v-0.4h0.8zm-2.8-1.7q0 0.2 0.1 0.4 0 0.2 0.2 0.4 0.1 0.1 0.3 0.2 0.2 0 0.4 0 0.2 0 0.4 0 0.2-0.1 0.3-0.2 0.2-0.2 0.3-0.4 0.1-0.1 0.1-0.3c0-0.3-0.1-0.6-0.3-0.8-0.2-0.2-0.4-0.3-0.7-0.4-0.3 0-0.6 0.1-0.8 0.3q-0.3 0.3-0.3 0.7zm-8.4-1.7q0.3 0.1 0.5 0.4 0.3 0.2 0.4 0.6 0 0.3 0 0.7v0.3h-2.6q0.1 0.2 0.1 0.3 0.1 0.2 0.3 0.3 0.1 0.1 0.3 0.2 0.2 0 0.4 0 0.1 0 0.2 0 0.2-0.1 0.3-0.1 0.1 0 0.3-0.1 0.1-0.1 0.2-0.2l0.3 0.6q-0.1 0.1-0.3 0.2-0.1 0.1-0.3 0.2-0.2 0-0.4 0-0.2 0.1-0.4 0.1-0.3-0.1-0.6-0.2-0.3-0.1-0.6-0.4-0.2-0.2-0.4-0.5-0.1-0.3-0.1-0.7-0.1-0.3 0.1-0.7 0.1-0.3 0.3-0.6 0.3-0.3 0.6-0.4 0.3-0.2 0.7-0.2 0.4 0 0.7 0.2zm-1 0.5q-0.2 0.1-0.3 0.2-0.2 0.1-0.2 0.3-0.1 0.1-0.1 0.3h1.8q0-0.2-0.1-0.3-0.1-0.2-0.2-0.3-0.1-0.1-0.3-0.2-0.1-0.1-0.3 0-0.2-0.1-0.3 0zm19.2 1.1v1.8h-0.8v-0.5q-0.1 0.2-0.2 0.3-0.1 0.1-0.3 0.1-0.1 0.1-0.3 0.1-0.1 0.1-0.3 0.1c-0.5-0.1-0.9-0.3-1.2-0.6-0.3-0.3-0.5-0.8-0.5-1.3 0-0.4 0.2-0.9 0.5-1.2 0.3-0.4 0.7-0.6 1.2-0.6q0.2 0 0.3 0 0.2 0.1 0.3 0.1 0.2 0.1 0.3 0.2 0.1 0.1 0.2 0.2v-1.8h0.7v3.1zm1.3 1.2q0 0 0 0 0 0 0 0 0 0 0.1 0.1 0 0 0 0 0.1 0 0.1 0 0.1 0.1 0.1 0.2 0 0 0 0 0 0 0 0.1 0 0 0 0 0 0.1 0 0.1 0 0.1-0.1 0.1 0 0.1-0.1 0.1 0 0-0.1 0-0.1 0-0.1 0-0.1 0-0.1 0-0.1-0.1-0.1-0.1-0.1 0-0.1-0.1 0 0 0-0.1 0 0 0 0 0-0.1 0-0.1 0 0 0 0 0-0.1 0.1-0.2 0.1 0 0.1 0 0 0 0 0 0.1-0.1 0.1-0.1 0 0 0 0 0 0 0.1 0zm0 0.7q0 0 0 0 0-0.1 0-0.1 0 0 0 0 0.1 0 0.1 0 0 0 0 0 0 0 0 0 0 0 0 0 0 0 0-0.1 0.1 0 0.1 0 0-0.1 0-0.1 0-0.1 0-0.1 0-0.1-0.1-0.1v-0.1c-0.1 0-0.1 0-0.1 0q-0.1 0-0.1 0 0 0 0 0 0 0 0 0 0 0-0.1 0 0 0 0 0 0 0 0 0 0 0 0 0.1 0 0 0 0-0.1 0-0.1 0.1 0 0 0 0.1 0 0 0 0.1 0 0 0.1 0v0.1c0.1 0 0.1 0.1 0.2 0.1zm0-0.5q0 0 0 0 0 0 0 0 0.1 0 0.1 0 0 0 0 0.1c0 0 0 0 0 0 0 0.1 0 0.1 0 0.1 0 0 0 0-0.1 0l0.1 0.1-0.1-0.1h-0.1v0.1h-0.1v-0.3c0 0 0.2 0 0.2 0zm-0.1 0.1h0.1zm-4-1.4q0 0.2 0.1 0.4 0.1 0.2 0.2 0.3 0.2 0.2 0.4 0.3 0.2 0 0.4 0 0.2 0 0.4 0 0.1-0.1 0.3-0.2 0.1-0.2 0.2-0.4 0.1-0.1 0.1-0.3c0-0.3-0.1-0.6-0.2-0.8-0.2-0.2-0.5-0.3-0.8-0.4-0.2 0-0.5 0.1-0.7 0.3q-0.3 0.3-0.4 0.7c0 0 0 0 0 0.1zm-25.3 1.7h-0.8v-0.5q-0.1 0.2-0.2 0.3-0.1 0.1-0.3 0.1-0.1 0.1-0.3 0.1-0.1 0.1-0.3 0.1c-0.5-0.1-0.9-0.3-1.2-0.6-0.4-0.4-0.5-0.8-0.5-1.3 0-0.4 0.1-0.9 0.5-1.2 0.3-0.4 0.7-0.6 1.2-0.6q0.2 0 0.3 0 0.2 0.1 0.3 0.1 0.1 0.1 0.3 0.2 0.1 0.1 0.2 0.2v-0.4h0.8zm-2.9-1.7q0 0.2 0.1 0.4 0.1 0.2 0.2 0.3 0.2 0.2 0.4 0.3 0.2 0 0.4 0 0.2 0 0.4 0 0.2-0.1 0.3-0.3 0.1-0.1 0.2-0.3 0.1-0.2 0.1-0.4c0-0.2 0-0.5-0.2-0.7-0.2-0.2-0.5-0.4-0.7-0.4-0.3 0-0.6 0.1-0.8 0.3q-0.3 0.3-0.4 0.7c0 0 0 0 0 0.1z"/>
		<path id="Layer" class="s1" d="m27.4 8.8h11.4v20.4h-11.4z"/>
		<path id="Layer" class="s2" d="m28.1 19q0-1.5 0.4-2.9 0.3-1.4 0.9-2.8 0.7-1.3 1.6-2.4 0.9-1.2 2.1-2.1c-4-3.1-9.3-3.7-13.8-1.5-4.4 2.2-7.3 6.7-7.3 11.7 0 5 2.9 9.6 7.3 11.7 4.5 2.2 9.8 1.6 13.8-1.4q-1.2-0.9-2.1-2.1-0.9-1.2-1.6-2.5-0.6-1.3-1-2.8-0.3-1.4-0.3-2.9z"/>
		<path id="Layer" class="s3" d="m54.1 19c0 2.4-0.7 4.8-2 6.9-1.3 2.1-3.1 3.7-5.3 4.8-2.2 1.1-4.7 1.5-7.1 1.2-2.4-0.2-4.7-1.2-6.6-2.7 1.3-1 2.4-2.3 3.3-3.8 0.8-1.5 1.3-3.2 1.5-4.9 0.2-1.7 0.1-3.4-0.4-5-0.4-1.7-1.2-3.2-2.3-4.5q-0.2-0.3-0.5-0.6-0.2-0.3-0.5-0.6-0.3-0.3-0.5-0.5-0.3-0.3-0.6-0.5c1.9-1.5 4.2-2.4 6.6-2.7 2.4-0.3 4.9 0.2 7.1 1.2 2.2 1.1 4 2.8 5.3 4.8 1.3 2.1 2 4.5 2 6.9z"/>
		<path id="Layer" class="s3" d="m52.9 27.1v-0.5h0.2-0.5 0.2v0.5zm0.8 0v-0.5h-0.1l-0.2 0.3-0.1-0.3h-0.1v0.5h0.1v-0.4l0.1 0.3h0.1l0.2-0.3v0.4z"/>
	</g>
</svg>