<svg xmlns="http://www.w3.org/2000/svg" width="61" height="17.364" viewBox="0 0 61 17.364"><defs><style>.a{fill:#01b1ec;}.b{fill:#2b316b;}.c{fill:#00b5e4;}.d{fill:#292c6f;}.e{fill:#fff;}</style></defs><g transform="translate(0 0)"><path class="a" d="M17.565,185.5c-5.892,0-10.665,3.055-10.665,6.822s4.773,6.822,10.665,6.822,10.665-3.055,10.665-6.822S23.451,185.5,17.565,185.5Z" transform="translate(-6.464 -184.342)"/><g transform="translate(26.019 1.989)"><g transform="translate(0 0)"><path class="b" d="M802.645,218.853a2.583,2.583,0,0,0-3.647,0,2.96,2.96,0,0,0,0,3.569,2.618,2.618,0,0,0,3.647,0,2.96,2.96,0,0,0,0-3.569Zm-.993,2.879a1.1,1.1,0,0,1-1.676,0,2.187,2.187,0,0,1,0-2.2,1,1,0,0,1,.838-.387.981.981,0,0,1,.838.387,1.761,1.761,0,0,1,.288,1.1A1.742,1.742,0,0,1,801.652,221.733Z" transform="translate(-768.263 -216.637)"/><path class="b" d="M665.9,218.81a3.076,3.076,0,0,0-1.394-.31,2.064,2.064,0,0,0-1.7.627,1.815,1.815,0,0,0-.352,1.028h1.2a.919.919,0,0,1,.176-.436.794.794,0,0,1,.634-.218,1.269,1.269,0,0,1,.605.113.427.427,0,0,1,.2.4.375.375,0,0,1-.268.352,2.034,2.034,0,0,1-.5.106l-.422.049a3.1,3.1,0,0,0-1.1.3,1.344,1.344,0,0,0-.683,1.267,1.322,1.322,0,0,0,.422,1.049,1.646,1.646,0,0,0,1.077.366c2.717.12,2.682-1.429,2.71-1.753v-1.788A1.194,1.194,0,0,0,665.9,218.81Zm-.634,2.71a.982.982,0,0,1-.359.859,1.328,1.328,0,0,1-.753.239.7.7,0,0,1-.436-.141.542.542,0,0,1-.176-.458.566.566,0,0,1,.3-.528,1.918,1.918,0,0,1,.57-.169l.282-.049a2.44,2.44,0,0,0,.331-.084,1.089,1.089,0,0,0,.239-.12v.451Z" transform="translate(-641.744 -217.009)"/><path class="b" d="M593.607,219.749a.81.81,0,0,1,.683.289,1.143,1.143,0,0,1,.19.479h1.338a1.819,1.819,0,0,0-.711-1.415,2.727,2.727,0,0,0-1.542-.4,2.264,2.264,0,0,0-1.739.676,3.1,3.1,0,0,0-.056,3.661,2.193,2.193,0,0,0,1.774.676,2.147,2.147,0,0,0,1.823-.817,1.958,1.958,0,0,0,.429-1.07h-1.338a1.193,1.193,0,0,1-.232.612.8.8,0,0,1-.655.232.87.87,0,0,1-.88-.591,2.305,2.305,0,0,1-.127-.838,2.532,2.532,0,0,1,.127-.88A.914.914,0,0,1,593.607,219.749Z" transform="translate(-575.649 -217.195)"/><path class="b" d="M551.967,218.7a2.314,2.314,0,0,0-2.591,2.436v2.478h1.246v-2.323a1.966,1.966,0,0,1,.141-.845,1.029,1.029,0,0,1,1.007-.486,3.434,3.434,0,0,1,.359.028v-1.267a.807.807,0,0,0-.106-.007A.076.076,0,0,0,551.967,218.7Z" transform="translate(-536.768 -217.195)"/><path class="b" d="M477.68,222.319a.741.741,0,0,1-.169.19,1.049,1.049,0,0,1-.7.19,1.157,1.157,0,0,1-.662-.162,1.132,1.132,0,0,1-.507-.993H479.1a5.734,5.734,0,0,0-.042-.943,2.263,2.263,0,0,0-.38-.979,2,2,0,0,0-.817-.7,2.7,2.7,0,0,0-1.112-.218,2.292,2.292,0,0,0-1.7.655,2.568,2.568,0,0,0-.655,1.894,2.287,2.287,0,0,0,.725,1.9,2.606,2.606,0,0,0,1.668.584,2.3,2.3,0,0,0,1.781-.69,1.687,1.687,0,0,0,.436-.718H477.68ZM476.005,220a.974.974,0,0,1,.739-.267,1.109,1.109,0,0,1,.739.253,1.031,1.031,0,0,1,.331.746h-2.14A1.244,1.244,0,0,1,476.005,220Z" transform="translate(-467.071 -217.195)"/><g transform="translate(0 1.484)"><path class="b" d="M377.122,223.328h-1.14v-2.872a.8.8,0,0,0-.838-.887.841.841,0,0,0-.866.887v2.872h-1.14v-2.872a.8.8,0,0,0-.831-.887.833.833,0,0,0-.866.887v2.872H370.3v-2.844a1.961,1.961,0,0,1,2.006-2.084,1.742,1.742,0,0,1,1.415.662,1.813,1.813,0,0,1,1.415-.662,1.9,1.9,0,0,1,1.978,2.084v2.844Z" transform="translate(-370.3 -218.4)"/></g><path class="b" d="M732.118,197.322s-1.26-.134-1.26.873v1.338a1.475,1.475,0,0,0-.542-.521,1.532,1.532,0,0,0-.767-.19,1.811,1.811,0,0,0-1.492.7,3.066,3.066,0,0,0-.556,1.943,2.562,2.562,0,0,0,.57,1.725,2.4,2.4,0,0,0,1.781.648,2.017,2.017,0,0,0,2.274-1.971Zm-1.5,5.1a.922.922,0,0,1-.8.394.889.889,0,0,1-.788-.394,2.041,2.041,0,0,1-.26-1.084,1.909,1.909,0,0,1,.253-1.021.866.866,0,0,1,.8-.408.964.964,0,0,1,.627.225,2.089,2.089,0,0,1,.176,2.288Z" transform="translate(-702.354 -197.316)"/></g></g><g transform="translate(26.012 10.387)"><g transform="translate(0 0)"><path class="c" d="M371.453,322.913a.625.625,0,0,1-.627.62H370.2V319.2a2,2,0,0,1,.753-1.732,2.483,2.483,0,0,1,1.633-.465,2.177,2.177,0,0,1,1.633.676,2.66,2.66,0,0,1,.584,1.8,2.919,2.919,0,0,1-.549,1.844,1.734,1.734,0,0,1-1.415.69,1.953,1.953,0,0,1-.81-.162,1.326,1.326,0,0,1-.584-.563v1.626Zm2.091-3.379a1.826,1.826,0,0,0-.275-1.084.993.993,0,0,0-1.563,0,1.851,1.851,0,0,0-.253,1.084,1.65,1.65,0,0,0,.275,1.035.911.911,0,0,0,.788.38.882.882,0,0,0,.753-.38,1.735,1.735,0,0,0,.275-1.035" transform="translate(-370.2 -316.972)"/><path class="c" d="M509.981,321.409v-.31a1.382,1.382,0,0,1-.873.634,1.766,1.766,0,0,1-1.091-.091,2.044,2.044,0,0,1-.929-.8,2.759,2.759,0,0,1-.387-1.549,2.97,2.97,0,0,1,.514-1.816,1.973,1.973,0,0,1,1.647-.7,2.27,2.27,0,0,1,1.6.472,2.015,2.015,0,0,1,.739,1.739v2.555a2.132,2.132,0,0,1-2.344,2.189,2.056,2.056,0,0,1-2.056-1.556h1.316a.96.96,0,0,0,.444.387.914.914,0,0,0,.591.07,1,1,0,0,0,.542-.352,1.526,1.526,0,0,0,.282-.873m-2.056-2.084c0,.831.239,1.3.718,1.387a.973.973,0,0,0,1.063-.338,1.389,1.389,0,0,0,.232-.627,2.614,2.614,0,0,0,.007-.845,1.7,1.7,0,0,0-.3-.746.787.787,0,0,0-.683-.324.844.844,0,0,0-.831.451,2.53,2.53,0,0,0-.211,1.042" transform="translate(-497.091 -316.763)"/><path class="c" d="M444,317.61a3.075,3.075,0,0,0-1.394-.31,2.064,2.064,0,0,0-1.7.626,1.87,1.87,0,0,0-.352,1.028h1.2a.918.918,0,0,1,.176-.436.794.794,0,0,1,.634-.218,1.269,1.269,0,0,1,.605.113.427.427,0,0,1,.2.4.375.375,0,0,1-.268.352,2.029,2.029,0,0,1-.5.106l-.422.049a3.1,3.1,0,0,0-1.1.3,1.344,1.344,0,0,0-.683,1.267,1.323,1.323,0,0,0,.422,1.049,1.647,1.647,0,0,0,1.077.366c2.717.12,2.682-1.429,2.71-1.753v-1.788A1.2,1.2,0,0,0,444,317.61m-.634,2.71a.982.982,0,0,1-.359.859,1.305,1.305,0,0,1-.753.232.7.7,0,0,1-.437-.141.545.545,0,0,1-.183-.458.566.566,0,0,1,.3-.528,1.917,1.917,0,0,1,.57-.169l.282-.049a2.428,2.428,0,0,0,.331-.084,1.087,1.087,0,0,0,.239-.12v.458Z" transform="translate(-435.458 -317.251)"/><path class="c" d="M581.745,317.353a2.583,2.583,0,0,0-3.647,0,2.96,2.96,0,0,0,0,3.569,2.618,2.618,0,0,0,3.647,0,2.96,2.96,0,0,0,0-3.569m-.993,2.872a1.1,1.1,0,0,1-1.675,0,2.188,2.188,0,0,1,0-2.2,1,1,0,0,1,.838-.387.98.98,0,0,1,.838.387,1.76,1.76,0,0,1,.289,1.1,1.807,1.807,0,0,1-.289,1.1" transform="translate(-562.907 -316.6)"/></g></g><path class="d" d="M11.795,179.4C5.67,179.4.7,182.659.7,186.658v.422c0,4.238,4.344,7.673,11.095,7.673,6.793,0,11.095-3.435,11.095-7.673v-.422C22.889,182.659,17.919,179.4,11.795,179.4Zm.007,14.073c-5.892,0-10.665-3.055-10.665-6.822s4.773-6.822,10.665-6.822,10.665,3.055,10.665,6.822S17.687,193.473,11.8,193.473Z" transform="translate(-0.7 -178.672)"/><path class="e" d="M28.009,178.2l-.289.042-1.338-.063-2.844.338-2.562.936.148-3.794.563-1.584.535-.035.535-.148,1.112-.387.76-.077.324-.148-.127-.563-.451-.162.162-.584-.4-.4-1.063-.655h-.3l-1.021.866-1.183,1.387-1.408,2.682-1.894,4.315-.831-1.7L14.155,173.5l-.31-.26-1.683-1.964-.591-.38-.408.12-1.112.852-.021.634-.225.1-.345.451.324.289.908.148,2.119.634.106.063.2.6.451,1.535v2.957l-.373.077-.76-.289-2.7-.676-1.345-.113-1.69.1a4.928,4.928,0,0,0,1.26,3.569l.542-.253,2.45.429,3.823-.092,1.985-.338.514-.662.324.584,1.971.507h2.886l2.436-.3,1.077-.12.7.38A5.367,5.367,0,0,0,28.009,178.2Z" transform="translate(-6.278 -170.77)"/><g transform="translate(0.296)"><path class="d" d="M31.907,316.57a1.754,1.754,0,0,1-1.471.662c-.26.014-.514.035-.774.056a17.085,17.085,0,0,1-2.753.063l-.084-.007a20.73,20.73,0,0,1-2.95-.38.836.836,0,0,0-.964.253,1.165,1.165,0,0,0-.232.324c-.014.042.063.07.077.084.049.042.289-.19.331-.239.2-.225.359-.26.732-.176a21.482,21.482,0,0,0,2.985.38l.084.007c.282.021.57.035.852.035.655,0,1.3-.049,1.936-.1.253-.021.514-.042.767-.056a1.973,1.973,0,0,0,1.654-.767.13.13,0,0,0-.028-.169A.121.121,0,0,0,31.907,316.57Z" transform="translate(-21.424 -306.141)"/><path class="d" d="M26.4,176.429a.126.126,0,0,0-.162-.049.712.712,0,0,1-.563-.007,1.429,1.429,0,0,0-.465-.077,20.172,20.172,0,0,0-5.019.979c-.2.063-.394.134-.577.2l-.169.063c.007-.141.007-.275.014-.415.028-.739.056-1.507.035-2.26a5.975,5.975,0,0,1,.486-2.239c.063-.162.1-.232.352-.2a1.967,1.967,0,0,0,1.077-.232,2.85,2.85,0,0,1,1.274-.338.587.587,0,0,0,.662-.521c.084-.444-.275-.549-.507-.619h-.014a2.733,2.733,0,0,0,.169-.429.133.133,0,0,0-.021-.113,3.829,3.829,0,0,0-.929-.753c-.127-.077-.253-.162-.373-.246a.725.725,0,0,0-.922.12,11.993,11.993,0,0,0-3.4,4.794c-.155.366-.3.732-.451,1.1-.415,1.014-.845,2.056-1.331,3.062l-.331-.753c-.26-.6-.528-1.19-.788-1.781l-.4-.908c-.373-.845-.76-1.725-1.162-2.577a7.873,7.873,0,0,0-1.873-2.281c-.239-.225-.493-.465-.725-.7a.61.61,0,0,0-.746-.113c-.127.091-.26.183-.394.268a2.718,2.718,0,0,0-.781.641.668.668,0,0,0-.113.7.686.686,0,0,0-.549.577.135.135,0,0,0,.042.12,1.287,1.287,0,0,1,.1.1c.106.113.218.246.373.253a4.4,4.4,0,0,1,1.218.3,4.3,4.3,0,0,0,1.3.31c.253.007.366.07.429.232.028.077.056.162.084.239a6.373,6.373,0,0,1,.324,1.063,7.932,7.932,0,0,1,.07,1.732,7.569,7.569,0,0,0,.1,1.866.587.587,0,0,1-.458-.1,1.471,1.471,0,0,0-.211-.1,13.1,13.1,0,0,0-4.266-.9H5.02a.12.12,0,0,0,0,.239H6.808a12.932,12.932,0,0,1,4.189.887,1.317,1.317,0,0,1,.176.084,1,1,0,0,0,.451.141.691.691,0,0,0,.31-.077.124.124,0,0,0,.063-.141,6.865,6.865,0,0,1-.113-1.908,8.432,8.432,0,0,0-.077-1.781,6.682,6.682,0,0,0-.338-1.105c-.028-.077-.056-.162-.084-.239a.627.627,0,0,0-.648-.394,4.086,4.086,0,0,1-1.232-.3,4.6,4.6,0,0,0-1.288-.31c-.049,0-.141-.106-.2-.169-.021-.021-.042-.049-.063-.07.07-.253.225-.3.436-.352a.025.025,0,0,0,.014-.007c.014.014.021.028.042.035a1.122,1.122,0,0,0,1.422.211,2.966,2.966,0,0,0,.683.641.114.114,0,0,0,.063.021.112.112,0,0,0,.1-.056.125.125,0,0,0-.035-.169,3.874,3.874,0,0,1-.894-.929c-.092-.12-.183-.246-.282-.366a.12.12,0,1,0-.183.155c.092.113.19.239.275.359.042.056.084.106.12.162-.387.253-.718.106-1.126-.211a.4.4,0,0,1-.042-.605,2.7,2.7,0,0,1,.725-.584c.134-.084.275-.176.408-.275a.382.382,0,0,1,.429.085c.239.246.486.479.732.711a7.7,7.7,0,0,1,1.823,2.21c.4.852.788,1.725,1.162,2.57l.4.908c.268.591.528,1.19.788,1.781l.352.8a.127.127,0,0,0,.1.07,1.049,1.049,0,0,0,.007.76,1.629,1.629,0,0,0,.788.922,2.317,2.317,0,0,0,.887.225l.169.014c.908.07,1.844.148,2.774.148.345,0,.69-.007,1.035-.035a14.69,14.69,0,0,0,2.661-.38.83.83,0,0,1,.971.3c.042.049.218.246.268.12.077-.19-.049-.232-.092-.282a1.067,1.067,0,0,0-1.211-.366,13.5,13.5,0,0,1-2.612.373,25.936,25.936,0,0,1-3.773-.113l-.169-.014a2.136,2.136,0,0,1-.8-.2,1.4,1.4,0,0,1-.669-.781.83.83,0,0,1,.007-.627c.528-1.056.979-2.168,1.415-3.238.148-.366.3-.732.451-1.091a11.767,11.767,0,0,1,3.33-4.7.5.5,0,0,1,.627-.106q.19.137.38.253a3.648,3.648,0,0,1,.831.648,1.141,1.141,0,0,1-.507.739,1.013,1.013,0,0,1-.8-.028c.162-.211.31-.429.444-.634a.122.122,0,1,0-.2-.134,4.04,4.04,0,0,1-1.281,1.4.117.117,0,0,0-.042.162.131.131,0,0,0,.106.063.205.205,0,0,0,.063-.014,2.964,2.964,0,0,0,.76-.648,1.312,1.312,0,0,0,1.063.042.955.955,0,0,0,.366-.331.11.11,0,0,0,.056.042c.275.084.373.134.338.345a.353.353,0,0,1-.415.324,3.051,3.051,0,0,0-1.38.359,1.822,1.822,0,0,1-.943.211.47.47,0,0,0-.612.345,6.222,6.222,0,0,0-.5,2.323c.014.746-.014,1.514-.035,2.246l-.021.549a.5.5,0,0,1-.063.049.746.746,0,0,0-.077.063.115.115,0,0,0,0,.169.119.119,0,0,0,.169,0c.014-.014.035-.028.056-.049a.7.7,0,0,0,.106-.1.063.063,0,0,0,.035-.007c.092-.035.176-.063.268-.1.19-.07.38-.141.57-.2a19.628,19.628,0,0,1,4.956-.971,1.1,1.1,0,0,1,.387.07.893.893,0,0,0,.746-.014C26.414,176.563,26.435,176.493,26.4,176.429Z" transform="translate(-4.9 -169.056)"/></g></g></svg>