<svg width="65" height="44" viewBox="0 0 65 44" fill="none" xmlns="http://www.w3.org/2000/svg">
<g id="formapgto-pix 1">
<g id="Group">
<g id="Group_2">
<path id="Vector" d="M27.6777 31.1046V18.8194C27.6777 18.2819 27.7836 17.7497 27.9893 17.2531C28.195 16.7566 28.4964 16.3054 28.8765 15.9253C29.2566 15.5453 29.7077 15.2438 30.2043 15.0381C30.7009 14.8324 31.2331 14.7266 31.7706 14.7266L35.3975 14.7323C36.4799 14.7344 37.5172 15.1658 38.2819 15.9318C39.0465 16.6979 39.4759 17.7361 39.4759 18.8184V21.4337C39.4759 22.5192 39.0447 23.5602 38.2772 24.3278C37.5096 25.0954 36.4686 25.5266 35.3831 25.5266H30.2584" stroke="#939598" stroke-width="0.756578" stroke-linecap="round" stroke-linejoin="round"/>
</g>
<g id="Group_3">
<path id="Vector_2" d="M40.4883 14.7227H42.0611C42.5066 14.7227 42.9338 14.8996 43.2488 15.2146C43.5638 15.5296 43.7408 15.9569 43.7408 16.4023V25.5794" stroke="#939598" stroke-width="0.756578" stroke-linecap="round" stroke-linejoin="round"/>
</g>
<g id="Group_4">
<path id="Vector_3" d="M43.4056 13.302L42.6913 12.5887C42.6063 12.5037 42.5586 12.3884 42.5586 12.2682C42.5586 12.148 42.6063 12.0327 42.6913 11.9476L43.4046 11.2344C43.4898 11.1493 43.6052 11.1016 43.7256 11.1016C43.846 11.1016 43.9614 11.1493 44.0466 11.2344L44.7599 11.9476C44.8449 12.0327 44.8926 12.148 44.8926 12.2682C44.8926 12.3884 44.8449 12.5037 44.7599 12.5887L44.0466 13.302C43.9616 13.387 43.8463 13.4347 43.7261 13.4347C43.6059 13.4347 43.4906 13.387 43.4056 13.302Z" fill="#32BCAD"/>
</g>
<g id="Group_5">
<path id="Vector_4" d="M46.7598 14.7148H48.3201C48.7175 14.7147 49.1111 14.793 49.4782 14.9451C49.8454 15.0972 50.179 15.3202 50.4599 15.6014L54.1099 19.2505C54.2223 19.363 54.3558 19.4523 54.5027 19.5132C54.6496 19.5741 54.8071 19.6055 54.9661 19.6055C55.1252 19.6055 55.2827 19.5741 55.4296 19.5132C55.5765 19.4523 55.71 19.363 55.8223 19.2505L59.4579 15.6148C59.7391 15.3337 60.0728 15.1108 60.4401 14.9587C60.8075 14.8066 61.2011 14.7283 61.5987 14.7283H62.8674" stroke="#939598" stroke-width="0.756578" stroke-linecap="round" stroke-linejoin="round"/>
</g>
<g id="Group_6">
<path id="Vector_5" d="M46.7598 25.5006H48.3201C49.1227 25.5004 49.8923 25.1815 50.4599 24.6141L54.1099 20.964C54.337 20.7369 54.645 20.6094 54.9661 20.6094C55.2873 20.6094 55.5952 20.7369 55.8223 20.964L59.4579 24.6006C60.026 25.1679 60.7959 25.4868 61.5987 25.4871H62.8674" stroke="#939598" stroke-width="0.756578" stroke-linecap="round" stroke-linejoin="round"/>
</g>
<g id="Group_7">
<path id="Vector_6" d="M18.3706 27.8306C17.9854 27.8315 17.6039 27.7561 17.248 27.6087C16.8922 27.4614 16.569 27.245 16.2972 26.972L13.3036 23.9785C13.1979 23.877 13.057 23.8203 12.9104 23.8203C12.7639 23.8203 12.623 23.877 12.5172 23.9785L9.51499 26.9836C9.24333 27.2567 8.92021 27.4732 8.56431 27.6206C8.20841 27.768 7.82682 27.8433 7.44162 27.8422H6.85156L10.6431 31.6347C11.212 32.2032 11.9834 32.5226 12.7877 32.5226C13.592 32.5226 14.3634 32.2032 14.9323 31.6347L18.7345 27.8316L18.3706 27.8306Z" fill="#32BCAD"/>
</g>
<g id="Group_8">
<path id="Vector_7" d="M7.44162 17.2429C7.82675 17.2417 8.20831 17.3168 8.5642 17.4641C8.92009 17.6113 9.24325 17.8276 9.51499 18.1005L12.5201 21.1057C12.6244 21.2099 12.7659 21.2684 12.9133 21.2684C13.0608 21.2684 13.2022 21.2099 13.3065 21.1057L16.3001 18.1111C16.5719 17.8383 16.8951 17.6221 17.251 17.4749C17.6069 17.3277 17.9884 17.2524 18.3735 17.2535H18.7345L14.9323 13.4504C14.3634 12.8819 13.592 12.5625 12.7877 12.5625C11.9834 12.5625 11.212 12.8819 10.6431 13.4504L6.85156 17.2429H7.44162Z" fill="#32BCAD"/>
</g>
<g id="Group_9">
<path id="Vector_8" d="M21.8802 20.401L19.5816 18.1034C19.53 18.1246 19.4747 18.1358 19.4189 18.1361H18.3707C17.827 18.1379 17.3059 18.3537 16.9201 18.7367L13.9265 21.7313C13.6561 21.999 13.291 22.1492 12.9105 22.1492C12.53 22.1492 12.1649 21.999 11.8945 21.7313L8.88938 18.7262C8.5038 18.3427 7.98254 18.1269 7.43879 18.1255H6.15665C6.1038 18.1245 6.05159 18.1137 6.00264 18.0938L3.69248 20.4039C3.12402 20.9727 2.80469 21.7439 2.80469 22.548C2.80469 23.3522 3.12402 24.1234 3.69248 24.6921L6.00264 27.0023C6.05165 26.9827 6.10385 26.9722 6.15665 26.9715H7.44167C7.98555 26.9698 8.50679 26.7536 8.89226 26.3699L11.8974 23.3657C12.171 23.1043 12.5349 22.9584 12.9134 22.9584C13.2918 22.9584 13.6557 23.1043 13.9294 23.3657L16.923 26.3593C17.3085 26.7427 17.8298 26.9586 18.3735 26.96H19.4189C19.4748 26.9602 19.5302 26.9716 19.5816 26.9936L21.8802 24.695C22.4486 24.1263 22.768 23.3551 22.768 22.5509C22.768 21.7468 22.4486 20.9756 21.8802 20.4068" fill="#32BCAD"/>
</g>
<g id="Group_10">
<path id="Vector_9" d="M30.7957 30.0612C30.6057 30.0695 30.4173 30.0982 30.2335 30.1469V30.8958C30.3743 30.9449 30.5224 30.9696 30.6715 30.969C31.0469 30.969 31.225 30.8419 31.225 30.5117C31.225 30.2008 31.0796 30.0612 30.7957 30.0612ZM30.1074 31.4512V29.9708H30.2104L30.221 30.0353C30.4127 29.9837 30.6091 29.9514 30.8072 29.939C30.9448 29.9291 31.0813 29.9687 31.1922 30.0507C31.253 30.1097 31.2997 30.1816 31.329 30.261C31.3584 30.3405 31.3695 30.4255 31.3616 30.5098C31.3688 30.6036 31.3501 30.6976 31.3077 30.7816C31.2653 30.8656 31.2007 30.9363 31.121 30.9863C30.9859 31.0531 30.8366 31.0861 30.6859 31.0825C30.5329 31.0815 30.3809 31.0585 30.2345 31.0142V31.4493L30.1074 31.4512Z" fill="#939598"/>
</g>
<g id="Group_11">
<path id="Vector_10" d="M32.3031 30.053C31.9277 30.053 31.7602 30.1714 31.7602 30.5016C31.7602 30.8317 31.9258 30.9655 32.3031 30.9655C32.6804 30.9655 32.8441 30.8491 32.8441 30.5189C32.8441 30.1887 32.6785 30.053 32.3031 30.053ZM32.7844 30.9655C32.6398 31.053 32.4716 31.0933 32.3031 31.081C32.1347 31.0926 31.9667 31.0523 31.8218 30.9655C31.7545 30.9116 31.7016 30.8417 31.668 30.7622C31.6344 30.6827 31.6211 30.5961 31.6293 30.5102C31.6215 30.4241 31.6349 30.3373 31.6685 30.2576C31.702 30.1779 31.7547 30.1076 31.8218 30.053C31.9718 29.9771 32.1375 29.9375 32.3055 29.9375C32.4736 29.9375 32.6393 29.9771 32.7892 30.053C32.8505 30.1122 32.8992 30.1831 32.9324 30.2615C32.9657 30.3398 32.9829 30.4241 32.9829 30.5093C32.9829 30.5944 32.9657 30.6787 32.9324 30.7571C32.8992 30.8355 32.8505 30.9064 32.7892 30.9655" fill="#939598"/>
</g>
<g id="Group_12">
<path id="Vector_11" d="M34.5636 31.0526L34.1449 30.1536H34.1363L33.7243 31.0526H33.6107L33.1641 29.9688H33.3036L33.6752 30.8784H33.6838L34.0872 29.9688H34.2027L34.6166 30.8784H34.6252L34.9881 29.9688H35.1229L34.6772 31.0526H34.5636Z" fill="#939598"/>
</g>
<g id="Group_13">
<path id="Vector_12" d="M35.9326 30.0525C35.5851 30.0525 35.4667 30.2065 35.4455 30.4299H36.4196C36.4091 30.1834 36.282 30.0525 35.9326 30.0525ZM35.9326 31.0825C35.7727 31.0995 35.6122 31.0566 35.4821 30.9621C35.3677 30.8356 35.307 30.6695 35.3129 30.499C35.3188 30.3285 35.3909 30.167 35.5139 30.0487C35.6401 29.9696 35.7877 29.9313 35.9364 29.9389C36.0881 29.9296 36.239 29.9661 36.3696 30.0439C36.4406 30.1044 36.4951 30.182 36.5277 30.2694C36.5604 30.3568 36.5703 30.4512 36.5563 30.5434H35.4417C35.4417 30.7667 35.5187 30.9641 35.9393 30.9641C36.1275 30.9597 36.3149 30.9391 36.4995 30.9025V31.0161C36.3115 31.0544 36.1205 31.0766 35.9287 31.0825" fill="#939598"/>
</g>
<g id="Group_14">
<path id="Vector_13" d="M36.916 31.0531V29.9693H37.019L37.0296 30.0338C37.2034 29.9761 37.3846 29.9437 37.5677 29.9375H37.5831V30.0578H37.5532C37.3796 30.0611 37.2074 30.09 37.0421 30.1435V31.0512L36.916 31.0531Z" fill="#939598"/>
</g>
<g id="Group_15">
<path id="Vector_14" d="M38.3182 30.0525C37.9707 30.0525 37.8523 30.2065 37.8311 30.4299H38.8053C38.7947 30.1834 38.6676 30.0525 38.3182 30.0525ZM38.3134 31.0825C38.1535 31.0992 37.9931 31.0564 37.8629 30.9621C37.7483 30.8356 37.6877 30.6694 37.6938 30.4988C37.6999 30.3282 37.7723 30.1667 37.8956 30.0487C38.0218 29.9695 38.1694 29.9312 38.3182 29.9389C38.4698 29.9296 38.6208 29.9661 38.7513 30.0439C38.8224 30.1044 38.8768 30.182 38.9095 30.2694C38.9422 30.3568 38.952 30.4512 38.9381 30.5434H37.8263C37.8311 30.7667 37.9043 30.9641 38.324 30.9641C38.5121 30.9598 38.6996 30.9392 38.8842 30.9025V31.0161C38.6962 31.0545 38.5052 31.0767 38.3134 31.0825Z" fill="#939598"/>
</g>
<g id="Group_16">
<path id="Vector_15" d="M40.325 30.1278C40.1842 30.0787 40.0361 30.054 39.887 30.0547C39.5116 30.0547 39.3335 30.1817 39.3335 30.5119C39.3335 30.8247 39.4789 30.9624 39.7628 30.9624C39.9526 30.9538 40.141 30.9258 40.325 30.8786V30.1278ZM40.3481 31.0528L40.3375 30.9884C40.1461 31.0399 39.95 31.0722 39.7522 31.0846C39.6756 31.0948 39.5976 31.0868 39.5246 31.0615C39.4515 31.0361 39.3854 30.994 39.3315 30.9386C39.2777 30.8831 39.2375 30.8158 39.2143 30.7421C39.1911 30.6683 39.1854 30.5901 39.1978 30.5138C39.1905 30.4202 39.2091 30.3265 39.2515 30.2428C39.294 30.159 39.3586 30.0886 39.4384 30.0393C39.5742 29.9712 39.7247 29.9382 39.8764 29.943C40.0283 29.9452 40.1793 29.9682 40.325 30.0113V29.5156H40.4511V31.0557L40.3481 31.0528Z" fill="#939598"/>
</g>
<g id="Group_17">
<path id="Vector_16" d="M42.3084 30.0624C42.1182 30.0706 41.9294 30.0993 41.7453 30.148V30.894C41.8856 30.9453 42.0339 30.9711 42.1833 30.9701C42.5587 30.9701 42.7367 30.843 42.7367 30.5128C42.7367 30.2019 42.5914 30.0624 42.3084 30.0624ZM42.6318 30.9893C42.4967 31.0562 42.3474 31.0892 42.1967 31.0856C42.033 31.0842 41.8705 31.0566 41.7155 31.0038L41.7087 31.0557H41.623V29.5156H41.7491V30.0325C41.9385 29.9848 42.1318 29.9549 42.3267 29.943C42.4642 29.9331 42.6008 29.9727 42.7117 30.0547C42.7724 30.1137 42.8192 30.1856 42.8485 30.265C42.8778 30.3445 42.889 30.4295 42.8811 30.5138C42.8883 30.6076 42.8696 30.7016 42.8272 30.7856C42.7848 30.8696 42.7202 30.9403 42.6405 30.9903" fill="#939598"/>
</g>
<g id="Group_18">
<path id="Vector_17" d="M43.0387 31.4684V31.351C43.1012 31.3568 43.159 31.3616 43.1994 31.3616C43.2729 31.3678 43.3463 31.3491 43.4079 31.3087C43.4695 31.2682 43.5158 31.2082 43.5392 31.1383L43.5796 31.0526L43.0117 29.9688H43.1571L43.6384 30.9044H43.647L44.1081 29.9688H44.2515L43.6422 31.1854C43.6099 31.2775 43.548 31.3563 43.4661 31.4095C43.3843 31.4626 43.2871 31.4871 43.1898 31.479C43.1373 31.4787 43.0849 31.4751 43.0329 31.4684" fill="#939598"/>
</g>
<g id="Group_19">
<path id="Vector_18" d="M46.0027 30.4292H45.5821V30.8142H46.0047C46.2934 30.8142 46.4041 30.7824 46.4041 30.6217C46.4041 30.4609 46.254 30.4292 46.0027 30.4292ZM45.9257 29.8131H45.5821V30.1982H45.9276C46.2164 30.1982 46.3261 30.1645 46.3261 30.0057C46.3261 29.8468 46.1827 29.8131 45.9257 29.8131ZM46.5735 30.949C46.3602 31.0466 46.1237 31.0823 45.8911 31.052H45.25V29.5821H45.8766C46.0894 29.5575 46.3049 29.5907 46.5004 29.6784C46.5496 29.7079 46.5898 29.7506 46.6163 29.8015C46.6428 29.8525 46.6546 29.9098 46.6505 29.9671C46.6549 30.0397 46.6344 30.1116 46.5924 30.1709C46.5504 30.2302 46.4894 30.2734 46.4195 30.2935V30.3021C46.612 30.3454 46.7304 30.4417 46.7304 30.6496C46.7349 30.7091 46.7226 30.7686 46.6948 30.8213C46.6671 30.8741 46.625 30.919 46.5735 30.949Z" fill="#939598"/>
</g>
<g id="Group_20">
<path id="Vector_19" d="M48.0175 30.5981C47.8914 30.5875 47.7624 30.5807 47.6325 30.5807C47.4111 30.5807 47.3341 30.626 47.3341 30.7271C47.3341 30.8281 47.3986 30.8734 47.568 30.8734C47.7196 30.867 47.8702 30.8454 48.0175 30.8089V30.5981ZM48.082 31.0534L48.0734 30.9889C47.8817 31.0434 47.6843 31.0757 47.4852 31.0851C47.3702 31.0927 47.2557 31.0648 47.157 31.0052C47.1173 30.9746 47.0857 30.9348 47.0649 30.8891C47.0441 30.8435 47.0347 30.7935 47.0376 30.7434C47.0345 30.6818 47.0502 30.6207 47.0827 30.5682C47.1152 30.5157 47.163 30.4744 47.2196 30.4498C47.3491 30.4025 47.4872 30.3829 47.6248 30.3921C47.7384 30.3921 47.8914 30.3988 48.0175 30.4075V30.3873C48.0175 30.2179 47.9059 30.163 47.6017 30.163C47.4833 30.163 47.3399 30.1688 47.2022 30.1813V29.9628C47.3543 29.9503 47.5266 29.9416 47.6681 29.9416C47.842 29.9251 48.0169 29.9585 48.1725 30.0379C48.2276 30.0811 48.2703 30.1382 48.2964 30.2033C48.3224 30.2683 48.3308 30.3391 48.3207 30.4084V31.0505L48.082 31.0534Z" fill="#939598"/>
</g>
<g id="Group_21">
<path id="Vector_20" d="M49.7341 31.0509V30.4522C49.7341 30.2597 49.6379 30.1837 49.453 30.1837C49.3037 30.1904 49.1555 30.2137 49.0112 30.253V31.0509H48.709V29.9671H48.9554L48.966 30.0354C49.1541 29.981 49.3479 29.9487 49.5435 29.9392C49.677 29.9286 49.8096 29.9684 49.9151 30.0508C49.9585 30.0951 49.9915 30.1485 50.0118 30.2071C50.0321 30.2657 50.0392 30.328 50.0325 30.3897V31.0529L49.7341 31.0509Z" fill="#939598"/>
</g>
<g id="Group_22">
<path id="Vector_21" d="M50.8878 31.0829C50.7441 31.0935 50.6014 31.0533 50.4844 30.9693C50.423 30.9107 50.3756 30.839 50.3459 30.7594C50.3162 30.6799 50.305 30.5947 50.3131 30.5101C50.3074 30.4204 50.3246 30.3308 50.3632 30.2496C50.4017 30.1684 50.4604 30.0984 50.5335 30.0462C50.6788 29.9656 50.8442 29.9285 51.01 29.9393C51.1342 29.9393 51.2574 29.948 51.395 29.9605V30.1925C51.2853 30.1819 51.1544 30.1732 51.0495 30.1732C50.7607 30.1732 50.6269 30.2637 50.6269 30.5121C50.6269 30.7604 50.7232 30.847 50.9638 30.847C51.1166 30.842 51.2687 30.8233 51.4181 30.7912V31.0145C51.2449 31.0541 51.0683 31.077 50.8906 31.0829" fill="#939598"/>
</g>
<g id="Group_23">
<path id="Vector_22" d="M52.3099 30.1644C52.0212 30.1644 51.8951 30.2548 51.8951 30.5013C51.8951 30.7477 52.0202 30.8536 52.3099 30.8536C52.5997 30.8536 52.719 30.765 52.719 30.5186C52.719 30.2722 52.5977 30.1644 52.3099 30.1644ZM52.8288 30.9671C52.6708 31.0554 52.4903 31.095 52.3099 31.0807C52.1287 31.0948 51.9472 31.0553 51.7882 30.9671C51.7239 30.9094 51.6725 30.8387 51.6374 30.7598C51.6022 30.6808 51.584 30.5954 51.584 30.509C51.584 30.4225 51.6022 30.3371 51.6374 30.2581C51.6725 30.1792 51.7239 30.1086 51.7882 30.0508C51.9515 29.9761 52.129 29.9375 52.3085 29.9375C52.488 29.9375 52.6655 29.9761 52.8288 30.0508C52.8991 30.103 52.9548 30.1726 52.9902 30.2527C53.0256 30.3328 53.0397 30.4208 53.0309 30.508C53.0393 30.5954 53.0252 30.6836 52.9898 30.764C52.9544 30.8444 52.8989 30.9143 52.8288 30.9671Z" fill="#939598"/>
</g>
<g id="Group_24">
<path id="Vector_23" d="M54.7781 31.0829C54.59 31.0946 54.4036 31.0409 54.2506 30.9308C54.1687 30.8522 54.1055 30.7562 54.0657 30.6499C54.0259 30.5436 54.0105 30.4298 54.0206 30.3167C54.014 30.196 54.0379 30.0757 54.09 29.9667C54.1422 29.8577 54.2209 29.7635 54.319 29.693C54.5087 29.5871 54.725 29.5386 54.9418 29.5534C55.1044 29.5534 55.2719 29.564 55.4539 29.5794V29.8431C55.2979 29.8296 55.1044 29.819 54.9543 29.819C54.5356 29.819 54.3575 29.9779 54.3575 30.3167C54.3575 30.6555 54.5231 30.8172 54.832 30.8172C55.0526 30.8092 55.2718 30.7795 55.4866 30.7287V30.9905C55.2542 31.0457 55.0169 31.0779 54.7781 31.0868" fill="#939598"/>
</g>
<g id="Group_25">
<path id="Vector_24" d="M56.3749 30.1321C56.1237 30.1321 56.0274 30.2226 56.0082 30.3882H56.7378C56.7291 30.212 56.6262 30.1321 56.3749 30.1321ZM56.3297 31.0831C56.1673 31.0978 56.0049 31.0553 55.8705 30.9628C55.8095 30.9053 55.7622 30.8348 55.7322 30.7564C55.7022 30.6781 55.6902 30.594 55.6973 30.5104C55.6927 30.4235 55.7089 30.3367 55.7443 30.2573C55.7798 30.1778 55.8336 30.1078 55.9013 30.0532C56.0437 29.9673 56.2091 29.9276 56.3749 29.9396C56.5389 29.9291 56.7023 29.9673 56.8447 30.0493C57.0189 30.1716 57.0372 30.3602 57.0372 30.5836H56.0063C56.013 30.7482 56.1025 30.856 56.4048 30.856C56.5984 30.8518 56.7915 30.8331 56.9823 30.8001V31.0119C56.767 31.0533 56.5488 31.0771 56.3297 31.0831Z" fill="#939598"/>
</g>
<g id="Group_26">
<path id="Vector_25" d="M58.3835 31.0509V30.4522C58.3835 30.2597 58.2872 30.1837 58.1024 30.1837C57.953 30.1904 57.8049 30.2137 57.6606 30.253V31.0509H57.3555V29.9671H57.6019L57.6125 30.0354C57.8006 29.9809 57.9944 29.9486 58.19 29.9392C58.3232 29.9286 58.4555 29.9684 58.5606 30.0508C58.6043 30.0949 58.6377 30.1482 58.6581 30.2069C58.6786 30.2655 58.6858 30.3279 58.679 30.3897V31.0529L58.3835 31.0509Z" fill="#939598"/>
</g>
<g id="Group_27">
<path id="Vector_26" d="M59.5462 31.0825C59.4791 31.0889 59.4116 31.078 59.3499 31.0509C59.2882 31.0238 59.2345 30.9813 59.1939 30.9276C59.1344 30.8289 59.1068 30.7143 59.115 30.5993V30.1941H58.8965V29.9689H59.1159L59.1477 29.6406H59.4163V29.9689H59.8427V30.1941H59.4163V30.5416C59.4118 30.6116 59.422 30.6817 59.4461 30.7476C59.465 30.781 59.4934 30.808 59.5277 30.8251C59.562 30.8423 59.6006 30.8488 59.6386 30.8438C59.7113 30.8426 59.7837 30.8355 59.8552 30.8227V31.0392C59.7523 31.0616 59.6476 31.0745 59.5424 31.0777" fill="#939598"/>
</g>
<g id="Group_28">
<path id="Vector_27" d="M60.1348 31.0537V29.9699H60.3812L60.3918 30.0382C60.5652 29.9802 60.7461 29.9478 60.9289 29.942C60.9417 29.9412 60.9546 29.9412 60.9674 29.942V30.1999C60.9327 30.1999 60.8923 30.1999 60.8615 30.1999C60.7182 30.2007 60.5756 30.2195 60.437 30.2558V31.0566L60.1348 31.0537Z" fill="#939598"/>
</g>
<g id="Group_29">
<path id="Vector_28" d="M62.0722 30.5981C61.9461 30.5875 61.8171 30.5807 61.6814 30.5807C61.461 30.5807 61.384 30.626 61.384 30.7271C61.384 30.8281 61.4485 30.8734 61.6179 30.8734C61.7711 30.8674 61.9234 30.8458 62.0722 30.8089V30.5981ZM62.1367 31.0534L62.128 30.9889C61.9363 31.0433 61.739 31.0756 61.5399 31.0851C61.4249 31.0927 61.3104 31.0648 61.2117 31.0052C61.172 30.9746 61.1404 30.9348 61.1196 30.8891C61.0987 30.8435 61.0894 30.7935 61.0923 30.7434C61.0892 30.6818 61.1049 30.6207 61.1374 30.5682C61.1699 30.5157 61.2176 30.4744 61.2742 30.4498C61.4038 30.4025 61.5419 30.3829 61.6795 30.3921C61.7931 30.3921 61.9461 30.3988 62.0722 30.4075V30.3873C62.0722 30.2179 61.9606 30.163 61.6564 30.163C61.538 30.163 61.3946 30.1688 61.2569 30.1813V29.9628C61.409 29.9503 61.5813 29.9416 61.7228 29.9416C61.8967 29.9251 62.0716 29.9585 62.2272 30.0379C62.2821 30.0813 62.3247 30.1384 62.3505 30.2034C62.3764 30.2685 62.3846 30.3392 62.3745 30.4084V31.0505L62.1367 31.0534Z" fill="#939598"/>
</g>
<path id="Vector_29" d="M62.7598 29.5117H63.062V31.0518H62.7598V29.5117Z" fill="#939598"/>
</g>
</g>
</svg>
