<svg width="19" height="20" viewBox="0 0 19 20" fill="none" xmlns="http://www.w3.org/2000/svg">
<path id="Vector" d="M5.20508 15C5.47029 15 5.72465 14.8946 5.91218 14.7071C6.09972 14.5196 6.20508 14.2652 6.20508 14C6.20999 13.9334 6.20999 13.8666 6.20508 13.8C6.19413 13.7374 6.17391 13.6767 6.14508 13.62C6.12319 13.5563 6.09293 13.4957 6.05508 13.44L5.93508 13.29C5.83997 13.199 5.72783 13.1276 5.60508 13.08C5.41815 12.992 5.20854 12.964 5.00508 13L4.82508 13.06L4.64508 13.15C4.59269 13.1869 4.5426 13.227 4.49508 13.27L4.37508 13.42C4.33723 13.4757 4.30697 13.5363 4.28508 13.6C4.25625 13.6567 4.23602 13.7174 4.22508 13.78C4.22017 13.8466 4.22017 13.9134 4.22508 13.98C4.22508 14.2452 4.33044 14.4996 4.51797 14.6871C4.70551 14.8746 4.95986 14.98 5.22508 14.98L5.20508 15ZM13.2051 15C13.4703 15 13.7246 14.8946 13.9122 14.7071C14.0997 14.5196 14.2051 14.2652 14.2051 14C14.21 13.9334 14.21 13.8666 14.2051 13.8C14.1941 13.7374 14.1739 13.6767 14.1451 13.62C14.1232 13.5563 14.0929 13.4957 14.0551 13.44L13.9351 13.29C13.8379 13.2017 13.7263 13.1306 13.6051 13.08C13.3616 12.98 13.0885 12.98 12.8451 13.08C12.7239 13.1306 12.6123 13.2017 12.5151 13.29L12.3951 13.44C12.3572 13.4957 12.327 13.5563 12.3051 13.62C12.2762 13.6767 12.256 13.7374 12.2451 13.8C12.2402 13.8666 12.2402 13.9334 12.2451 14C12.2462 14.2623 12.3503 14.5137 12.5351 14.7C12.7123 14.8813 12.9518 14.9886 13.2051 15ZM10.2051 3H8.20508C7.93986 3 7.68551 3.10536 7.49797 3.29289C7.31044 3.48043 7.20508 3.73478 7.20508 4C7.20508 4.26522 7.31044 4.51957 7.49797 4.70711C7.68551 4.89464 7.93986 5 8.20508 5H10.2051C10.4703 5 10.7246 4.89464 10.9122 4.70711C11.0997 4.51957 11.2051 4.26522 11.2051 4C11.2051 3.73478 11.0997 3.48043 10.9122 3.29289C10.7246 3.10536 10.4703 3 10.2051 3ZM15.2051 0H3.20508C2.40943 0 1.64637 0.316071 1.08376 0.87868C0.521149 1.44129 0.205078 2.20435 0.205078 3V15C0.206818 15.6189 0.399957 16.2222 0.758017 16.7271C1.11608 17.2319 1.62153 17.6137 2.20508 17.82V19C2.20508 19.2652 2.31044 19.5196 2.49797 19.7071C2.68551 19.8946 2.93986 20 3.20508 20C3.47029 20 3.72465 19.8946 3.91218 19.7071C4.09972 19.5196 4.20508 19.2652 4.20508 19V18H14.2051V19C14.2051 19.2652 14.3104 19.5196 14.498 19.7071C14.6855 19.8946 14.9399 20 15.2051 20C15.4703 20 15.7246 19.8946 15.9122 19.7071C16.0997 19.5196 16.2051 19.2652 16.2051 19V17.82C16.7886 17.6137 17.2941 17.2319 17.6521 16.7271C18.0102 16.2222 18.2033 15.6189 18.2051 15V3C18.2051 2.20435 17.889 1.44129 17.3264 0.87868C16.7638 0.316071 16.0007 0 15.2051 0ZM16.2051 15C16.2051 15.2652 16.0997 15.5196 15.9122 15.7071C15.7246 15.8946 15.4703 16 15.2051 16H3.20508C2.93986 16 2.68551 15.8946 2.49797 15.7071C2.31044 15.5196 2.20508 15.2652 2.20508 15V12H16.2051V15ZM16.2051 10H2.20508V3C2.20508 2.73478 2.31044 2.48043 2.49797 2.29289C2.68551 2.10536 2.93986 2 3.20508 2H15.2051C15.4703 2 15.7246 2.10536 15.9122 2.29289C16.0997 2.48043 16.2051 2.73478 16.2051 3V10Z" fill="#0D2240"/>
</svg>
