<?xml version="1.0" encoding="UTF-8"?>
<svg id="Camada_2" data-name="Camada 2" xmlns="http://www.w3.org/2000/svg" viewBox="0 0 483.59 88.94">
  <defs>
    <style>
      .cls-1 {
        fill: #fa0;
      }

      .cls-2 {
        fill: #05146e;
      }
    </style>
  </defs>
  <g id="Camada_1-2" data-name="Camada 1">
    <g>
      <path class="cls-2" d="M85.25,88.94l-24.91-24.91c13.2-4.24,22.76-16.62,22.76-31.23C83.1,14.69,68.42,0,50.3,0h-17.5C16.05,0,2.25,12.55.26,28.76h-.26v60.18h16.36v-23.34h22.42l23.34,23.34h23.14ZM16.36,49.46v-19.32c1.28-7.92,8.16-14,16.44-14h17.5c9.18,0,16.66,7.47,16.66,16.66s-7.47,16.66-16.66,16.66H16.36Z"/>
      <path class="cls-2" d="M142.07.08c-26.64,0-45.42,18.78-45.42,44.39s18.78,44.39,45.42,44.39,45.42-18.78,45.42-44.39S168.71.08,142.07.08ZM142.07,73.84c-17.42,0-29.03-12.29-29.03-29.37s11.61-29.37,29.03-29.37,29.03,12.29,29.03,29.37-11.61,29.37-29.03,29.37Z"/>
      <path class="cls-1" d="M341.53.08c-26.64,0-45.42,18.78-45.42,44.39s18.78,44.39,45.42,44.39,45.42-18.78,45.42-44.39S368.17.08,341.53.08ZM341.53,73.84c-17.42,0-29.03-12.29-29.03-29.37s11.61-29.37,29.03-29.37,29.03,12.29,29.03,29.37-11.61,29.37-29.03,29.37Z"/>
      <path class="cls-1" d="M441.92.08c-24.93,0-41.66,14.51-41.66,42.69v43.88h16.22v-43.88c0-18.27,10.07-27.66,25.44-27.66s25.44,9.39,25.44,27.66v43.88h16.22v-43.88C483.59,14.42,466.85.08,441.92.08Z"/>
      <path class="cls-2" d="M238.71.08h-37.88v32.11c-.07,4.03,0,8.17,0,12.29v44.39h37.88c26.64,0,45.42-18.78,45.42-44.39S265.35.08,238.71.08ZM238.71,73.84h-21.49s0-53.24,0-58.73h21.49c17.42,0,29.03,12.29,29.03,29.37s-11.61,29.37-29.03,29.37Z"/>
    </g>
  </g>
</svg>