<svg width="156" height="26" viewBox="0 0 156 26" fill="none" xmlns="http://www.w3.org/2000/svg">
<g id="Group 8946">
<g id="Group 8945">
<path id="Vector 4" d="M18.5403 1.72998H0.878906L9.7096 21.1242L18.5403 1.72998Z" fill="#0187E8"/>
<path id="Vector 5" d="M19.0598 21.1226L36.7212 21.1226L27.8905 1.72838L19.0598 21.1226Z" fill="#FD5001"/>
<path id="Vector 6" d="M12.5954 21.1226L30.2568 21.1226L21.4261 1.72838L12.5954 21.1226Z" fill="#FDCCBD"/>
</g>
<g id="ViajoMucho">
<path d="M36.9502 1.59184H39.8517L44.7422 14.2059L49.6795 1.59184H52.6044L44.7422 21.0074H44.6954L36.9502 1.59184Z" fill="#0187E8"/>
<path d="M56.2574 8.29685V19.7774H53.6835V8.29685H56.2574ZM53.2857 3.30427C53.2857 2.83797 53.4495 2.43599 53.7771 2.09833C54.1047 1.76067 54.4946 1.59184 54.947 1.59184C55.415 1.59184 55.8128 1.76067 56.1404 2.09833C56.4836 2.43599 56.6552 2.83797 56.6552 3.30427C56.6552 3.77056 56.4914 4.18058 56.1638 4.53432C55.8362 4.87199 55.4384 5.04082 54.9704 5.04082C54.4868 5.04082 54.0813 4.87199 53.7537 4.53432C53.4417 4.18058 53.2857 3.77056 53.2857 3.30427Z" fill="#0187E8"/>
<path d="M57.3259 14.013C57.3259 13.1608 57.4585 12.3729 57.7236 11.6494C58.0044 10.9097 58.3866 10.2746 58.8702 9.74397C59.3694 9.19728 59.9466 8.77118 60.6018 8.46568C61.2726 8.16017 61.9979 8.00742 62.7779 8.00742C63.4799 8.00742 64.1273 8.12802 64.7201 8.3692C65.3128 8.61039 65.89 9.01237 66.4516 9.57514H66.475V8.29685H69.049V19.7774H66.475V18.4991H66.4516C65.89 19.0618 65.3128 19.4719 64.7201 19.7291C64.1429 19.9864 63.5189 20.115 62.8481 20.115C62.0525 20.115 61.3116 19.9623 60.6252 19.6568C59.9544 19.3352 59.3694 18.9011 58.8702 18.3544C58.3866 17.8077 58.0044 17.1645 57.7236 16.4249C57.4585 15.6852 57.3259 14.8813 57.3259 14.013ZM59.9466 14.013C59.9466 14.5436 60.0168 15.0421 60.1572 15.5084C60.3132 15.9586 60.5316 16.3525 60.8124 16.6902C61.0932 17.0278 61.4364 17.2931 61.8419 17.4861C62.2631 17.663 62.7311 17.7514 63.2459 17.7514C63.7607 17.7514 64.2209 17.663 64.6265 17.4861C65.0477 17.2931 65.4064 17.0359 65.7028 16.7143C65.9992 16.3766 66.2254 15.9827 66.3814 15.5325C66.553 15.0823 66.6388 14.5918 66.6388 14.0612C66.6388 13.5467 66.553 13.0643 66.3814 12.6141C66.2254 12.1639 65.9992 11.778 65.7028 11.4564C65.4064 11.1187 65.0477 10.8534 64.6265 10.6605C64.2209 10.4675 63.7685 10.3711 63.2693 10.3711C62.7701 10.3711 62.3099 10.4675 61.8887 10.6605C61.4831 10.8534 61.1322 11.1107 60.8358 11.4323C60.555 11.7539 60.3366 12.1398 60.1806 12.59C60.0246 13.0241 59.9466 13.4985 59.9466 14.013Z" fill="#0187E8"/>
<path d="M73.6083 8.29685V26H71.0343V8.29685H73.6083ZM70.6366 3.30427C70.6366 2.83797 70.8004 2.43599 71.1279 2.09833C71.4555 1.76067 71.8455 1.59184 72.2979 1.59184C72.7659 1.59184 73.1637 1.76067 73.4913 2.09833C73.8345 2.43599 74.0061 2.83797 74.0061 3.30427C74.0061 3.77056 73.8423 4.18058 73.5147 4.53432C73.1871 4.87199 72.7893 5.04082 72.3213 5.04082C71.8377 5.04082 71.4321 4.87199 71.1045 4.53432C70.7925 4.18058 70.6366 3.77056 70.6366 3.30427Z" fill="#0187E8"/>
<path d="M75.3336 13.9647C75.3336 13.1447 75.4739 12.3729 75.7547 11.6494C76.0355 10.9258 76.4333 10.2987 76.9481 9.76809C77.4785 9.2214 78.1025 8.78726 78.8201 8.46568C79.5532 8.14409 80.3644 7.9833 81.2536 7.9833C82.1428 7.9833 82.9461 8.14409 83.6637 8.46568C84.3969 8.77118 85.0209 9.19728 85.5357 9.74397C86.0661 10.2907 86.4717 10.9338 86.7524 11.6735C87.0488 12.4131 87.197 13.209 87.197 14.0612C87.197 14.9134 87.0488 15.7093 86.7524 16.449C86.4717 17.1886 86.0661 17.8318 85.5357 18.3785C85.0209 18.9091 84.3969 19.3352 83.6637 19.6568C82.9305 19.9623 82.1116 20.115 81.2068 20.115C80.3332 20.115 79.5298 19.9623 78.7967 19.6568C78.0791 19.3352 77.4629 18.9011 76.9481 18.3544C76.4333 17.8077 76.0355 17.1565 75.7547 16.4007C75.4739 15.645 75.3336 14.833 75.3336 13.9647ZM77.9543 14.013C77.9543 15.1546 78.2507 16.0631 78.8435 16.7384C79.4362 17.4137 80.2396 17.7514 81.2536 17.7514C82.252 17.7514 83.0553 17.4137 83.6637 16.7384C84.2721 16.0631 84.5763 15.1707 84.5763 14.0612C84.5763 12.9678 84.2721 12.0835 83.6637 11.4082C83.0709 10.7168 82.2676 10.3711 81.2536 10.3711C80.77 10.3711 80.3254 10.4595 79.9198 10.6364C79.5142 10.8132 79.1632 11.0705 78.8669 11.4082C78.5705 11.7297 78.3443 12.1156 78.1883 12.5659C78.0323 13 77.9543 13.4824 77.9543 14.013Z" fill="#0187E8"/>
<path d="M88.2622 19.7774L91.9827 0.217069H92.0295L98.0197 14.3506L104.267 0.217069H104.314L107.637 19.7774H104.899L103.214 8.80334L97.9963 20.5492H97.9495L92.9186 8.77922L91.0233 19.7774H88.2622Z" fill="#0187E8"/>
<path d="M109.569 8.29685H112.143V14.8813C112.143 16.7947 112.869 17.7514 114.319 17.7514C115.786 17.7514 116.519 16.7947 116.519 14.8813V8.29685H119.093V14.9536C119.093 16.5776 118.687 17.8479 117.876 18.7644C117.065 19.6648 115.879 20.115 114.319 20.115C113.602 20.115 112.947 20.0105 112.354 19.8015C111.777 19.5925 111.278 19.2789 110.856 18.8609C110.451 18.4267 110.131 17.8881 109.897 17.2449C109.679 16.6017 109.569 15.838 109.569 14.9536V8.29685Z" fill="#0187E8"/>
<path d="M120.761 14.0853C120.761 13.2171 120.902 12.4131 121.182 11.6735C121.479 10.9177 121.892 10.2746 122.423 9.74397C122.969 9.19728 123.616 8.77118 124.365 8.46568C125.114 8.14409 125.94 7.9833 126.845 7.9833C127.438 7.9833 128.007 8.0637 128.553 8.22449C129.115 8.38528 129.575 8.57823 129.934 8.80334V11.8182C129.45 11.3197 128.959 10.9579 128.46 10.7328C127.976 10.4917 127.407 10.3711 126.751 10.3711C126.221 10.3711 125.745 10.4675 125.324 10.6605C124.919 10.8374 124.568 11.0946 124.271 11.4323C123.99 11.7539 123.772 12.1398 123.616 12.59C123.46 13.0402 123.382 13.5306 123.382 14.0612C123.382 14.5758 123.452 15.0581 123.593 15.5084C123.733 15.9586 123.944 16.3525 124.224 16.6902C124.505 17.0118 124.848 17.269 125.254 17.462C125.675 17.6549 126.159 17.7514 126.705 17.7514C127.344 17.7514 127.906 17.6388 128.389 17.4137C128.889 17.1886 129.403 16.8429 129.934 16.3766V19.2468C129.528 19.5201 129.052 19.7291 128.506 19.8738C127.96 20.0346 127.399 20.115 126.822 20.115C125.917 20.115 125.09 19.9623 124.341 19.6568C123.593 19.3513 122.953 18.9332 122.423 18.4026C121.892 17.8559 121.479 17.2208 121.182 16.4972C120.902 15.7576 120.761 14.9536 120.761 14.0853Z" fill="#0187E8"/>
<path d="M131.954 19.7774V0H134.528V9.5269H134.575C134.98 9.04453 135.456 8.66667 136.002 8.39332C136.548 8.11998 137.195 7.9833 137.944 7.9833C139.239 7.9833 140.198 8.40136 140.822 9.23748C141.462 10.0575 141.782 11.2233 141.782 12.7347V19.7774H139.208V13.3618C139.208 12.2523 139.036 11.4805 138.693 11.0464C138.35 10.5962 137.819 10.3711 137.102 10.3711C136.712 10.3711 136.353 10.4354 136.025 10.564C135.713 10.6926 135.44 10.9017 135.206 11.1911C134.988 11.4805 134.816 11.8664 134.692 12.3488C134.582 12.8151 134.528 13.402 134.528 14.1095V19.7774H131.954Z" fill="#0187E8"/>
<path d="M143.44 13.9647C143.44 13.1447 143.58 12.3729 143.861 11.6494C144.142 10.9258 144.539 10.2987 145.054 9.76809C145.585 9.2214 146.208 8.78726 146.926 8.46568C147.659 8.14409 148.47 7.9833 149.36 7.9833C150.249 7.9833 151.052 8.14409 151.77 8.46568C152.503 8.77118 153.127 9.19728 153.642 9.74397C154.172 10.2907 154.578 10.9338 154.858 11.6735C155.155 12.4131 155.303 13.209 155.303 14.0612C155.303 14.9134 155.155 15.7093 154.858 16.449C154.578 17.1886 154.172 17.8318 153.642 18.3785C153.127 18.9091 152.503 19.3352 151.77 19.6568C151.037 19.9623 150.218 20.115 149.313 20.115C148.439 20.115 147.636 19.9623 146.903 19.6568C146.185 19.3352 145.569 18.9011 145.054 18.3544C144.539 17.8077 144.142 17.1565 143.861 16.4007C143.58 15.645 143.44 14.833 143.44 13.9647ZM146.06 14.013C146.06 15.1546 146.357 16.0631 146.949 16.7384C147.542 17.4137 148.346 17.7514 149.36 17.7514C150.358 17.7514 151.161 17.4137 151.77 16.7384C152.378 16.0631 152.682 15.1707 152.682 14.0612C152.682 12.9678 152.378 12.0835 151.77 11.4082C151.177 10.7168 150.374 10.3711 149.36 10.3711C148.876 10.3711 148.431 10.4595 148.026 10.6364C147.62 10.8132 147.269 11.0705 146.973 11.4082C146.676 11.7297 146.45 12.1156 146.294 12.5659C146.138 13 146.06 13.4824 146.06 14.013Z" fill="#0187E8"/>
</g>
</g>
</svg>
