<svg version="1.2" xmlns="http://www.w3.org/2000/svg" viewBox="0 0 66 45" width="66" height="45">
	<title>formapgto-visa-svg</title>
	<style>
		.s0 { fill: #0066b3 } 
		.s1 { fill: #faa634 } 
	</style>
	<g id="Layer">
		<path id="Layer" class="s0" d="m28.9 32h-4.9l3.1-18.7h4.8z"/>
		<path id="Layer" class="s0" d="m19.9 13.3l-4.7 12.9-0.5-2.8-1.6-8.4q-0.1-0.4-0.3-0.7-0.2-0.4-0.6-0.6-0.3-0.2-0.7-0.3-0.4-0.1-0.8-0.1h-7.6l-0.1 0.3q0.7 0.2 1.3 0.4 0.7 0.2 1.3 0.5 0.7 0.3 1.3 0.6 0.6 0.3 1.2 0.6l4.3 16.3h5l7.8-18.7z"/>
		<path id="Layer" fill-rule="evenodd" class="s0" d="m57.6 29.2h-6.2l-1 2.8h-5.1l7.3-17.3q0.1-0.3 0.4-0.6 0.2-0.3 0.5-0.5 0.3-0.2 0.6-0.2 0.4-0.1 0.7-0.1h3.9l4 18.7h-4.5zm-0.7-3.8l-1.5-7-2.5 7z"/>
		<path id="Layer" class="s0" d="m45.8 17.8l0.7-4q-0.6-0.2-1.1-0.3-0.6-0.2-1.1-0.3-0.6-0.1-1.1-0.1-0.6-0.1-1.1-0.1c-2.5 0-8.2 1-8.2 6.2 0 4.8 6.7 4.9 6.7 7.4 0 2.6-6 2.1-8 0.5l-0.7 4.3q0.7 0.2 1.3 0.4 0.7 0.2 1.4 0.4 0.7 0.1 1.4 0.2 0.7 0 1.4 0c3.3 0 8.3-1.7 8.3-6.4 0-4.9-6.8-5.3-6.8-7.5 0-2.1 4.8-1.9 6.9-0.7z"/>
		<path id="Layer" class="s1" d="m14.7 23.4l-1.6-8.4q-0.1-0.4-0.3-0.7-0.2-0.4-0.5-0.6-0.3-0.2-0.7-0.3-0.4-0.1-0.8-0.1h-7.7l-0.1 0.3q1 0.2 1.9 0.6 1 0.4 1.9 0.8 0.9 0.5 1.8 1 0.8 0.6 1.6 1.3 0.8 0.5 1.4 1.2 0.7 0.7 1.3 1.5 0.6 0.8 1 1.6 0.5 0.9 0.8 1.8z"/>
	</g>
</svg>